<svg width="105" height="84" viewBox="0 0 105 84" fill="none" xmlns="http://www.w3.org/2000/svg">
<g clip-path="url(#clip0_2083_94)">
<path fill-rule="evenodd" clip-rule="evenodd" d="M44.7467 39.5427L43.1682 40.1685C40.4184 37.9212 36.6586 32.5415 34.2265 31.4642C32.1652 30.5511 30.4041 31.2065 28.9614 33.5256C29.0515 32.367 29.5356 31.4067 30.6008 30.7388C31.4399 30.2126 32.3932 30.1397 33.3605 30.2861C35.0332 30.5394 36.5732 31.5848 38.05 32.9961C37.1836 31.7608 36.0987 30.6072 35.2193 29.3769C34.1505 27.8813 33.6238 26.6023 33.6329 24.7303C33.6358 24.122 33.7085 23.5243 33.8406 22.9354C34.2762 25.9766 35.1354 28.4786 36.6448 29.599C35.3822 26.7974 34.8399 23.8183 35.754 20.4804C36.621 17.5151 40.1739 14.8546 42.5943 17.4477C42.8721 17.8066 43.07 18.1661 43.1823 18.5258C43.3814 19.1631 43.312 19.801 42.9432 20.437C42.1779 22.1401 40.654 22.1813 39.745 24.1576C38.6404 26.5594 39.097 29.7219 40.5852 32.4184C42.3029 35.3055 44.3618 37.5461 46.8037 39.0613L45.7513 39.302C45.1291 38.8064 44.5123 38.282 43.9043 37.7119C42.0496 35.9729 39.7199 33.2521 38.9143 30.7779C38.8596 30.61 38.8082 30.4379 38.76 30.2616C38.3026 28.5885 38.0914 26.5547 38.555 24.8626C38.9038 23.5894 39.6338 22.5656 40.9658 21.6568C43.216 20.1216 43.1689 17.6488 40.6822 17.1876C39.2175 16.916 37.6526 18.2744 36.8446 19.7885C36.1909 21.0133 36.0582 22.6154 36.1517 23.9793C36.2148 24.9003 36.391 25.7798 36.615 26.6419C36.6626 25.2849 36.8682 23.9927 37.277 22.7837C37.9121 20.9056 39.1202 18.734 41.4012 20.1406C39.127 20.1134 37.8019 21.8074 37.5717 26.1124C37.5782 28.8633 38.2326 31.277 39.3894 33.4292C40.8662 35.9853 42.7618 37.8391 44.7468 39.5426L44.7467 39.5427Z" fill="white"/>
<path fill-rule="evenodd" clip-rule="evenodd" d="M42.2158 40.4449L41.4079 40.7933C40.0159 39.4254 38.6316 37.9609 37.2418 36.5641C36.3068 35.6242 34.2335 33.376 32.9993 33.0364C31.0438 32.4983 30.2777 34.971 31.3119 36.0525C31.9885 36.7601 32.7548 36.6668 33.4252 35.9734C33.3699 37.1098 32.1606 37.143 31.3621 36.7437C30.1312 36.1281 29.832 34.4589 30.5398 33.3601C30.8997 32.7805 31.4057 32.3804 32.1364 32.2568C32.9076 32.207 33.6286 32.3251 34.2315 32.7362C36.1414 34.0389 40.2221 38.6336 42.2158 40.4449L42.2158 40.4449Z" fill="white"/>
<path fill-rule="evenodd" clip-rule="evenodd" d="M33.9532 34.8932C34.6988 35.2612 34.6799 36.1019 34.3418 36.8082C33.8519 37.8319 32.793 38.3555 31.6826 38.2539C30.075 38.1068 28.5421 36.7652 27.8619 35.337C27.5153 34.6091 27.3331 33.8002 27.3282 32.9479C27.3228 31.9862 27.5716 31.0236 28.0735 30.0665C28.9289 28.4356 30.3807 27.0942 32.2228 26.7976C31.2392 25.4604 31.1557 23.4589 31.8786 21.9827C32.6084 20.4927 34.1181 19.5387 35.9985 19.8068L35.7538 20.4804C34.0601 20.0836 32.9011 21.131 32.3908 22.5444C31.6341 24.6402 32.3874 25.7752 33.2246 27.5919C31.7142 26.947 29.85 28.4663 28.8228 30.2496C27.962 32.0947 28.1249 33.7994 28.7318 35.443C29.4015 36.7489 30.6293 37.7444 31.9632 37.7157C33.6133 37.6802 34.4237 36.4812 33.9532 34.8932H33.9532Z" fill="white"/>
<path fill-rule="evenodd" clip-rule="evenodd" d="M29.9253 41.7651C29.9041 41.3072 30.0189 40.9737 30.2979 40.7904C29.9489 46.1894 38.2159 43.1408 40.6916 41.8776C47.5754 38.7108 54.7319 37.8081 62.4105 41.2403C66.5778 43.2521 70.4414 44.7489 72.8788 43.827C74.188 43.1938 74.8228 42.1851 74.6297 40.7154C75.3353 41.436 75.2989 42.3508 74.4062 43.4896C71.2328 46.9342 65.3338 43.7695 61.5853 42.5683C56.4003 40.9069 51.1199 39.811 43.5793 42.2701C40.9876 43.1153 38.3309 44.8021 35.7522 44.954C34.6419 45.0194 33.5316 44.8923 32.4213 44.5393C31.7117 44.319 31.0674 43.9343 30.5214 43.3022C30.1887 42.9247 29.9852 42.4172 29.9253 41.7651V41.7651Z" fill="white"/>
<path fill-rule="evenodd" clip-rule="evenodd" d="M61.4578 18.1866L43.3856 18.0975C41.7469 13.9261 39.6928 10.2511 37.2729 7.01313C38.7228 7.90433 40.1727 8.79553 41.6225 9.68669C41.9936 9.91482 42.3648 10.143 42.7359 10.3711C42.6375 10.6584 42.5391 10.9456 42.4406 11.2329L40.0249 9.62785C40.3457 10.6978 42.4451 14.1837 43.8691 13.4546C44.6961 13.0313 44.5372 12.4672 44.5372 11.6787C44.2969 11.7751 43.965 11.7979 43.6513 11.4706C43.5198 10.6877 44.5418 10.7338 44.6849 9.89566L45.4527 10.4008C46.5368 10.7973 46.5927 11.4156 45.3641 11.5598C45.6088 12.5449 45.4959 13.0022 46.5539 13.3467C47.93 13.7948 49.2976 12.8344 50.2541 11.5658C50.6586 11.0295 50.9896 10.438 51.2166 9.8746C51.442 9.31543 51.4007 9.33045 51.0144 8.83407C50.7761 8.52791 50.5396 8.31651 50.3048 8.19421C49.7516 7.90601 49.2076 8.11206 48.6714 8.73669C49.9749 9.06938 48.7269 10.4709 47.9478 9.63253C47.4628 9.11061 47.6079 8.42787 47.9493 7.86971C48.6677 6.69489 50.2938 6.69385 51.4472 7.81548C49.4563 5.17133 51.2703 2.54917 52.4217 0L53.3046 2.18218C54.1507 4.27336 54.8777 5.67662 53.3667 7.81548C54.3701 6.72989 55.9563 6.68882 56.7585 8.01531C57.1022 8.58368 57.1872 9.44592 56.4877 9.77431C55.9295 10.0364 55.2825 9.53802 55.6405 9.09328C55.9516 8.65495 56.0344 8.58157 55.4651 8.19411C55.0482 7.91043 54.6369 8.00368 54.2294 8.35998C53.3148 9.15958 53.4013 9.43716 53.8828 10.433C55.543 13.8664 59.2988 14.6476 59.4794 11.6786C59.2757 11.618 59.1031 11.5406 58.9628 11.4457C58.1698 10.9091 58.5623 10.6806 59.1236 10.5167C59.6161 10.3729 59.6453 10.015 60.0109 9.47956C60.1699 9.91893 60.4175 10.2611 60.7396 10.5215C61.1546 10.857 61.7236 10.7871 61.1254 11.3992C60.9052 11.6245 60.6907 11.7118 60.3266 11.6585C60.3621 12.9572 59.7209 13.6035 60.7272 13.5448C60.9854 13.5297 61.2391 13.5367 61.485 13.482C62.8811 13.1713 63.8731 10.8169 64.647 9.68761L62.1075 11.3518L61.7236 10.7871L68.102 6.56738C64.4026 10.5554 62.2284 14.4253 61.4578 18.1866L61.4578 18.1866ZM46.3174 15.6167C46.6766 15.6167 46.9679 15.9098 46.9679 16.2713C46.9679 16.6329 46.6766 16.9259 46.3174 16.9259C45.9581 16.9259 45.6669 16.6329 45.6669 16.2713C45.6669 15.9098 45.9581 15.6167 46.3174 15.6167ZM58.6389 15.6167C58.9981 15.6167 59.2894 15.9098 59.2894 16.2713C59.2894 16.6329 58.9981 16.9259 58.6389 16.9259C58.2796 16.9259 57.9884 16.6329 57.9884 16.2713C57.9884 15.9098 58.2796 15.6167 58.6389 15.6167ZM52.4469 13.0865C51.869 14.0693 50.8055 14.8399 51.365 15.9549C51.8776 16.9762 53.3655 16.881 53.6447 15.7136C53.8826 14.7193 52.9737 13.8509 52.4469 13.0865L52.4469 13.0865ZM52.4347 8.43299C53.2106 6.5215 54.2244 4.99802 52.4202 3.26084C50.9002 5.00713 51.399 6.57806 52.4347 8.43299Z" fill="white"/>
<path fill-rule="evenodd" clip-rule="evenodd" d="M43.5302 19.232L43.4866 18.6614H61.267L61.1652 19.232H43.5302Z" fill="white"/>
<path fill-rule="evenodd" clip-rule="evenodd" d="M60.2534 39.5427L61.832 40.1685C64.5818 37.9212 68.3416 32.5415 70.7737 31.4642C72.8349 30.5511 74.5961 31.2065 76.0388 33.5256C75.9487 32.367 75.4646 31.4067 74.3994 30.7388C73.5603 30.2126 72.607 30.1397 71.6397 30.2861C69.967 30.5394 68.427 31.5848 66.9502 32.9961C67.8166 31.7608 68.9015 30.6072 69.7809 29.3769C70.8497 27.8813 71.3764 26.6023 71.3673 24.7303C71.3644 24.122 71.2916 23.5243 71.1596 22.9354C70.724 25.9766 69.8648 28.4786 68.3554 29.599C69.618 26.7974 70.1603 23.8183 69.2462 20.4804C68.3792 17.5151 64.8263 14.8546 62.4059 17.4477C62.1281 17.8066 61.9302 18.1661 61.8179 18.5258C61.6188 19.1631 61.6882 19.801 62.057 20.437C62.8222 22.1401 64.3462 22.1813 65.2552 24.1576C66.3598 26.5594 65.9032 29.7219 64.415 32.4184C62.6973 35.3055 60.6384 37.5461 58.1965 39.0613L59.2489 39.302C59.8711 38.8064 60.4879 38.282 61.0959 37.7119C62.9506 35.9729 65.2803 33.2521 66.0859 30.7779C66.1406 30.61 66.192 30.4379 66.2402 30.2616C66.6976 28.5885 66.9088 26.5547 66.4452 24.8626C66.0964 23.5894 65.3664 22.5656 64.0344 21.6568C61.7842 20.1216 61.8313 17.6488 64.318 17.1876C65.7827 16.916 67.3476 18.2744 68.1556 19.7885C68.8093 21.0133 68.942 22.6154 68.8485 23.9793C68.7854 24.9003 68.6092 25.7798 68.3852 26.6419C68.3376 25.2849 68.132 23.9927 67.7232 22.7837C67.0881 20.9056 65.88 18.734 63.599 20.1406C65.8732 20.1134 67.1983 21.8074 67.4285 26.1124C67.422 28.8633 66.7676 31.277 65.6108 33.4292C64.134 35.9853 62.2384 37.8391 60.2533 39.5426L60.2534 39.5427Z" fill="white"/>
<path fill-rule="evenodd" clip-rule="evenodd" d="M62.7837 40.4449L63.5916 40.7933C64.9836 39.4254 66.3679 37.9609 67.7576 36.5641C68.6927 35.6242 70.7659 33.376 72.0002 33.0364C73.9556 32.4983 74.7218 34.971 73.6876 36.0525C73.011 36.7601 72.2446 36.6668 71.5743 35.9734C71.6296 37.1098 72.8388 37.143 73.6374 36.7437C74.8683 36.1281 75.1675 34.4589 74.4597 33.3601C74.0998 32.7805 73.5938 32.3804 72.8631 32.2568C72.0919 32.207 71.3708 32.3251 70.768 32.7362C68.8581 34.0389 64.7774 38.6336 62.7837 40.4449L62.7837 40.4449Z" fill="white"/>
<path fill-rule="evenodd" clip-rule="evenodd" d="M71.047 34.8929C70.3014 35.2609 70.3204 36.1017 70.6584 36.8079C71.1484 37.8316 72.2072 38.3552 73.3176 38.2536C74.9252 38.1065 76.4581 36.7649 77.1383 35.3367C77.4849 34.6089 77.6672 33.7999 77.672 32.9477C77.6774 31.9859 77.4286 31.0233 76.9267 30.0663C76.0714 28.4353 74.6195 27.0939 72.7774 26.7973C73.761 25.4601 73.8446 23.4586 73.1216 21.9825C72.3918 20.4924 70.8821 19.5385 69.0017 19.8065L69.2464 20.4801C70.9401 20.0834 72.0991 21.1308 72.6094 22.5442C73.3661 24.64 72.6128 25.775 71.7756 27.5916C73.2861 26.9468 75.1502 28.4661 76.1774 30.2494C77.0382 32.0945 76.8754 33.7991 76.2685 35.4428C75.5988 36.7487 74.3709 37.7442 73.037 37.7155C71.3869 37.68 70.5766 36.481 71.047 34.8929H71.047Z" fill="white"/>
<path d="M54.0802 27.9662C55.2802 27.6428 56.973 26.8018 56.973 24.7532C56.973 23.7613 56.5444 22.8125 55.773 22.2949C55.1088 21.8205 54.1659 21.5618 52.5588 21.5618H47.0518V22.1656C48.766 22.2949 48.8518 22.4243 48.8518 24.2141V32.9043C48.8518 34.7156 48.7232 34.845 46.8804 34.9744V35.5782H51.616C53.3088 35.5782 54.7231 35.3194 55.8159 34.7156C57.0802 34.004 57.873 32.9043 57.873 31.4595C57.873 29.3031 56.2016 28.3543 54.0802 28.0309V27.9662L54.0802 27.9662ZM50.6517 27.7721V23.5456C50.6517 22.834 50.7374 22.5968 50.9303 22.4674C51.1445 22.3381 51.616 22.2518 52.1517 22.2518C54.1873 22.2518 55.0016 23.5456 55.0016 25.012C55.0016 26.8233 54.0159 27.7721 51.6588 27.7721H50.6517ZM50.6517 28.4837H51.6374C54.2516 28.4837 55.7516 29.4541 55.7516 31.6752C55.7516 33.9178 54.1873 34.8235 52.4302 34.8451C51.0588 34.8451 50.6517 34.4354 50.6517 32.8828V28.4837Z" fill="white"/>
<path d="M9.80867 57.0479C11.66 56.6586 13.9258 55.5463 13.9258 52.9047C13.9258 51.57 13.3179 50.4021 12.3231 49.7348C11.3284 49.0674 10.0021 48.7893 7.9021 48.7893H0.192931V49.6791C2.23765 49.8738 2.43107 50.0406 2.43107 52.4042V63.2487C2.43107 65.5844 2.21 65.779 -0.000488281 65.9459V66.8635H6.68635C8.95211 66.8635 10.9692 66.502 12.3784 65.6956C13.9534 64.8336 14.9758 63.3877 14.9758 61.5247C14.9758 58.8275 12.8482 57.5484 9.8087 57.1591V57.0479H9.80867ZM5.60869 56.7698V51.431C5.60869 50.708 5.69158 50.3465 5.91264 50.1519C6.10606 49.9851 6.60344 49.846 7.23896 49.846C9.17318 49.846 10.4995 51.0417 10.4995 53.3496C10.4995 55.6576 9.28371 56.7698 6.46528 56.7698H5.60872L5.60869 56.7698ZM5.60869 57.8265H6.41002C9.6429 57.8265 11.3837 59.1055 11.3837 61.8028C11.3837 64.6112 9.53237 65.7513 7.7363 65.7791C6.13368 65.8069 5.60869 65.2229 5.60869 63.1931V57.8265ZM34.0138 66.2796C33.3783 66.0849 32.8533 65.7513 32.2178 65.0561C31.6099 64.4166 31.0296 63.5824 30.0625 62.0809C29.2336 60.8018 28.156 58.9665 27.7139 58.1045C29.6481 57.2981 31.1954 55.9078 31.1954 53.4887C31.1954 51.7647 30.4494 50.5412 29.3441 49.7904C28.2665 49.0397 26.8849 48.7894 24.5915 48.7894H17.1863V49.6792C19.231 49.8738 19.4797 50.0963 19.4797 52.3764V63.2487C19.4797 65.5566 19.2034 65.7791 17.0757 65.9737V66.8636H25.006V65.9737C22.8784 65.7791 22.6297 65.5566 22.6297 63.2487V59.0499H23.2652C24.3704 59.0499 24.8402 59.4114 25.3099 60.2178C26.1113 61.6359 26.9402 63.2209 27.7415 64.4444C28.9296 66.224 30.0072 66.9469 32.9915 67.086C33.323 67.086 33.627 67.1138 33.848 67.1138L34.0138 66.2796L34.0138 66.2796ZM22.6297 58.0211V51.2086C22.6297 50.569 22.6849 50.2631 22.8784 50.0963C23.0718 49.9295 23.4863 49.8183 24.2323 49.8183C25.9731 49.8183 27.7691 50.9027 27.7691 53.9058C27.7691 55.3517 27.3546 56.464 26.3876 57.2704C25.7244 57.8265 24.8126 58.0212 23.5692 58.0212H22.6297V58.0211ZM50.123 48.7894H43.823V49.6792C45.8954 49.9295 45.9507 50.2353 45.4533 51.4588C44.7349 53.155 43.298 55.8244 42.4414 57.4928C41.3086 55.4351 40.0928 53.294 39.0704 51.2363C38.573 50.2631 38.5178 49.9295 40.3967 49.6792V48.7894H32.9639V49.6792C34.5389 49.8738 34.9533 50.1797 36.0033 52.0427C37.6059 54.8512 38.6007 56.6864 39.4296 58.2714C39.7612 58.9387 39.8717 59.189 39.8717 59.8563V63.1653C39.8717 65.6122 39.6231 65.8069 37.2467 65.9737V66.8636H45.7849V65.9737C43.298 65.7791 43.077 65.6122 43.077 63.1653V59.4949C43.077 58.7163 43.1599 58.3826 43.5467 57.6596C44.9006 55.1015 45.702 53.7389 46.8072 51.9593C47.8572 50.3187 48.327 49.8738 50.123 49.6792V48.7894ZM66.3703 66.8636V65.9737C64.6019 65.7791 64.2427 65.4454 63.3308 62.9985C61.5348 58.2158 59.794 53.2106 58.0532 48.3723L56.8375 48.706L51.1454 63.0819C50.2059 65.4732 49.8467 65.7513 48.0507 65.9737V66.8636H54.1572V65.9737C52.1401 65.7235 52.002 65.3898 52.4717 63.8883C52.8032 62.776 53.1901 61.6915 53.5493 60.6905H59.048C59.5453 62.0252 60.0151 63.3321 60.319 64.2497C60.7335 65.4176 60.5401 65.7235 58.8822 65.9737V66.8636H66.3703ZM58.6059 59.328H53.9914C54.7651 57.2425 55.5111 55.0736 56.3401 52.9325H56.3954L58.6059 59.328ZM86.8176 48.7894H80.1584V49.6792C82.1479 49.7904 82.7558 50.2075 82.8939 51.431C82.9492 52.2374 83.0873 53.5443 83.0873 56.0191V61.6359H83.0045L72.09 48.7894H67.3651V49.6792C68.5808 49.7904 69.1887 50.0129 69.7413 50.708C70.2387 51.3476 70.294 51.7091 70.294 53.6277V59.5227C70.294 62.0252 70.1558 63.2765 70.0453 64.1941C69.9348 65.4454 69.2716 65.8625 67.7242 65.9737V66.8636H74.3834V65.9737C72.4216 65.8625 71.869 65.4176 71.7308 64.1107C71.6479 63.2765 71.5374 62.0252 71.5374 59.5227V53.016H71.5927L83.1979 67.1416H84.3584V56.0191C84.3584 53.5165 84.4689 52.2374 84.5794 51.3754C84.7176 50.1241 85.3255 49.7626 86.8176 49.6792V48.7894L86.8176 48.7894ZM104.999 66.8636V65.9737C103.231 65.7791 102.871 65.4454 101.96 62.9985C100.164 58.2158 98.4228 53.2106 96.682 48.3723L95.4663 48.706L89.7742 63.0819C88.8347 65.4732 88.4755 65.7513 86.6795 65.9737V66.8636H92.786V65.9737C90.7689 65.7235 90.6308 65.3898 91.1005 63.8883C91.432 62.776 91.8189 61.6915 92.1781 60.6905H97.6768C98.1741 62.0252 98.6439 63.3321 98.9478 64.2497C99.3623 65.4176 99.1689 65.7235 97.511 65.9737V66.8636H104.999ZM97.2347 59.328H92.6202C93.3939 57.2425 94.1399 55.0736 94.9689 52.9325H95.0241L97.2347 59.328Z" fill="white"/>
<path d="M16.0152 75.2437C15.8736 75.1919 15.7642 75.1141 15.6226 74.9652C15.5003 74.8292 15.3587 74.6219 15.1335 74.2592C14.9404 73.9613 14.7023 73.5338 14.6057 73.3395C15.0369 73.1646 15.4102 72.8537 15.4102 72.2837C15.4102 71.8822 15.2364 71.5972 14.979 71.4223C14.7151 71.2475 14.3933 71.1827 13.8269 71.1827H12.0184V71.4094C12.4882 71.4547 12.5462 71.5195 12.5462 72.0377V74.5248C12.5462 75.0623 12.4754 75.1207 11.9927 75.166V75.3927H13.9364V75.166C13.4472 75.1206 13.3893 75.0623 13.3893 74.5248V73.5792H13.5116C13.7175 73.5792 13.8334 73.6634 13.9364 73.8577C14.123 74.2009 14.2968 74.5507 14.4641 74.8162C14.728 75.2243 14.9726 75.4056 15.7835 75.4445C15.8672 75.4445 15.938 75.451 15.9766 75.451L16.0152 75.2437V75.2437ZM13.3893 73.3201V71.7462C13.3893 71.6102 13.4022 71.5454 13.4472 71.5066C13.4858 71.4677 13.5759 71.4418 13.7368 71.4418C14.0973 71.4418 14.4963 71.6879 14.4963 72.3809C14.4963 72.7112 14.4062 72.9703 14.1874 73.1516C14.0458 73.2747 13.8269 73.32 13.5566 73.32H13.3893V73.3201ZM20.1905 74.2722C20.0746 74.5572 19.9588 74.7644 19.8301 74.9069C19.682 75.0688 19.4568 75.1142 19.1221 75.1142C18.8775 75.1142 18.6587 75.1012 18.5428 75.0494C18.4141 74.9846 18.3884 74.8292 18.3884 74.5183V73.3913H18.8196C19.3667 73.3913 19.4503 73.4172 19.534 73.8836H19.7657V72.5817H19.534C19.4503 73.0351 19.3602 73.0675 18.8196 73.0675H18.3884V71.6944C18.3884 71.4806 18.4141 71.4677 18.6523 71.4677H18.9612C19.3216 71.4677 19.4954 71.513 19.6048 71.6296C19.7206 71.7462 19.8043 71.9599 19.8622 72.1866L20.1004 72.1542C20.0746 71.7527 20.0424 71.2993 20.036 71.1827H17.0046V71.4094C17.4616 71.4483 17.5259 71.4807 17.5259 72.0442V74.5313C17.5259 75.0818 17.4616 75.1207 16.9145 75.166V75.3927H20.1969C20.2484 75.1984 20.3771 74.609 20.4222 74.3175L20.1905 74.2722V74.2722ZM24.0697 72.1866C24.0182 71.7851 23.9731 71.4936 23.9474 71.254C23.8315 71.2151 23.4647 71.0856 23.0528 71.0856C22.1388 71.0856 21.5789 71.6426 21.5789 72.355C21.5789 72.9768 22.0423 73.3265 22.6988 73.6633C23.1815 73.9224 23.4647 74.162 23.4647 74.5442C23.4647 74.9587 23.2137 75.2307 22.8211 75.2307C22.2032 75.2307 21.8235 74.4988 21.6948 74.0843L21.4695 74.162C21.5146 74.5506 21.5982 75.0947 21.6626 75.2566C21.7463 75.2955 21.8685 75.3473 22.0487 75.3991C22.2418 75.4574 22.4671 75.4898 22.6988 75.4898C23.6384 75.4898 24.2627 74.9134 24.2627 74.175C24.2627 73.5338 23.7993 73.1711 23.1236 72.8408C22.5572 72.5493 22.3255 72.3485 22.3255 71.9923C22.3255 71.6167 22.5894 71.3511 22.9498 71.3511C23.4711 71.3511 23.7157 71.8304 23.8444 72.2384L24.0697 72.1866H24.0697ZM27.7494 71.092C26.2755 71.092 25.4839 72.1866 25.4839 73.3006C25.4839 74.5377 26.3785 75.4898 27.6657 75.4898C28.8821 75.4898 29.8797 74.6413 29.8797 73.2424C29.8797 71.9664 28.9207 71.092 27.7494 71.092ZM27.6206 71.3641C28.3737 71.3641 28.8886 72.1348 28.8886 73.4237C28.8886 74.6154 28.393 75.2178 27.7815 75.2178C26.9577 75.2178 26.475 74.2851 26.475 73.1711C26.475 72.0506 26.977 71.3641 27.6206 71.3641ZM35.0461 75.2437C34.9045 75.1919 34.7951 75.1141 34.6535 74.9652C34.5313 74.8292 34.3897 74.6219 34.1644 74.2592C33.9713 73.9613 33.7332 73.5338 33.6366 73.3395C34.0678 73.1646 34.4411 72.8537 34.4411 72.2837C34.4411 71.8822 34.2674 71.5972 34.0099 71.4223C33.7461 71.2475 33.4243 71.1827 32.8579 71.1827H31.0493V71.4094C31.5192 71.4547 31.5771 71.5195 31.5771 72.0377V74.5248C31.5771 75.0623 31.5063 75.1207 31.0236 75.166V75.3927H32.9673V75.166C32.4781 75.1206 32.4202 75.0623 32.4202 74.5248V73.5792H32.5425C32.7484 73.5792 32.8643 73.6634 32.9673 73.8577C33.1539 74.2009 33.3277 74.5507 33.495 74.8162C33.7589 75.2243 34.0035 75.4056 34.8144 75.4445C34.8981 75.4445 34.9689 75.451 35.0075 75.451L35.0461 75.2437V75.2437ZM32.4202 73.3201V71.7462C32.4202 71.6102 32.4331 71.5454 32.4781 71.5066C32.5168 71.4677 32.6069 71.4418 32.7678 71.4418C33.1282 71.4418 33.5272 71.6879 33.5272 72.3809C33.5272 72.7112 33.4371 72.9703 33.2183 73.1516C33.0767 73.2747 32.8579 73.32 32.5875 73.32H32.4202V73.3201ZM39.5368 72.2773C39.5046 71.8628 39.4724 71.2928 39.466 71.0208H39.3051C39.1957 71.1438 39.1056 71.1827 38.9382 71.1827H36.3509C36.1643 71.1827 36.0806 71.1633 35.9841 71.0208H35.8232C35.8103 71.3511 35.7717 71.8239 35.7459 72.2967H35.9841C36.0677 71.9729 36.145 71.7527 36.2544 71.6426C36.3445 71.5325 36.4603 71.4677 36.9945 71.4677H37.2133V74.5312C37.2133 75.0818 37.149 75.1206 36.6083 75.1659V75.3926H38.7065V75.1659C38.1401 75.1206 38.0758 75.0817 38.0758 74.5312V71.4677H38.3654C38.7451 71.4677 38.906 71.5001 39.0219 71.6166C39.1377 71.7332 39.2278 71.9534 39.3051 72.2902L39.5367 72.2773L39.5368 72.2773ZM46.5439 72.6335H45.0185L45.0121 72.8537C45.4562 72.912 45.5012 73.0092 45.3661 73.3006C45.2695 73.5079 45.1666 73.6892 45.0507 73.8577C44.6066 73.4302 44.2398 73.1063 44.0531 72.9509C44.2526 72.8149 44.4329 72.6853 44.568 72.5688C44.7353 72.4263 44.8383 72.2579 44.8383 72.0312C44.8383 71.4936 44.3942 71.092 43.7506 71.092C43.1134 71.092 42.5792 71.5972 42.5792 72.1802C42.5792 72.5623 42.7466 72.8473 43.0104 73.0999C42.4441 73.5014 42.1094 73.7346 42.1094 74.2787C42.1094 74.8421 42.5856 75.4833 43.4545 75.4833C43.8793 75.4833 44.2976 75.2372 44.6967 74.7126C44.9284 74.9458 45.115 75.166 45.2051 75.2502C45.2888 75.3344 45.675 75.4833 46.3122 75.4833L46.3508 75.4056C46.0547 74.9458 45.6492 74.4471 45.2373 74.0455C45.4368 73.7605 45.5977 73.5144 45.778 73.2877C46.0096 72.9833 46.1448 72.8927 46.5438 72.8538V72.6336L46.5439 72.6335ZM43.6863 71.3446C44.0145 71.3446 44.1883 71.6685 44.1883 71.9988C44.1883 72.4003 44.0339 72.6594 43.8665 72.8019C43.4289 72.4586 43.2551 72.2384 43.2551 71.9146C43.2551 71.6166 43.4417 71.3446 43.6863 71.3446ZM43.77 74.8939C43.3323 74.8939 42.9075 74.6025 42.9075 73.9807C42.9075 73.7281 43.0041 73.4561 43.1778 73.2682C43.7249 73.7475 44.0531 74.0325 44.523 74.5182C44.3621 74.719 44.0467 74.8939 43.7699 74.8939L43.77 74.8939ZM52.9911 75.3926V75.1659C52.5792 75.1141 52.502 75.0299 52.2831 74.46C51.8648 73.3459 51.4657 72.219 51.0538 71.0855L50.7256 71.1697L49.4062 74.4988C49.1938 75.0429 49.1101 75.1141 48.6854 75.1659V75.3926H50.1271V75.1659C49.6572 75.1076 49.6379 75.017 49.7345 74.7061C49.8117 74.447 49.8954 74.2138 49.9662 74.0131H51.2019C51.2984 74.2721 51.395 74.5506 51.4593 74.7449C51.5623 75.0299 51.5301 75.1076 51.1504 75.1659V75.3926H52.9911ZM51.0796 73.6698H50.0756C50.2429 73.2099 50.4038 72.7372 50.584 72.2643H50.6033L51.0796 73.6698ZM54.1221 71.1827V71.4094C54.5726 71.4547 54.6306 71.5001 54.6306 72.0506V74.5312C54.6306 75.0818 54.5726 75.1271 54.0899 75.1724V75.3926H56.0851V75.1724C55.538 75.1271 55.4801 75.0817 55.4801 74.5312V73.6374L55.9178 73.7475C55.9886 73.7475 56.0851 73.7475 56.1816 73.7346C56.8638 73.6504 57.501 73.2553 57.501 72.3874C57.501 71.9664 57.3273 71.6426 57.0248 71.4353C56.7673 71.254 56.4069 71.1827 55.8985 71.1827H54.1221ZM55.4801 71.7008C55.4801 71.6037 55.493 71.5389 55.5381 71.5001C55.5767 71.4677 55.6539 71.4353 55.7762 71.4353C56.1688 71.4353 56.5743 71.6749 56.5743 72.4068C56.5743 73.2812 56.0594 73.4496 55.8277 73.4496C55.6925 73.4496 55.5574 73.4172 55.4801 73.3848V71.7008ZM62.1655 75.3926V75.1659C61.7536 75.1141 61.6763 75.0299 61.4575 74.4599C61.0391 73.3459 60.6401 72.219 60.2282 71.0855L59.9 71.1697L58.5806 74.4988C58.3682 75.0428 58.2845 75.1141 57.8597 75.1659V75.3926H59.3014V75.1659C58.8316 75.1076 58.8123 75.0169 58.9088 74.706C58.9861 74.447 59.0697 74.2138 59.1405 74.013H60.3762C60.4728 74.2721 60.5693 74.5506 60.6337 74.7449C60.7367 75.0299 60.7045 75.1076 60.3247 75.1659V75.3926H62.1655ZM60.254 73.6698H59.2499C59.4173 73.2099 59.5782 72.7371 59.7584 72.2643H59.7777L60.254 73.6698ZM67.274 75.2436C67.1324 75.1918 67.023 75.1141 66.8814 74.9652C66.7591 74.8291 66.6175 74.6219 66.3922 74.2592C66.1992 73.9612 65.961 73.5338 65.8645 73.3395C66.2957 73.1646 66.669 72.8537 66.669 72.2837C66.669 71.8822 66.4952 71.5972 66.2378 71.4223C65.9739 71.2474 65.6521 71.1827 65.0857 71.1827H63.2772V71.4094C63.747 71.4547 63.8049 71.5195 63.8049 72.0376V74.5247C63.8049 75.0623 63.7341 75.1206 63.2515 75.1659V75.3926H65.1951V75.1659C64.706 75.1206 64.6481 75.0623 64.6481 74.5247V73.5791H64.7703C64.9763 73.5791 65.0921 73.6633 65.1951 73.8576C65.3818 74.2009 65.5555 74.5506 65.7229 74.8162C65.9867 75.2242 66.2313 75.4056 67.0423 75.4445C67.126 75.4445 67.1967 75.4509 67.2354 75.4509L67.274 75.2437V75.2436ZM64.6481 73.32V71.7462C64.6481 71.6102 64.6609 71.5454 64.706 71.5065C64.7446 71.4677 64.8347 71.4417 64.9956 71.4417C65.356 71.4417 65.7551 71.6879 65.7551 72.3809C65.7551 72.7112 65.6649 72.9703 65.4461 73.1516C65.3045 73.2747 65.0857 73.32 64.8154 73.32H64.6481V73.32ZM71.7646 72.2773C71.7324 71.8627 71.7002 71.2928 71.6938 71.0208H71.5329C71.4235 71.1438 71.3334 71.1827 71.1661 71.1827H68.5788C68.3921 71.1827 68.3085 71.1632 68.2119 71.0208H68.051C68.0381 71.3511 67.9995 71.8239 67.9738 72.2967H68.2119C68.2956 71.9728 68.3728 71.7526 68.4822 71.6425C68.5723 71.5324 68.6882 71.4676 69.2224 71.4676H69.4412V74.5312C69.4412 75.0817 69.3768 75.1206 68.8362 75.1659V75.3926H70.9344V75.1659C70.368 75.1206 70.3036 75.0817 70.3036 74.5312V71.4676H70.5932C70.973 71.4676 71.1339 71.5 71.2497 71.6166C71.3656 71.7332 71.4557 71.9534 71.5329 72.2902L71.7646 72.2772L71.7646 72.2773ZM78.1432 75.3926V75.1659C77.6411 75.1141 77.609 75.0687 77.5961 74.4729L77.5382 72.0506C77.5253 71.513 77.551 71.4612 78.0659 71.4094V71.1827H76.7648L75.5022 74.0195L74.2665 71.1827H72.9342V71.4094C73.4878 71.4612 73.5328 71.5519 73.4813 72.2837L73.3784 73.5662C73.3269 74.2462 73.2818 74.5895 73.2432 74.7903C73.1981 75.0234 73.0823 75.1335 72.7154 75.1659V75.3926H74.2665V75.1659C73.8353 75.1271 73.713 75.0688 73.6873 74.7773C73.6615 74.5766 73.6551 74.2721 73.6873 73.7346L73.7645 72.0441H73.7902L75.1032 75.3473H75.2834L76.7068 71.9794H76.739L76.7519 74.473C76.7519 75.0688 76.7197 75.1141 76.237 75.166V75.3927H78.1432L78.1432 75.3926ZM82.503 74.2721C82.3871 74.5571 82.2712 74.7643 82.1425 74.9068C81.9945 75.0688 81.7692 75.1141 81.4346 75.1141C81.19 75.1141 80.9711 75.1011 80.8553 75.0493C80.7266 74.9846 80.7008 74.8291 80.7008 74.5182V73.3912H81.1321C81.6791 73.3912 81.7628 73.4171 81.8465 73.8835H82.0781V72.5817H81.8465C81.7628 73.035 81.6727 73.0674 81.1321 73.0674H80.7008V71.6943C80.7008 71.4806 80.7266 71.4676 80.9647 71.4676H81.2737C81.6341 71.4676 81.8079 71.513 81.9173 71.6296C82.0331 71.7461 82.1168 71.9599 82.1747 72.1866L82.4128 72.1542C82.3871 71.7526 82.3549 71.2992 82.3485 71.1827H79.3171V71.4094C79.774 71.4482 79.8384 71.4806 79.8384 72.0441V74.5312C79.8384 75.0818 79.774 75.1206 79.227 75.1659V75.3926H82.5094C82.5609 75.1983 82.6896 74.6089 82.7346 74.3175L82.503 74.2721V74.2721ZM88.1971 71.1827H86.6267V71.4029C87.103 71.4288 87.2317 71.5389 87.2639 71.8174C87.2832 72.0053 87.3154 72.3096 87.3154 72.8861V74.026H87.296L84.831 71.1827H83.6403V71.4029C83.9171 71.4288 84.0587 71.4806 84.181 71.636C84.3033 71.7915 84.3097 71.9081 84.3097 72.3355V73.6827C84.3097 74.2527 84.2711 74.5441 84.2453 74.7579C84.2196 75.0364 84.0715 75.14 83.7111 75.1659V75.3926H85.288V75.1659C84.8117 75.1464 84.7023 75.0234 84.6701 74.7384C84.6508 74.5441 84.6186 74.2527 84.6186 73.6827V72.2319H84.6379L87.3153 75.4574H87.6243V72.886C87.6243 72.3096 87.6629 72.0052 87.6822 71.8044C87.7144 71.513 87.8496 71.4223 88.1971 71.4029V71.1826L88.1971 71.1827ZM93.0031 72.2773C92.9709 71.8627 92.9387 71.2928 92.9323 71.0208H92.7714C92.662 71.1438 92.5719 71.1827 92.4046 71.1827H89.8173C89.6306 71.1827 89.547 71.1632 89.4504 71.0208H89.2895C89.2766 71.3511 89.238 71.8239 89.2123 72.2967H89.4504C89.5341 71.9728 89.6113 71.7526 89.7207 71.6425C89.8108 71.5324 89.9267 71.4676 90.4609 71.4676H90.6797V74.5312C90.6797 75.0817 90.6153 75.1206 90.0747 75.1659V75.3926H92.1729V75.1659C91.6065 75.1206 91.5421 75.0817 91.5421 74.5312V71.4676H91.8317C92.2115 71.4676 92.3724 71.5 92.4882 71.6166C92.6041 71.7332 92.6942 71.9534 92.7714 72.2902L93.0031 72.2772L93.0031 72.2773Z" fill="white"/>
<path d="M21.7218 81.7059C21.5971 81.9341 21.4724 82.1224 21.3589 82.2365C21.2115 82.3849 21.0471 82.4477 20.7806 82.4477C20.5651 82.4477 20.4404 82.4248 20.378 82.3621C20.3156 82.2879 20.3213 82.168 20.361 81.9683L20.7976 79.6574C20.8713 79.2694 20.911 79.218 21.3022 79.1838L21.3419 79.0069H19.7826L19.7429 79.1838C20.1455 79.218 20.1795 79.2751 20.1058 79.6574L19.6522 81.9741C19.5671 82.4134 19.5331 82.4591 19.1362 82.4933L19.0908 82.6702H21.563C21.6424 82.4819 21.8352 81.9512 21.9032 81.7686L21.7218 81.7059ZM24.6193 81.9683C24.5059 82.0825 24.3415 82.2023 24.2904 82.2023C24.2564 82.2023 24.2508 82.1452 24.2791 81.9854C24.4095 81.3121 24.5456 80.7016 24.6987 80.0796H24.6193L24.0296 80.2394C23.9616 80.5989 23.8595 81.0554 23.7688 81.4434C23.6384 81.7002 23.2131 82.2308 22.9977 82.2308C22.9183 82.2308 22.8899 82.1566 22.9466 81.9056C23.0374 81.5233 23.1394 81.0553 23.2301 80.6673C23.3322 80.2108 23.2755 80.0796 23.1281 80.0796C22.9013 80.0796 22.51 80.3364 22.1812 80.6502L22.2492 80.81C22.3626 80.7187 22.5214 80.6103 22.5724 80.6103C22.6121 80.6217 22.6178 80.6559 22.5838 80.81C22.4874 81.2208 22.4023 81.586 22.323 81.9512C22.1698 82.6473 22.3683 82.7386 22.5327 82.7386C22.6575 82.7386 22.7879 82.6987 22.907 82.6245C23.0657 82.5389 23.406 82.2707 23.6951 81.8713H23.7065C23.6838 81.9911 23.6555 82.0996 23.6328 82.2194C23.5647 82.5617 23.6158 82.7386 23.7915 82.7386C24.0127 82.7386 24.3642 82.5275 24.7101 82.1224L24.6193 81.9683ZM25.2714 80.8728C25.4302 80.6673 25.5209 80.5932 25.5719 80.5932C25.6173 80.5932 25.657 80.6445 25.7307 80.9241L25.8895 81.5061C25.6286 81.9512 25.4245 82.1795 25.3111 82.1795C25.2601 82.1795 25.2203 82.1624 25.1807 82.1224C25.1523 82.0939 25.124 82.0654 25.0843 82.0654C24.9822 82.0654 24.8008 82.2023 24.8008 82.4305C24.7951 82.6131 24.9198 82.7387 25.0786 82.7387C25.3508 82.7387 25.5492 82.4819 25.9575 81.7515L26.0766 82.208C26.1786 82.5789 26.3147 82.7387 26.4848 82.7387C26.6833 82.7387 26.9611 82.596 27.2843 82.0596L27.1596 81.9398C27.0122 82.1281 26.8987 82.2308 26.8364 82.2308C26.7683 82.2308 26.706 82.1281 26.6322 81.8428L26.4338 81.1295C26.5472 80.9526 26.6436 80.8271 26.723 80.7358C26.8137 80.6388 26.8761 80.5989 26.9214 80.5989C26.9781 80.5989 27.0235 80.6331 27.0518 80.6616C27.0802 80.7073 27.1085 80.7358 27.1539 80.7358C27.2786 80.7358 27.4431 80.5875 27.4487 80.3935C27.4544 80.2109 27.3523 80.0796 27.1822 80.0796C26.9668 80.0796 26.774 80.2622 26.3544 80.907L26.2864 80.6559C26.19 80.2736 26.1049 80.0796 25.9178 80.0796C25.708 80.0796 25.4188 80.3307 25.1523 80.7415L25.2714 80.8728ZM30.0911 81.9683C29.9777 82.0825 29.8132 82.2023 29.7622 82.2023C29.7282 82.2023 29.7225 82.1452 29.7509 81.9854C29.8813 81.3121 30.0174 80.7016 30.1705 80.0796H30.0911L29.5014 80.2394C29.4333 80.5989 29.3313 81.0554 29.2405 81.4434C29.1101 81.7002 28.6848 82.2308 28.4694 82.2308C28.39 82.2308 28.3617 82.1566 28.4184 81.9056C28.5091 81.5233 28.6112 81.0553 28.7019 80.6673C28.8039 80.2108 28.7472 80.0796 28.5998 80.0796C28.373 80.0796 27.9818 80.3364 27.6529 80.6502L27.721 80.81C27.8344 80.7187 27.9931 80.6103 28.0442 80.6103C28.0839 80.6217 28.0895 80.6559 28.0555 80.81C27.9591 81.2208 27.8741 81.586 27.7947 81.9512C27.6416 82.6473 27.8401 82.7386 28.0045 82.7386C28.1292 82.7386 28.2596 82.6987 28.3787 82.6245C28.5375 82.5389 28.8777 82.2707 29.1669 81.8713H29.1782C29.1555 81.9911 29.1272 82.0996 29.1045 82.2194C29.0365 82.5617 29.0875 82.7386 29.2633 82.7386C29.4844 82.7386 29.836 82.5275 30.1819 82.1224L30.0911 81.9683ZM31.4519 81.004L31.5029 80.7415C31.5993 80.2736 31.5596 80.0796 31.3839 80.0796C31.1854 80.0796 30.8225 80.3193 30.505 80.6616L30.59 80.8043C30.6921 80.713 30.8622 80.6046 30.9133 80.6046C30.9529 80.6046 30.9586 80.6788 30.9246 80.85C30.8169 81.4662 30.6864 82.0597 30.5447 82.6702L30.5901 82.7159C30.7545 82.6702 31.004 82.6189 31.2081 82.6074C31.2648 82.2936 31.3385 81.86 31.4123 81.5518C31.4803 81.3236 31.588 81.0839 31.7298 80.8728C31.8205 80.7359 31.8659 80.713 31.9169 80.713C31.9736 80.713 32.0473 80.753 32.1153 80.8157C32.155 80.8557 32.2117 80.8614 32.2628 80.8214C32.3194 80.7815 32.3818 80.7187 32.4612 80.6046C32.5406 80.4791 32.5576 80.3706 32.4896 80.2451C32.4272 80.1367 32.3308 80.0796 32.2287 80.0796C32.0133 80.0796 31.7638 80.4106 31.4689 81.004H31.4519ZM33.9921 82.0996C33.9695 81.6374 33.9468 81.2323 33.9071 80.8386C33.8561 80.2851 33.7426 80.0796 33.5499 80.0796C33.3117 80.0796 33.0226 80.3592 32.7844 80.7473L32.8978 80.8899C33.0339 80.7016 33.1247 80.6217 33.1643 80.6217C33.1984 80.6217 33.2267 80.6788 33.2721 80.9242C33.3571 81.3978 33.4422 82.345 33.4308 82.7958C33.153 83.1724 32.8355 83.4291 32.2231 83.8343L32.2741 83.9997L32.9885 83.8171C33.3458 83.4063 33.6747 82.9669 33.9922 82.4933C34.3154 82.014 34.6102 81.5518 34.8767 81.101C35.0242 80.85 35.0922 80.6217 35.0922 80.4562C35.0922 80.2166 34.9618 80.0796 34.7974 80.0796C34.684 80.0796 34.5592 80.1652 34.5025 80.2793C34.4685 80.3535 34.4685 80.4106 34.5025 80.4847C34.5422 80.5532 34.5762 80.6502 34.5819 80.7872C34.5762 81.1866 34.2814 81.6602 34.0035 82.0996L33.9921 82.0996ZM41.5959 82.0083C41.4712 82.1167 41.3237 82.208 41.284 82.208C41.2613 82.1794 41.233 82.1509 41.2784 81.9626L41.5392 80.7529C41.664 80.1766 41.4882 80.0796 41.3351 80.0796C41.2046 80.0796 41.0516 80.1424 40.9098 80.228C40.7057 80.3535 40.3825 80.6274 40.0933 81.0268H40.082C40.235 80.2965 40.3825 79.5718 40.5299 78.8528C40.5582 78.7273 40.5526 78.6816 40.4789 78.6816C40.3938 78.6816 40.099 78.7615 39.8835 78.83L39.8665 78.8928C39.8382 78.9841 39.7588 79.0069 39.4186 79.0069H37.2242C37.0938 79.0069 37.0484 78.9954 36.9917 78.8642H36.8499C36.7932 79.1552 36.6912 79.5489 36.5834 79.9198H36.7819C36.8953 79.6574 36.9917 79.5147 37.0824 79.412C37.1788 79.3093 37.3092 79.2408 37.6438 79.2408H38.001L37.4226 81.917C37.3262 82.3849 37.2865 82.4476 36.8726 82.4876L36.8329 82.6702H38.4829L38.5226 82.4876C38.0633 82.4476 38.0293 82.3906 38.1257 81.917L38.6701 79.2408H38.9082C39.2825 79.2408 39.549 79.2522 39.7985 79.2751C39.583 80.4391 39.3505 81.5803 39.1124 82.693L39.1577 82.7387C39.3392 82.6873 39.5717 82.6302 39.7871 82.6131C39.8495 82.2651 39.9459 81.7743 40.014 81.4776C40.2181 81.0953 40.6604 80.5703 40.8475 80.5703C40.9155 80.5703 40.9269 80.6502 40.8872 80.8499L40.6093 82.0881C40.4959 82.6074 40.5866 82.7386 40.7398 82.7386C40.9212 82.7386 41.3181 82.5503 41.6753 82.1623L41.5959 82.0083ZM44.397 81.9512C44.2723 82.0767 44.0908 82.208 44.0454 82.208C44.0114 82.208 44.0001 82.1623 44.0284 82.0083C44.1532 81.295 44.2893 80.6902 44.4083 80.188L44.38 80.1652C44.2779 80.1652 44.1929 80.1538 44.0738 80.1253C43.9547 80.0968 43.83 80.0796 43.7393 80.0796C43.331 80.0796 42.8264 80.3421 42.5769 80.5875C42.2196 80.9469 41.9815 81.5347 41.9815 82.0768C41.9815 82.5161 42.1459 82.7387 42.35 82.7387C42.5315 82.7387 42.7356 82.6018 42.9057 82.4591C43.0645 82.3222 43.2459 82.1452 43.4387 81.8714H43.4501L43.3934 82.1624C43.297 82.6531 43.4104 82.7387 43.5352 82.7387C43.7053 82.7387 44.1078 82.5561 44.4878 82.0939L44.397 81.9512ZM42.7923 82.2308C42.73 82.2308 42.6846 82.1566 42.6846 81.9512C42.6846 81.4262 42.8604 80.7301 43.1949 80.4448C43.2686 80.3878 43.3423 80.3535 43.4501 80.3535C43.5578 80.3535 43.6655 80.3877 43.7393 80.4277C43.6769 80.7073 43.5918 81.0953 43.5124 81.4205C43.433 81.6088 42.9738 82.2308 42.7923 82.2308ZM46.4553 80.1833H45.8826L46.0811 79.3045L46.013 79.2646L45.3779 79.664L45.2532 80.1833H44.9584L44.7939 80.3935L44.8166 80.4562H45.1965L44.879 81.9341C44.7429 82.5447 44.879 82.7387 45.0661 82.7387C45.3723 82.7387 45.8429 82.3906 46.0527 82.0996L45.9677 81.9512C45.8259 82.0882 45.6048 82.2423 45.5367 82.2423C45.4857 82.2423 45.463 82.1624 45.5084 81.9512L45.8203 80.4582L46.2909 80.4296L46.4553 80.1833ZM47.9919 79.0069L47.9522 79.1838C48.3492 79.218 48.3719 79.2694 48.2811 79.7487L47.8558 81.9683C47.7708 82.402 47.7198 82.4534 47.3682 82.4933L47.3342 82.6702H48.9219L48.9559 82.4933C48.5079 82.4591 48.4739 82.4077 48.5533 81.9798L48.7404 80.9527H49.1657C49.5966 80.9527 49.6533 81.004 49.6476 81.4263H49.8404L50.0559 80.2679H49.8745C49.727 80.6331 49.693 80.6959 49.2394 80.6959H48.7971L49.0353 79.4577C49.0693 79.2808 49.1034 79.2294 49.2678 79.2294H49.574C49.8745 79.2294 49.9992 79.2693 50.0559 79.4006C50.107 79.509 50.124 79.6859 50.141 79.8913L50.3224 79.8742C50.3621 79.5832 50.4132 79.1381 50.4358 79.0069H47.9919ZM52.0688 81.8999C51.808 82.1566 51.5074 82.2993 51.2976 82.2993C51.0368 82.2993 50.9461 82.0482 50.9461 81.7287C50.9461 81.683 50.9461 81.6317 50.9517 81.586C51.5188 81.4319 52.3183 81.1352 52.3183 80.5703C52.3183 80.3136 52.1538 80.0796 51.7796 80.0796C51.5018 80.0796 51.1219 80.2736 50.9121 80.4448C50.5265 80.7643 50.2657 81.3521 50.2657 81.9056C50.2657 82.5561 50.5832 82.7387 50.9178 82.7387C51.2466 82.7387 51.6663 82.596 52.1709 82.0482L52.0688 81.8999ZM51.5188 80.3421C51.6038 80.3421 51.7229 80.422 51.7229 80.6559C51.7229 80.9526 51.5301 81.1923 50.9744 81.3749C51.0481 80.7929 51.2579 80.4962 51.3487 80.4163C51.411 80.3649 51.4677 80.3421 51.5188 80.3421ZM54.3029 81.8999C54.042 82.1566 53.7415 82.2993 53.5317 82.2993C53.2709 82.2993 53.1801 82.0482 53.1801 81.7287C53.1801 81.683 53.1801 81.6317 53.1858 81.586C53.7528 81.4319 54.5523 81.1352 54.5523 80.5703C54.5523 80.3136 54.3879 80.0796 54.0137 80.0796C53.7358 80.0796 53.3559 80.2736 53.1461 80.4448C52.7606 80.7643 52.4998 81.3521 52.4998 81.9056C52.4998 82.5561 52.8173 82.7387 53.1518 82.7387C53.4807 82.7387 53.9003 82.596 54.4049 82.0482L54.3029 81.8999ZM53.7528 80.3421C53.8379 80.3421 53.957 80.422 53.957 80.6559C53.957 80.9526 53.7642 81.1923 53.2085 81.3749C53.2822 80.7929 53.492 80.4962 53.5827 80.4163C53.6451 80.3649 53.7018 80.3421 53.7528 80.3421ZM55.7941 82.0197C55.675 82.1281 55.5219 82.2194 55.4766 82.2194C55.4426 82.2194 55.4312 82.1623 55.4596 82.014C55.6694 80.9812 55.8792 79.9484 56.0833 78.9213C56.1116 78.7843 56.1117 78.7158 56.0436 78.7158C55.9529 78.7158 55.5673 78.8699 55.0627 78.9155L55.023 79.0925L55.1364 79.1039C55.3575 79.1153 55.4029 79.1495 55.3462 79.4405C55.1704 80.3079 55.0003 81.1752 54.8245 82.0425C54.7054 82.6188 54.8189 82.7387 54.9606 82.7387C55.1477 82.7387 55.5219 82.5618 55.8792 82.168L55.7941 82.0197ZM56.6617 82.7387C57.1436 82.7387 57.756 82.3107 57.756 81.7914C57.756 81.5061 57.5462 81.2893 57.257 81.0782C57.0245 80.907 56.8941 80.7529 56.8941 80.6103C56.8941 80.4962 56.9792 80.4106 57.0983 80.4106C57.291 80.4106 57.4498 80.5818 57.5575 80.7187C57.5916 80.7643 57.6483 80.7757 57.722 80.7244C57.8354 80.6502 57.9035 80.5304 57.9035 80.422C57.9035 80.2508 57.7107 80.0796 57.4328 80.0796C57.2344 80.0796 56.9792 80.188 56.7751 80.3649C56.4916 80.6045 56.4292 80.8214 56.4292 81.0211C56.4292 81.3406 56.7071 81.5632 56.9338 81.7515C57.189 81.9626 57.2627 82.0653 57.2627 82.1966C57.2627 82.3221 57.155 82.3963 57.0245 82.3963C56.8544 82.3963 56.639 82.2707 56.4519 82.014C56.4065 81.9512 56.3441 81.9455 56.2477 82.0083C56.1627 82.0653 56.0719 82.1909 56.0719 82.3164C56.0776 82.5674 56.3781 82.7387 56.6617 82.7387ZM61.6684 81.7058C61.5437 81.9341 61.4189 82.1224 61.3055 82.2365C61.1581 82.3849 60.9937 82.4476 60.7272 82.4476C60.5117 82.4476 60.3869 82.4248 60.3246 82.362C60.2622 82.2879 60.2679 82.168 60.3076 81.9683L60.7442 79.6574C60.8179 79.2693 60.8576 79.218 61.2488 79.1837L61.2885 79.0068H59.7292L59.6895 79.1837C60.0921 79.218 60.1261 79.275 60.0524 79.6574L59.5988 81.974C59.5137 82.4134 59.4797 82.4591 59.0828 82.4933L59.0374 82.6702H61.5096C61.589 82.4819 61.7818 81.9512 61.8498 81.7686L61.6684 81.7058ZM63.1257 78.9783C62.8762 78.9783 62.7174 79.1895 62.7174 79.412C62.7231 79.606 62.8365 79.7373 63.0236 79.7373C63.2731 79.7373 63.4318 79.5319 63.4318 79.3036C63.4318 79.1438 63.3355 78.9783 63.1257 78.9783ZM63.2334 81.9969C63.086 82.1281 62.9556 82.208 62.9102 82.208C62.8705 82.208 62.8535 82.1623 62.8932 82.0026L63.2107 80.6559C63.3014 80.2736 63.2731 80.0796 63.1086 80.0796C62.9102 80.0796 62.4962 80.3136 62.1277 80.6788L62.2014 80.8271C62.3091 80.7472 62.4849 80.6274 62.5303 80.6274C62.5643 80.6274 62.5643 80.6788 62.5359 80.81L62.224 82.1852C62.122 82.6245 62.2354 82.7387 62.3828 82.7387C62.5586 82.7387 62.9555 82.5561 63.3241 82.1338L63.2334 81.9969ZM65.9267 82.0368C65.819 82.1623 65.717 82.2365 65.6602 82.2365C65.5979 82.2365 65.5355 82.1338 65.4278 81.8599C65.2974 81.5575 65.1726 81.1352 65.1046 80.8613C65.2236 80.7073 65.4221 80.576 65.5979 80.576C65.7056 80.576 65.7907 80.6045 65.853 80.6388C65.8927 80.6502 65.9324 80.6331 65.9721 80.5989C66.0401 80.5247 66.1082 80.3877 66.1082 80.2907C66.1082 80.1709 65.9948 80.0796 65.8304 80.0796C65.5355 80.0796 65.2633 80.3992 64.9741 80.7016C64.8097 80.8614 64.6793 81.0268 64.5262 81.2209H64.5149C64.685 80.4448 64.8381 79.7201 65.0138 78.9156C65.0478 78.7672 65.0479 78.7159 64.9741 78.7159C64.8891 78.7159 64.5092 78.87 63.9875 78.9156L63.9478 79.0982L64.0896 79.1039C64.3051 79.121 64.3221 79.1552 64.2711 79.4177C64.0556 80.5589 63.8345 81.6031 63.5906 82.6987L63.6303 82.7387C63.8061 82.693 64.0272 82.6474 64.2484 82.6131C64.2938 82.3621 64.3561 82.0425 64.4412 81.5974C64.4809 81.5175 64.5319 81.4491 64.617 81.3521C64.7247 81.7287 64.8268 82.0825 64.9288 82.3392C65.0309 82.6074 65.1556 82.7387 65.3144 82.7387C65.4618 82.7387 65.7283 82.6302 66.0289 82.1795L65.9267 82.0368ZM68.0474 81.8999C67.7866 82.1566 67.486 82.2993 67.2762 82.2993C67.0154 82.2993 66.9247 82.0482 66.9247 81.7287C66.9247 81.683 66.9247 81.6317 66.9304 81.586C67.4974 81.4319 68.2969 81.1352 68.2969 80.5703C68.2969 80.3136 68.1324 80.0796 67.7582 80.0796C67.4804 80.0796 67.1005 80.2736 66.8907 80.4448C66.5051 80.7643 66.2443 81.3521 66.2443 81.9056C66.2443 82.5561 66.5618 82.7387 66.8964 82.7387C67.2253 82.7387 67.6449 82.596 68.1495 82.0482L68.0474 81.8999ZM67.4974 80.3421C67.5824 80.3421 67.7015 80.422 67.7015 80.6559C67.7015 80.9526 67.5087 81.1923 66.953 81.3749C67.0267 80.7929 67.2365 80.4962 67.3273 80.4163C67.3896 80.3649 67.4464 80.3421 67.4974 80.3421ZM73.5475 79.0069H72.0279L71.9825 79.1838C72.3568 79.218 72.3851 79.2751 72.3114 79.6859L72.1356 80.5932H70.8939L71.064 79.6859C71.1433 79.2751 71.1774 79.218 71.5176 79.1838L71.5573 79.0069H70.032L69.9923 79.1838C70.3949 79.218 70.4516 79.2751 70.3722 79.6859L69.9242 81.9798C69.8392 82.4077 69.8108 82.4534 69.4309 82.4933L69.3912 82.6702H70.9165L70.9506 82.4933C70.5763 82.4591 70.5423 82.3963 70.6217 81.9798L70.8315 80.8671H72.0789L71.8748 81.9798C71.7954 82.4077 71.7501 82.4591 71.3815 82.4933L71.3418 82.6702H72.8785L72.9238 82.4933C72.5269 82.4534 72.4872 82.4077 72.5666 81.9798L73.0089 79.6859C73.0883 79.2694 73.1166 79.218 73.5079 79.1838L73.5475 79.0069ZM74.1372 82.7387C74.4774 82.7387 74.812 82.5789 75.0501 82.3792C75.4413 82.0425 75.6455 81.4833 75.6455 80.9755C75.6455 80.4334 75.396 80.0796 74.88 80.0796C74.6475 80.0796 74.3697 80.1709 74.1428 80.3079C73.7232 80.5589 73.3547 81.0953 73.3547 81.8314C73.3547 82.2537 73.5135 82.7387 74.1372 82.7387ZM74.3583 82.4876C74.2052 82.4876 74.0578 82.2936 74.0578 81.8999C74.0578 80.9412 74.364 80.4334 74.5398 80.3535C74.5851 80.3364 74.6192 80.325 74.6588 80.325C74.8346 80.325 74.948 80.5076 74.948 80.9184C74.948 81.7801 74.6872 82.3792 74.4831 82.4591C74.4321 82.4762 74.4094 82.4876 74.3583 82.4876ZM79.8017 81.9912C79.677 82.1053 79.5182 82.2137 79.4729 82.2137C79.4332 82.2137 79.4275 82.168 79.4559 82.0254L79.7053 80.9298C79.8754 80.1652 79.6826 80.0796 79.5409 80.0796C79.4275 80.0796 79.2971 80.1309 79.1553 80.2165C78.9171 80.3649 78.6393 80.6102 78.3275 81.0211H78.3161L78.3445 80.8784C78.4919 80.1652 78.2934 80.0796 78.1573 80.0796C78.0439 80.0796 77.9249 80.1309 77.7831 80.2108C77.579 80.3364 77.2274 80.6616 76.9553 81.0325H76.9439L77.012 80.7301C77.1084 80.2622 77.0743 80.0796 76.8986 80.0796C76.7001 80.0796 76.3542 80.2907 75.9913 80.6673L76.0651 80.8271C76.1841 80.7187 76.3429 80.6102 76.3939 80.6102C76.4223 80.6331 76.4393 80.673 76.3996 80.8556C76.2578 81.4947 76.1217 82.0767 75.9743 82.6701L76.014 82.7158C76.1898 82.6701 76.4279 82.6245 76.6377 82.6074C76.7171 82.2365 76.8078 81.7686 76.8872 81.4776C77.0403 81.1523 77.5393 80.5646 77.7151 80.5646C77.7831 80.5646 77.7945 80.6616 77.7264 80.9812C77.6016 81.5232 77.4712 82.1053 77.3295 82.6701L77.3692 82.7158C77.545 82.6701 77.7831 82.6245 78.0042 82.6074C78.0836 82.2308 78.1743 81.7629 78.2537 81.4548C78.4124 81.1181 78.9171 80.5703 79.0702 80.5703C79.1269 80.5703 79.1382 80.6673 79.0929 80.8556L78.7923 82.168C78.6846 82.613 78.781 82.7386 78.9454 82.7386C79.1269 82.7386 79.5181 82.5617 79.881 82.1509L79.8017 81.9912ZM82.0018 81.8999C81.7409 82.1566 81.4404 82.2993 81.2306 82.2993C80.9698 82.2993 80.879 82.0482 80.879 81.7287C80.879 81.683 80.879 81.6317 80.8847 81.586C81.4517 81.4319 82.2512 81.1352 82.2512 80.5703C82.2512 80.3136 82.0868 80.0796 81.7126 80.0796C81.4347 80.0796 81.0548 80.2736 80.845 80.4448C80.4595 80.7643 80.1986 81.3521 80.1986 81.9056C80.1986 82.5561 80.5162 82.7387 80.8507 82.7387C81.1796 82.7387 81.5992 82.596 82.1038 82.0482L82.0018 81.8999ZM81.4517 80.3421C81.5368 80.3421 81.6559 80.422 81.6559 80.6559C81.6559 80.9526 81.4631 81.1923 80.9074 81.3749C80.9811 80.7929 81.1909 80.4962 81.2816 80.4163C81.344 80.3649 81.4007 80.3421 81.4517 80.3421ZM82.7729 82.7387C82.9884 82.7387 83.1982 82.5618 83.1982 82.2707C83.1982 82.0368 83.0451 81.8599 82.8353 81.8599C82.5914 81.8599 82.4156 82.0653 82.4156 82.3392C82.4156 82.5617 82.5631 82.7387 82.7729 82.7387ZM84.1281 82.7387C84.3436 82.7387 84.5533 82.5618 84.5533 82.2707C84.5533 82.0368 84.4003 81.8599 84.1904 81.8599C83.9466 81.8599 83.7708 82.0653 83.7708 82.3392C83.7708 82.5617 83.9183 82.7387 84.1281 82.7387ZM85.4833 82.7387C85.6987 82.7387 85.9085 82.5618 85.9085 82.2707C85.9085 82.0368 85.7555 81.8599 85.5456 81.8599C85.3018 81.8599 85.126 82.0653 85.126 82.3392C85.126 82.5617 85.2735 82.7387 85.4833 82.7387Z" fill="white"/>
</g>
<defs>
<clipPath id="clip0_2083_94">
<rect width="105" height="84" fill="white"/>
</clipPath>
</defs>
</svg>
