<svg width="64" height="65" viewBox="0 0 64 65" fill="none" xmlns="http://www.w3.org/2000/svg">
<path d="M0 32.6143C0 14.9411 14.3269 0.614258 32 0.614258V0.614258C49.6731 0.614258 64 14.9411 64 32.6143V32.6143C64 50.2874 49.6731 64.6143 32 64.6143V64.6143C14.3269 64.6143 0 50.2874 0 32.6143V32.6143Z" fill="#FF9500"/>
<path d="M44.9373 20.4728L40.648 23.4338L39.458 22.908C37.258 21.9533 35.7498 21.4967 34.6983 21.4829C33.8681 21.4691 33.7297 21.4967 33.6882 21.732C33.5775 22.2439 36.2895 24.4577 38.9876 26.0489C39.2228 26.1735 39.2366 26.5609 39.292 31.1684C39.3335 35.1256 39.3888 36.2602 39.5549 36.7168C39.7763 37.3256 40.3712 37.8514 40.5926 37.63C40.6756 37.547 41.0492 35.8866 41.4228 33.908C42.1146 30.4351 42.419 29.425 43.0417 28.6225L43.2907 28.3043L44.5913 28.9131C45.3108 29.259 46.5423 29.7709 47.331 30.0615C48.3964 30.4628 48.7699 30.6703 48.8115 30.8778C48.8391 31.03 48.936 31.9571 49.019 32.9533C49.102 33.9357 49.2266 34.8074 49.2819 34.8627C49.3511 34.9319 49.5448 34.9596 49.7247 34.9319C50.0014 34.8904 50.0844 34.7105 50.4857 33.1194C50.7347 32.137 50.9561 31.3068 50.9976 31.2653C51.0391 31.2238 51.385 31.2929 51.7725 31.4313C52.1599 31.5558 52.5335 31.625 52.6165 31.5697C52.907 31.3898 52.741 30.9609 52.2429 30.6426C51.9662 30.4628 51.6756 30.2829 51.6064 30.2414C51.5372 30.186 52.0492 29.4942 52.741 28.7055C53.4328 27.903 54.0001 27.1558 54.0001 27.0313C54.0001 26.9068 53.8894 26.7407 53.7511 26.6716C53.5435 26.5609 53.1284 26.7407 51.7033 27.5571C50.7209 28.1244 49.8769 28.5948 49.8215 28.5948C49.78 28.5948 49.2404 28.2628 48.6454 27.8615C48.0505 27.4464 46.9435 26.7546 46.1825 26.3118C45.4215 25.8552 44.7712 25.4816 44.7435 25.454C44.7159 25.4401 44.9096 24.9697 45.1863 24.4162C45.6014 23.586 46.141 22.9357 48.258 20.7219C49.6693 19.2552 50.8177 17.9684 50.8177 17.8716C50.8177 17.6364 50.4995 17.5257 49.8077 17.5257C49.2681 17.5257 48.8391 17.7886 44.9373 20.4728Z" fill="white"/>
<path d="M15.8386 22.0503C15.8801 22.8389 15.8801 22.8528 16.2952 22.8528C16.6135 22.8528 16.7242 22.7836 16.7518 22.5484C16.7795 22.3547 16.904 22.2301 17.0977 22.2025C17.333 22.1748 17.416 22.0503 17.4437 21.7044L17.4852 21.2616H16.6411H15.7971L15.8386 22.0503Z" fill="white"/>
<path d="M18.8274 21.6903C18.7582 22.1745 18.8827 22.2714 19.5745 22.2022C19.9758 22.1607 20.0311 22.1054 20.0726 21.7041C20.1142 21.2613 20.1142 21.2613 19.5054 21.2613C18.9242 21.2613 18.8827 21.289 18.8274 21.6903Z" fill="white"/>
<path d="M21.3737 21.7043C21.4013 22.0503 21.4844 22.1748 21.7196 22.2025C21.9133 22.2301 22.0378 22.3547 22.0655 22.5484C22.0932 22.7836 22.2177 22.8666 22.5636 22.8943L23.0064 22.9358V22.1056V21.2616H22.1623H21.3322L21.3737 21.7043Z" fill="white"/>
<path d="M28.8173 22.1056V22.9358L29.2739 22.8943C29.6059 22.8666 29.7305 22.7836 29.7581 22.5484C29.7858 22.3547 29.9103 22.2301 30.1041 22.2025C30.3393 22.1748 30.4223 22.0503 30.45 21.7043L30.4915 21.2616H29.6613H28.8173V22.1056Z" fill="white"/>
<path d="M31.7507 21.7043C31.7922 22.1056 31.8476 22.1609 32.2488 22.2024C32.6778 22.2439 32.6916 22.2301 32.6916 21.7596C32.6916 21.2754 32.6778 21.2615 32.1935 21.2615C31.723 21.2615 31.7092 21.2754 31.7507 21.7043Z" fill="white"/>
<path d="M15.8114 24.9971V25.689H16.2957H16.78V24.9971V24.3053H16.2957H15.8114V24.9971Z" fill="white"/>
<path d="M22.1345 24.4022C22.0791 24.4437 22.0376 24.7619 22.0376 25.094C22.0376 25.689 22.0376 25.689 22.5219 25.689H23.0061V24.9971C23.0061 24.333 22.9923 24.3053 22.6187 24.3053C22.3973 24.3053 22.176 24.3468 22.1345 24.4022Z" fill="white"/>
<path d="M28.8173 24.9833V25.689H29.3154H29.7996L29.7581 25.0248C29.7166 24.4022 29.7028 24.3745 29.2739 24.333L28.8173 24.2915V24.9833Z" fill="white"/>
<path d="M15.8114 27.9029V28.5947H16.2957H16.78V27.9029V27.2111H16.2957H15.8114V27.9029Z" fill="white"/>
<path d="M22.0654 27.9997L22.1069 28.8022L22.9095 28.8437L23.6981 28.8853V28.401C23.6981 28.0136 23.6428 27.9167 23.3937 27.8752C23.1862 27.8475 23.0617 27.723 23.034 27.5154C22.9925 27.2664 22.8956 27.211 22.5082 27.211H22.0239L22.0654 27.9997Z" fill="white"/>
<path d="M28.7896 27.5154C28.762 27.723 28.6374 27.8475 28.4437 27.8752C28.1808 27.9167 28.1255 28.0136 28.1255 28.401V28.8853L28.928 28.8437L29.7167 28.8022L29.7582 27.9997L29.7997 27.211H29.3154C28.928 27.211 28.8311 27.2664 28.7896 27.5154Z" fill="white"/>
<path d="M25.2481 28.3456C25.2896 28.7884 25.3172 28.8022 25.9537 28.8437L26.604 28.8853V28.401V27.9029H25.8984H25.2065L25.2481 28.3456Z" fill="white"/>
<path d="M15.8114 30.4489C15.8114 30.9332 15.8252 30.947 16.3095 30.947C16.78 30.947 16.7938 30.9332 16.7523 30.4904C16.7108 30.103 16.6554 30.0477 16.268 30.0061C15.8252 29.9646 15.8114 29.9785 15.8114 30.4489Z" fill="white"/>
<path d="M10.747 32.1785C10.0552 32.5936 9.99988 32.981 9.99988 36.9797V40.6326H19.6162H29.2326V36.2741V31.9156H20.2112C11.5772 31.9156 11.1621 31.9294 10.747 32.1785ZM27.9596 34.6829C28.0011 35.098 27.2401 38.0867 27.0049 38.3634C26.8665 38.5294 25.6627 38.5571 19.3533 38.5571C13.708 38.5571 11.8125 38.5156 11.6879 38.3911C11.5081 38.2112 11.4389 34.5307 11.6187 34.3647C11.6603 34.3093 15.3546 34.2816 19.8099 34.2955L27.9181 34.337L27.9596 34.6829Z" fill="white"/>
<path d="M30.2009 36.2741V40.6326H35.7355C40.9519 40.6326 41.2701 40.6187 41.2701 40.3835C41.2701 40.2451 41.3669 39.9961 41.4915 39.8301C41.6852 39.5533 41.6852 39.5118 41.45 39.4426C41.3116 39.4011 40.772 39.1521 40.2324 38.903C39.416 38.5018 38.8349 38.0313 36.5657 35.8313C33.4525 32.8426 32.65 32.3169 30.7267 31.9848L30.2009 31.9018V36.2741ZM33.2865 34.4338C33.4525 34.5169 34.3519 35.3055 35.2927 36.1911C36.6902 37.5194 36.9808 37.8514 36.9531 38.142L36.9116 38.4879L34.2965 38.5294C32.4978 38.5571 31.6261 38.5156 31.5016 38.4049C31.3494 38.2804 31.3078 37.7961 31.3078 36.3433C31.3078 35.3055 31.3494 34.4062 31.4047 34.3647C31.5569 34.1986 32.9682 34.254 33.2865 34.4338Z" fill="white"/>
<path d="M42.2943 40.425C42.239 40.5357 42.3081 40.7848 42.4327 40.9785C42.6956 41.3659 43.7195 42.0992 43.844 41.9747C43.9962 41.8225 43.7333 41.0338 43.3874 40.6326C43.0138 40.1898 42.4188 40.0791 42.2943 40.425Z" fill="white"/>
<path d="M9.99988 42.9156C9.99988 45.0187 10.4011 45.4753 12.2552 45.4753H13.293L13.3898 44.9634C13.7772 42.8741 15.8942 41.7118 17.859 42.5005C18.8414 42.9018 19.8238 44.2716 19.8238 45.254C19.8238 45.4477 20.2665 45.4753 24.5282 45.4753H29.2326V43.5382V41.6011H19.6162H9.99988V42.9156Z" fill="white"/>
<path d="M30.2978 41.698C30.2424 41.7395 30.2009 42.6112 30.2009 43.6351V45.4753H33.1066H36.0122L36.0953 45.0879C36.4965 43.2477 37.6311 42.2514 39.333 42.2514C40.7858 42.2514 42.1971 43.3722 42.46 44.742C42.5569 45.2401 42.5984 45.254 43.5669 44.8527C44.0927 44.6452 44.1204 44.5898 44.2311 43.8841L44.3141 43.3307L43.5254 42.9848C43.0827 42.8049 42.46 42.4175 42.1556 42.1269L41.5883 41.6011H35.9846C32.899 41.6011 30.3393 41.6426 30.2978 41.698Z" fill="white"/>
<path d="M15.3819 43.5796C14.8699 43.9117 14.2888 44.9218 14.2888 45.4752C14.2888 46.0287 14.8699 47.0387 15.3819 47.3708C16.0322 47.8136 17.1115 47.8136 17.7479 47.3708C18.5366 46.845 18.7857 46.3884 18.7857 45.4752C18.7857 44.562 18.5366 44.1054 17.7479 43.5658C17.1115 43.1369 16.0322 43.1369 15.3819 43.5796ZM17.1115 44.7972C17.3467 44.9771 17.4712 45.2123 17.4712 45.4752C17.4712 45.8765 16.9454 46.4438 16.5718 46.4438C16.2398 46.4438 15.6725 45.8765 15.6725 45.5306C15.6725 45.157 16.2259 44.5067 16.5442 44.5067C16.6549 44.5067 16.9039 44.6312 17.1115 44.7972Z" fill="white"/>
<path d="M38.2535 43.4966C37.6032 43.8149 37.2158 44.4237 37.1466 45.2677C37.0359 46.6375 37.7969 47.5507 39.1391 47.6614C40.4812 47.7721 41.5466 46.7897 41.5466 45.4476C41.5466 43.8426 39.734 42.7633 38.2535 43.4966ZM39.651 44.6589C40.3982 45.0048 40.3982 46.0287 39.651 46.3193C39.1667 46.4992 38.6963 46.3054 38.4749 45.8212C38.2258 45.2677 38.5441 44.7419 39.2913 44.5205C39.3051 44.5067 39.4711 44.5759 39.651 44.6589Z" fill="white"/>
</svg>
