<svg width="36" height="27" viewBox="0 0 36 27" fill="none" xmlns="http://www.w3.org/2000/svg">
<path d="M11.2656 1.41658L0.65898 12.0232C-0.219699 12.9019 -0.219699 14.3265 0.65898 15.2052L11.2656 25.8118C12.1443 26.6904 13.5689 26.6904 14.4476 25.8118C15.3262 24.9331 15.3262 23.5085 14.4476 22.6298L7.68318 15.8626L33.7532 15.8642C34.8923 15.8642 35.8336 15.0177 35.9826 13.9195L36.0032 13.6142C36.0032 12.3715 34.9958 11.3642 33.7532 11.3642L7.68318 11.3626L14.4476 4.59856C15.3262 3.71988 15.3262 2.29526 14.4476 1.41658C13.5689 0.537898 12.1443 0.537898 11.2656 1.41658Z" fill="white"/>
</svg>
