<svg width="36" height="27" viewBox="0 0 36 27" fill="none" xmlns="http://www.w3.org/2000/svg">
<path d="M24.7376 1.41658L35.3442 12.0232C36.2229 12.9019 36.2229 14.3265 35.3442 15.2052L24.7376 25.8118C23.8589 26.6904 22.4343 26.6904 21.5556 25.8118C20.6769 24.9331 20.6769 23.5085 21.5556 22.6298L28.32 15.8626L2.25 15.8642C1.11091 15.8642 0.169527 15.0177 0.02054 13.9195L0 13.6142C0 12.3715 1.00736 11.3642 2.25 11.3642L28.32 11.3626L21.5556 4.59856C20.6769 3.71988 20.6769 2.29526 21.5556 1.41658C22.4343 0.537898 23.8589 0.537898 24.7376 1.41658Z" fill="white"/>
</svg>
