<svg width="72" height="58" viewBox="0 0 72 58" fill="none" xmlns="http://www.w3.org/2000/svg">
<g clip-path="url(#clip0_912_2824)">
<path fill-rule="evenodd" clip-rule="evenodd" d="M30.6836 27.1149L29.6012 27.5441C27.7156 26.003 25.1374 22.3141 23.4697 21.5754C22.0563 20.9493 20.8486 21.3987 19.8594 22.9889C19.9211 22.1945 20.2531 21.536 20.9835 21.078C21.5589 20.7171 22.2126 20.6671 22.8759 20.7676C24.0229 20.9413 25.0789 21.6581 26.0915 22.6258C25.4974 21.7788 24.7535 20.9877 24.1505 20.1441C23.4176 19.1186 23.0564 18.2415 23.0627 16.9579C23.0647 16.5408 23.1145 16.1308 23.2051 15.7271C23.5038 17.8125 24.093 19.5281 25.128 20.2964C24.2622 18.3753 23.8903 16.3325 24.5171 14.0436C25.1116 12.0103 27.5479 10.186 29.2076 11.9641C29.3981 12.2102 29.5338 12.4567 29.6109 12.7033C29.7474 13.1404 29.6998 13.5778 29.4469 14.0138C28.9221 15.1817 27.8771 15.2099 27.2538 16.5652C26.4964 18.2121 26.8095 20.3807 27.83 22.2297C29.0078 24.2094 30.4196 25.7458 32.094 26.7848L31.3724 26.9498C30.9458 26.61 30.5228 26.2504 30.1059 25.8595C28.8341 24.667 27.2366 22.8013 26.6842 21.1048C26.6467 20.9897 26.6114 20.8716 26.5784 20.7507C26.2648 19.6034 26.1199 18.2088 26.4378 17.0486C26.677 16.1755 27.1776 15.4735 28.0909 14.8503C29.6339 13.7976 29.6017 12.102 27.8964 11.7857C26.8921 11.5995 25.819 12.531 25.265 13.5692C24.8167 14.4091 24.7257 15.5076 24.7898 16.4429C24.8331 17.0744 24.9539 17.6775 25.1075 18.2686C25.1402 17.3381 25.2812 16.452 25.5615 15.6231C25.997 14.3352 26.8254 12.8461 28.3895 13.8106C26.8301 13.792 25.9214 14.9536 25.7635 17.9055C25.768 19.7919 26.2167 21.447 27.01 22.9228C28.0227 24.6756 29.3225 25.9467 30.6837 27.1149L30.6836 27.1149Z" fill="white"/>
<path fill-rule="evenodd" clip-rule="evenodd" d="M28.9481 27.7337L28.3942 27.9726C27.4396 27.0346 26.4904 26.0304 25.5374 25.0725C24.8962 24.4281 23.4746 22.8865 22.6283 22.6536C21.2874 22.2846 20.762 23.9802 21.4712 24.7218C21.9351 25.207 22.4606 25.143 22.9203 24.6675C22.8824 25.4467 22.0532 25.4695 21.5056 25.1957C20.6616 24.7736 20.4564 23.629 20.9417 22.8756C21.1885 22.4781 21.5355 22.2038 22.0365 22.119C22.5654 22.0849 23.0598 22.1658 23.4732 22.4478C24.7828 23.341 27.581 26.4916 28.9481 27.7337L28.9481 27.7337Z" fill="white"/>
<path fill-rule="evenodd" clip-rule="evenodd" d="M23.2822 23.9267C23.7934 24.1791 23.7804 24.7556 23.5486 25.2399C23.2127 25.9418 22.4866 26.3009 21.7252 26.2312C20.6228 26.1303 19.5717 25.2104 19.1053 24.231C18.8676 23.7319 18.7426 23.1772 18.7393 22.5928C18.7356 21.9334 18.9062 21.2733 19.2504 20.617C19.8369 19.4987 20.8325 18.5788 22.0956 18.3755C21.4212 17.4585 21.3638 16.0861 21.8596 15.0739C22.36 14.0521 23.3952 13.398 24.6847 13.5818L24.5169 14.0437C23.3555 13.7716 22.5607 14.4898 22.2108 15.459C21.6919 16.8961 22.2085 17.6744 22.7826 18.9201C21.7468 18.4779 20.4685 19.5197 19.7642 20.7426C19.1739 22.0078 19.2856 23.1767 19.7017 24.3038C20.161 25.1992 21.0029 25.8819 21.9176 25.8622C23.0491 25.8379 23.6048 25.0157 23.2822 23.9267H23.2822Z" fill="white"/>
<path fill-rule="evenodd" clip-rule="evenodd" d="M20.5202 28.6389C20.5057 28.3249 20.5844 28.0963 20.7757 27.9705C20.5364 31.6727 26.2052 29.5823 27.9028 28.716C32.6231 26.5445 37.5305 25.9256 42.7958 28.279C45.6534 29.6586 48.3027 30.6849 49.974 30.0528C50.8718 29.6186 51.3071 28.9269 51.1747 27.9191C51.6585 28.4133 51.6335 29.0406 51.0214 29.8214C48.8453 32.1835 44.8004 30.0134 42.2299 29.1897C38.6745 28.0504 35.0537 27.299 29.883 28.9852C28.1058 29.5648 26.2841 30.7215 24.5158 30.8256C23.7545 30.8704 22.9931 30.7833 22.2318 30.5412C21.7452 30.3902 21.3034 30.1264 20.929 29.6929C20.7008 29.4341 20.5613 29.086 20.5202 28.6389V28.6389Z" fill="white"/>
<path fill-rule="evenodd" clip-rule="evenodd" d="M42.1425 12.4708L29.7501 12.4097C28.6264 9.5493 27.2179 7.02929 25.5586 4.809C26.5528 5.42011 27.547 6.03122 28.5411 6.6423C28.7956 6.79873 29.0501 6.95519 29.3046 7.11162C29.2371 7.30859 29.1696 7.50556 29.1022 7.70256L27.4456 6.60196C27.6656 7.3356 29.1052 9.72594 30.0817 9.22603C30.6487 8.93572 30.5398 8.54895 30.5398 8.00822C30.375 8.07437 30.1474 8.09 29.9323 7.86558C29.8422 7.32871 30.5429 7.36034 30.6411 6.7856L31.1675 7.132C31.9109 7.40388 31.9493 7.82781 31.1068 7.9267C31.2746 8.6022 31.1972 8.9158 31.9227 9.15204C32.8663 9.4593 33.804 8.80076 34.46 7.93086C34.7373 7.56306 34.9643 7.15749 35.12 6.77116C35.2745 6.38772 35.2462 6.39802 34.9813 6.05765C34.8179 5.84771 34.6558 5.70275 34.4947 5.61889C34.1154 5.42126 33.7423 5.56256 33.3747 5.99087C34.2685 6.219 33.4127 7.18002 32.8785 6.60516C32.5459 6.24727 32.6454 5.77911 32.8795 5.39637C33.3721 4.59078 34.4871 4.59007 35.2781 5.35919C33.9129 3.54605 35.1568 1.74801 35.9463 0L36.5517 1.49635C37.1319 2.9303 37.6304 3.89254 36.5943 5.35919C37.2823 4.61478 38.3701 4.58662 38.9201 5.49621C39.1558 5.88595 39.2141 6.4772 38.7345 6.70238C38.3517 6.8821 37.908 6.54036 38.1535 6.23539C38.3668 5.93482 38.4236 5.8845 38.0332 5.61882C37.7474 5.4243 37.4653 5.48823 37.1859 5.73256C36.5587 6.28086 36.618 6.4712 36.9482 7.15409C38.0866 9.50841 40.662 10.0441 40.7858 8.0082C40.6462 7.96666 40.5278 7.91356 40.4316 7.84847C39.8879 7.48052 40.157 7.32383 40.5419 7.21144C40.8796 7.11283 40.8997 6.8674 41.1503 6.50027C41.2594 6.80155 41.4292 7.03619 41.65 7.21473C41.9346 7.44477 42.3247 7.39688 41.9145 7.8166C41.7636 7.97106 41.6165 8.03096 41.3668 7.99443C41.3911 8.88492 40.9515 9.32813 41.6415 9.28785C41.8185 9.2775 41.9925 9.28227 42.1611 9.24477C43.1185 9.03175 43.7987 7.41732 44.3294 6.64293L42.588 7.78406L42.3248 7.3969L46.6985 4.50334C44.1618 7.23797 42.6709 9.89165 42.1425 12.4708L42.1425 12.4708ZM31.7605 10.7086C32.0068 10.7086 32.2065 10.9096 32.2065 11.1575C32.2065 11.4054 32.0068 11.6064 31.7605 11.6064C31.5141 11.6064 31.3144 11.4054 31.3144 11.1575C31.3144 10.9096 31.5141 10.7086 31.7605 10.7086ZM40.2095 10.7086C40.4559 10.7086 40.6556 10.9096 40.6556 11.1575C40.6556 11.4054 40.4559 11.6064 40.2095 11.6064C39.9632 11.6064 39.7635 11.4054 39.7635 11.1575C39.7635 10.9096 39.9632 10.7086 40.2095 10.7086ZM35.9636 8.97358C35.5673 9.64749 34.838 10.176 35.2217 10.9405C35.5732 11.6408 36.5935 11.5756 36.7849 10.7751C36.9481 10.0932 36.3248 9.49779 35.9636 8.9736L35.9636 8.97358ZM35.9552 5.78262C36.4873 4.47188 37.1825 3.42722 35.9453 2.23601C34.903 3.43346 35.245 4.51067 35.9552 5.78262Z" fill="white"/>
<path fill-rule="evenodd" clip-rule="evenodd" d="M29.8493 13.1877L29.8193 12.7964H42.0116L41.9418 13.1877H29.8493Z" fill="white"/>
<path fill-rule="evenodd" clip-rule="evenodd" d="M41.3167 27.115L42.3991 27.5442C44.2847 26.0031 46.8629 22.3142 48.5306 21.5755C49.944 20.9494 51.1516 21.3987 52.1409 22.989C52.0792 22.1946 51.7472 21.5361 51.0168 21.0781C50.4414 20.7172 49.7877 20.6672 49.1244 20.7677C47.9774 20.9414 46.9214 21.6582 45.9088 22.6259C46.5029 21.7789 47.2468 20.9878 47.8498 20.1442C48.5827 19.1187 48.9439 18.2416 48.9376 16.958C48.9356 16.5409 48.8858 16.1309 48.7952 15.7272C48.4965 17.8126 47.9073 19.5282 46.8723 20.2965C47.7381 18.3754 48.11 16.3326 47.4832 14.0437C46.8887 12.0104 44.4524 10.1861 42.7927 11.9642C42.6022 12.2103 42.4665 12.4568 42.3894 12.7034C42.2529 13.1405 42.3005 13.5779 42.5534 14.0139C43.0782 15.1818 44.1232 15.21 44.7465 16.5653C45.5039 18.2122 45.1908 20.3808 44.1703 22.2298C42.9925 24.2095 41.5807 25.7459 39.9062 26.7849L40.6279 26.9499C41.0545 26.6101 41.4775 26.2505 41.8944 25.8596C43.1662 24.6671 44.7637 22.8014 45.3161 21.1049C45.3536 20.9898 45.3889 20.8717 45.4219 20.7508C45.7355 19.6035 45.8804 18.2089 45.5625 17.0487C45.3233 16.1756 44.8227 15.4736 43.9094 14.8504C42.3664 13.7977 42.3986 12.1021 44.1039 11.7858C45.1082 11.5996 46.1813 12.5311 46.7353 13.5693C47.1836 14.4092 47.2746 15.5077 47.2105 16.443C47.1672 17.0745 47.0464 17.6776 46.8928 18.2687C46.8601 17.3382 46.7191 16.4521 46.4388 15.6232C46.0033 14.3353 45.1749 12.8462 43.6108 13.8107C45.1702 13.7921 46.0789 14.9537 46.2367 17.9056C46.2323 19.792 45.7836 21.4471 44.9903 22.9229C43.9776 24.6756 42.6778 25.9468 41.3166 27.115L41.3167 27.115Z" fill="white"/>
<path fill-rule="evenodd" clip-rule="evenodd" d="M43.0518 27.7337L43.6057 27.9726C44.5603 27.0346 45.5095 26.0304 46.4625 25.0725C47.1037 24.4281 48.5253 22.8865 49.3716 22.6536C50.7125 22.2846 51.2379 23.9802 50.5287 24.7218C50.0648 25.207 49.5393 25.143 49.0796 24.6675C49.1175 25.4467 49.9467 25.4695 50.4943 25.1957C51.3383 24.7736 51.5435 23.629 51.0581 22.8756C50.8114 22.4781 50.4644 22.2038 49.9634 22.119C49.4345 22.0849 48.9401 22.1658 48.5267 22.4478C47.217 23.341 44.4188 26.4916 43.0518 27.7337L43.0518 27.7337Z" fill="white"/>
<path fill-rule="evenodd" clip-rule="evenodd" d="M48.7179 23.9266C48.2067 24.179 48.2196 24.7555 48.4514 25.2398C48.7874 25.9417 49.5135 26.3008 50.2749 26.2311C51.3773 26.1302 52.4284 25.2103 52.8948 24.2309C53.1325 23.7318 53.2575 23.1771 53.2608 22.5928C53.2645 21.9333 53.0939 21.2732 52.7497 20.6169C52.1632 19.4986 51.1676 18.5788 49.9045 18.3754C50.5789 17.4584 50.6362 16.086 50.1405 15.0738C49.6401 14.052 48.6048 13.3979 47.3154 13.5817L47.4832 14.0436C48.6446 13.7715 49.4393 14.4897 49.7893 15.4589C50.3082 16.8961 49.7916 17.6743 49.2175 18.92C50.2533 18.4778 51.5316 19.5197 52.2359 20.7425C52.8262 22.0077 52.7145 23.1766 52.2983 24.3037C51.8391 25.1991 50.9971 25.8818 50.0825 25.8621C48.951 25.8378 48.3953 25.0156 48.7179 23.9266H48.7179Z" fill="white"/>
<path d="M37.0835 19.1769C37.9063 18.9551 39.0671 18.3784 39.0671 16.9737C39.0671 16.2935 38.7733 15.6429 38.2443 15.288C37.7888 14.9627 37.1423 14.7853 36.0403 14.7853H32.264V15.1993C33.4395 15.288 33.4983 15.3767 33.4983 16.604V22.563C33.4983 23.8051 33.4101 23.8938 32.1465 23.9825V24.3965H35.3938C36.5546 24.3965 37.5243 24.2191 38.2737 23.8051C39.1406 23.3171 39.6843 22.563 39.6843 21.5723C39.6843 20.0936 38.5382 19.443 37.0835 19.2212V19.1769L37.0835 19.1769ZM34.7325 19.0438V16.1456C34.7325 15.6577 34.7913 15.495 34.9236 15.4063C35.0705 15.3176 35.3937 15.2584 35.7611 15.2584C37.157 15.2584 37.7153 16.1456 37.7153 17.1511C37.7153 18.3932 37.0394 19.0438 35.4231 19.0438H34.7325ZM34.7325 19.5318H35.4084C37.2011 19.5318 38.2296 20.1972 38.2296 21.7202C38.2296 23.258 37.157 23.879 35.9521 23.8938C35.0117 23.8938 34.7325 23.6129 34.7325 22.5482V19.5318Z" fill="white"/>
<path d="M6.72604 39.1186C7.9955 38.8517 9.54919 38.089 9.54919 36.2776C9.54919 35.3624 9.13234 34.5615 8.45025 34.1039C7.76814 33.6463 6.85867 33.4556 5.41867 33.4556H0.132386V34.0658C1.53448 34.1992 1.66711 34.3137 1.66711 35.9344V43.3706C1.66711 44.9723 1.51552 45.1057 -0.000244141 45.2201V45.8493H4.58502C6.13868 45.8493 7.52184 45.6014 8.48815 45.0485C9.56815 44.4574 10.2692 43.4659 10.2692 42.1884C10.2692 40.3389 8.81026 39.4618 6.72606 39.1949V39.1186H6.72604ZM3.84605 38.9279V35.267C3.84605 34.7713 3.90289 34.5234 4.05448 34.3899C4.18711 34.2756 4.52816 34.1802 4.96395 34.1802C6.29027 34.1802 7.19974 35.0001 7.19974 36.5827C7.19974 38.1653 6.36607 38.928 4.43343 38.928H3.84607L3.84605 38.9279ZM3.84605 39.6525H4.39553C6.61237 39.6525 7.80604 40.5296 7.80604 42.3791C7.80604 44.3049 6.53657 45.0867 5.30498 45.1057C4.20604 45.1248 3.84605 44.7244 3.84605 43.3325V39.6525ZM23.3239 45.4489C22.8881 45.3155 22.5281 45.0867 22.0923 44.61C21.6754 44.1714 21.2776 43.5994 20.6144 42.5698C20.046 41.6927 19.307 40.4343 19.0039 39.8432C20.3302 39.2902 21.3913 38.3369 21.3913 36.678C21.3913 35.4959 20.8797 34.6569 20.1218 34.1421C19.3828 33.6273 18.4355 33.4557 16.8628 33.4557H11.785V34.0658C13.1871 34.1993 13.3576 34.3518 13.3576 35.9153V43.3706C13.3576 44.9532 13.1681 45.1057 11.7092 45.2392V45.8494H17.147V45.2392C15.6881 45.1057 15.5176 44.9532 15.5176 43.3706V40.4915H15.9534C16.7113 40.4915 17.0334 40.7393 17.3555 41.2923C17.9049 42.2647 18.4734 43.3515 19.0228 44.1905C19.8376 45.4108 20.5765 45.9065 22.6228 46.0019C22.8502 46.0019 23.0586 46.0209 23.2102 46.0209L23.3238 45.4489L23.3239 45.4489ZM15.5176 39.786V35.1145C15.5176 34.676 15.5555 34.4662 15.6881 34.3518C15.8207 34.2374 16.105 34.1612 16.6165 34.1612C17.8102 34.1612 19.0418 34.9048 19.0418 36.9641C19.0418 37.9556 18.7576 38.7182 18.0944 39.2712C17.6397 39.6525 17.0144 39.786 16.1618 39.786H15.5176V39.786ZM34.3701 33.4557H30.0502V34.0658C31.4712 34.2374 31.5091 34.4472 31.1681 35.2861C30.6754 36.4492 29.6902 38.2797 29.1028 39.4237C28.326 38.0127 27.4923 36.5445 26.7912 35.1336C26.4502 34.4662 26.4123 34.2374 27.7007 34.0658V33.4557H22.6039V34.0658C23.6839 34.1993 23.9681 34.409 24.6881 35.6865C25.787 37.6123 26.4691 38.8708 27.0376 39.9576C27.2649 40.4152 27.3407 40.5868 27.3407 41.0444V43.3134C27.3407 44.9913 27.1702 45.1248 25.5407 45.2392V45.8494H31.3954V45.2392C29.6902 45.1057 29.5386 44.9913 29.5386 43.3134V40.7966C29.5386 40.2627 29.5954 40.0339 29.8607 39.5381C30.7891 37.7839 31.3386 36.8496 32.0965 35.6293C32.8165 34.5044 33.1386 34.1993 34.3701 34.0658V33.4557ZM45.5112 45.8494V45.2392C44.2985 45.1057 44.0522 44.8769 43.427 43.199C42.1954 39.9195 41.0017 36.4874 39.808 33.1697L38.9743 33.3985L35.0712 43.2562C34.427 44.896 34.1807 45.0867 32.9491 45.2392V45.8494H37.1365V45.2392C35.7533 45.0676 35.6586 44.8388 35.9807 43.8092C36.208 43.0465 36.4733 42.3028 36.7196 41.6164H40.4901C40.8312 42.5317 41.1533 43.4278 41.3617 44.057C41.6459 44.8579 41.5133 45.0676 40.3764 45.2392V45.8494H45.5112ZM40.187 40.6821H37.0228C37.5533 39.2521 38.0649 37.7648 38.6333 36.2967H38.6712L40.187 40.6821ZM59.5322 33.4557H54.9659V34.0658C56.3301 34.1421 56.7469 34.4281 56.8416 35.267C56.8795 35.82 56.9743 36.7162 56.9743 38.4131V42.2647H56.9174L49.4333 33.4557H46.1933V34.0658C47.027 34.1421 47.4438 34.2946 47.8227 34.7713C48.1638 35.2098 48.2017 35.4577 48.2017 36.7734V40.8156C48.2017 42.5317 48.107 43.3897 48.0312 44.0189C47.9554 44.8769 47.5006 45.1629 46.4396 45.2392V45.8494H51.0059V45.2392C49.6606 45.1629 49.2817 44.8579 49.1869 43.9617C49.1301 43.3897 49.0543 42.5317 49.0543 40.8156V36.3539H49.0922L57.0501 46.04H57.8459V38.4131C57.8459 36.6971 57.9216 35.82 57.9974 35.2289C58.0921 34.3709 58.509 34.123 59.5321 34.0658V33.4556L59.5322 33.4557ZM71.9995 45.8494V45.2392C70.7869 45.1057 70.5406 44.8769 69.9153 43.199C68.6837 39.9195 67.49 36.4874 66.2963 33.1697L65.4627 33.3985L61.5595 43.2562C60.9153 44.896 60.669 45.0867 59.4374 45.2392V45.8494H63.6248V45.2392C62.2416 45.0676 62.1469 44.8388 62.469 43.8092C62.6964 43.0465 62.9616 42.3028 63.2079 41.6164H66.9785C67.3195 42.5317 67.6416 43.4278 67.85 44.057C68.1342 44.8579 68.0016 45.0676 66.8648 45.2392V45.8494H71.9995ZM66.6753 40.6821H63.5111C64.0416 39.2521 64.5532 37.7648 65.1216 36.2967H65.1595L66.6753 40.6821Z" fill="white"/>
<path d="M10.9819 51.5957C10.8848 51.5602 10.8098 51.5069 10.7127 51.4048C10.6289 51.3115 10.5318 51.1694 10.3773 50.9207C10.2449 50.7164 10.0816 50.4232 10.0154 50.29C10.3111 50.1701 10.5671 49.9569 10.5671 49.5661C10.5671 49.2907 10.4479 49.0953 10.2714 48.9754C10.0905 48.8555 9.86979 48.811 9.48142 48.811H8.24128V48.9665C8.56344 48.9976 8.60317 49.042 8.60317 49.3973V51.1028C8.60317 51.4714 8.55463 51.5114 8.22363 51.5424V51.6979H9.55644V51.5424C9.22103 51.5113 9.1813 51.4714 9.1813 51.1028V50.4543H9.26515C9.40638 50.4543 9.48582 50.5121 9.55644 50.6453C9.68444 50.8807 9.80358 51.1205 9.91833 51.3026C10.0993 51.5824 10.267 51.7068 10.8231 51.7334C10.8804 51.7334 10.929 51.7379 10.9555 51.7379L10.9819 51.5957V51.5957ZM9.1813 50.2767V49.1975C9.1813 49.1042 9.19013 49.0598 9.22103 49.0331C9.24751 49.0065 9.3093 48.9887 9.41963 48.9887C9.66677 48.9887 9.94039 49.1575 9.94039 49.6327C9.94039 49.8592 9.8786 50.0368 9.72856 50.1612C9.63146 50.2456 9.48142 50.2767 9.29605 50.2767H9.1813V50.2767ZM13.845 50.9295C13.7656 51.125 13.6861 51.2671 13.5978 51.3648C13.4963 51.4758 13.3419 51.5069 13.1124 51.5069C12.9447 51.5069 12.7946 51.498 12.7152 51.4625C12.6269 51.4181 12.6093 51.3115 12.6093 51.0983V50.3255H12.9049C13.2801 50.3255 13.3375 50.3433 13.3948 50.6631H13.5537V49.7704H13.3948C13.3375 50.0813 13.2757 50.1035 12.9049 50.1035H12.6093V49.1619C12.6093 49.0154 12.6269 49.0065 12.7902 49.0065H13.002C13.2492 49.0065 13.3683 49.0376 13.4434 49.1175C13.5228 49.1975 13.5802 49.344 13.6199 49.4994L13.7832 49.4772C13.7656 49.2019 13.7435 48.891 13.7391 48.8111H11.6604V48.9665C11.9737 48.9932 12.0179 49.0154 12.0179 49.4018V51.1072C12.0179 51.4847 11.9737 51.5114 11.5986 51.5425V51.6979H13.8494C13.8847 51.5647 13.973 51.1605 14.0039 50.9607L13.845 50.9296V50.9295ZM16.505 49.4994C16.4697 49.2241 16.4388 49.0242 16.4211 48.8599C16.3417 48.8333 16.0902 48.7444 15.8077 48.7444C15.181 48.7444 14.7971 49.1264 14.7971 49.6149C14.7971 50.0413 15.1148 50.2811 15.565 50.5121C15.896 50.6897 16.0902 50.854 16.0902 51.116C16.0902 51.4003 15.918 51.5868 15.6488 51.5868C15.2251 51.5868 14.9648 51.085 14.8765 50.8007L14.722 50.854C14.7529 51.1205 14.8103 51.4935 14.8544 51.6046C14.9118 51.6312 14.9957 51.6668 15.1192 51.7023C15.2516 51.7423 15.4061 51.7645 15.565 51.7645C16.2093 51.7645 16.6374 51.3692 16.6374 50.8629C16.6374 50.4232 16.3196 50.1745 15.8562 49.948C15.4679 49.7482 15.309 49.6105 15.309 49.3662C15.309 49.1086 15.4899 48.9265 15.7371 48.9265C16.0946 48.9265 16.2623 49.2552 16.3505 49.535L16.505 49.4994H16.505ZM19.0282 48.7489C18.0176 48.7489 17.4747 49.4994 17.4747 50.2633C17.4747 51.1116 18.0882 51.7645 18.9709 51.7645C19.805 51.7645 20.489 51.1827 20.489 50.2234C20.489 49.3485 19.8314 48.7489 19.0282 48.7489ZM18.94 48.9354C19.4563 48.9354 19.8094 49.4639 19.8094 50.3477C19.8094 51.1649 19.4696 51.5779 19.0503 51.5779C18.4854 51.5779 18.1544 50.9384 18.1544 50.1745C18.1544 49.4062 18.4986 48.9354 18.94 48.9354ZM24.0317 51.5957C23.9346 51.5602 23.8596 51.5069 23.7625 51.4048C23.6787 51.3115 23.5816 51.1694 23.4271 50.9207C23.2947 50.7164 23.1314 50.4232 23.0652 50.29C23.3609 50.1701 23.6169 49.9569 23.6169 49.5661C23.6169 49.2907 23.4977 49.0953 23.3212 48.9754C23.1403 48.8555 22.9196 48.811 22.5312 48.811H21.2911V48.9665C21.6132 48.9976 21.6529 49.042 21.6529 49.3973V51.1028C21.6529 51.4714 21.6044 51.5114 21.2734 51.5424V51.6979H22.6062V51.5424C22.2708 51.5113 22.2311 51.4714 22.2311 51.1028V50.4543H22.3149C22.4562 50.4543 22.5356 50.5121 22.6062 50.6453C22.7342 50.8807 22.8534 51.1205 22.9681 51.3026C23.149 51.5824 23.3168 51.7068 23.8728 51.7334C23.9302 51.7334 23.9788 51.7379 24.0052 51.7379L24.0317 51.5957V51.5957ZM22.2311 50.2767V49.1975C22.2311 49.1042 22.2399 49.0598 22.2708 49.0331C22.2973 49.0065 22.3591 48.9887 22.4694 48.9887C22.7166 48.9887 22.9902 49.1575 22.9902 49.6327C22.9902 49.8592 22.9284 50.0368 22.7783 50.1612C22.6812 50.2456 22.5312 50.2767 22.3458 50.2767H22.2311V50.2767ZM27.111 49.5616C27.089 49.2774 27.0669 48.8866 27.0625 48.7H26.9521C26.8771 48.7844 26.8153 48.811 26.7006 48.811H24.9264C24.7985 48.811 24.7411 48.7977 24.6749 48.7H24.5645C24.5557 48.9265 24.5292 49.2507 24.5116 49.5749H24.6749C24.7322 49.3529 24.7852 49.2019 24.8602 49.1264C24.922 49.0509 25.0015 49.0065 25.3678 49.0065H25.5178V51.1072C25.5178 51.4847 25.4737 51.5113 25.1029 51.5424V51.6979H26.5417V51.5424C26.1533 51.5113 26.1092 51.4847 26.1092 51.1072V49.0065H26.3078C26.5682 49.0065 26.6785 49.0287 26.7579 49.1086C26.8374 49.1885 26.8992 49.3396 26.9521 49.5705L27.111 49.5616L27.111 49.5616ZM31.9159 49.8059H30.8699L30.8655 49.9569C31.17 49.9969 31.2009 50.0635 31.1083 50.2633C31.042 50.4055 30.9714 50.5298 30.892 50.6453C30.5875 50.3522 30.3359 50.1301 30.2079 50.0235C30.3447 49.9303 30.4683 49.8414 30.561 49.7615C30.6757 49.6638 30.7463 49.5483 30.7463 49.3929C30.7463 49.0242 30.4418 48.7489 30.0005 48.7489C29.5636 48.7489 29.1973 49.0953 29.1973 49.495C29.1973 49.7571 29.312 49.9525 29.4929 50.1257C29.1046 50.401 28.8751 50.5609 28.8751 50.934C28.8751 51.3204 29.2017 51.7601 29.7975 51.7601C30.0888 51.7601 30.3756 51.5913 30.6492 51.2316C30.8081 51.3915 30.9361 51.5424 30.9979 51.6002C31.0553 51.6579 31.3201 51.7601 31.757 51.7601L31.7835 51.7068C31.5805 51.3914 31.3024 51.0495 31.02 50.7741C31.1568 50.5787 31.2671 50.4099 31.3907 50.2545C31.5496 50.0458 31.6422 49.9836 31.9159 49.9569V49.8059L31.9159 49.8059ZM29.9564 48.9221C30.1815 48.9221 30.3006 49.1441 30.3006 49.3706C30.3006 49.646 30.1947 49.8236 30.08 49.9213C29.7799 49.686 29.6607 49.535 29.6607 49.3129C29.6607 49.1086 29.7887 48.9221 29.9564 48.9221ZM30.0138 51.3559C29.7137 51.3559 29.4224 51.156 29.4224 50.7297C29.4224 50.5565 29.4886 50.3699 29.6077 50.2411C29.9829 50.5698 30.208 50.7652 30.5301 51.0983C30.4198 51.2359 30.2035 51.3559 30.0138 51.3559L30.0138 51.3559ZM36.3368 51.6979V51.5424C36.0544 51.5069 36.0014 51.4491 35.8514 51.0583C35.5645 50.2944 35.2909 49.5217 35.0084 48.7444L34.7834 48.8022L33.8786 51.085C33.733 51.458 33.6756 51.5069 33.3843 51.5424V51.6979H34.3729V51.5424C34.0508 51.5024 34.0375 51.4403 34.1037 51.2271C34.1567 51.0494 34.2141 50.8895 34.2626 50.7519H35.1099C35.1762 50.9295 35.2423 51.1205 35.2865 51.2537C35.3571 51.4491 35.335 51.5024 35.0746 51.5424V51.6979H36.3368ZM35.0261 50.5165H34.3376C34.4524 50.2012 34.5627 49.877 34.6863 49.5527H34.6995L35.0261 50.5165ZM37.1124 48.811V48.9665C37.4213 48.9976 37.4611 49.0287 37.4611 49.4062V51.1072C37.4611 51.4847 37.4213 51.5158 37.0903 51.5469V51.6979H38.4585V51.5469C38.0833 51.5158 38.0436 51.4847 38.0436 51.1072V50.4943L38.3437 50.5698C38.3922 50.5698 38.4585 50.5698 38.5246 50.5609C38.9924 50.5032 39.4294 50.2323 39.4294 49.6371C39.4294 49.3484 39.3102 49.1264 39.1028 48.9843C38.9263 48.8599 38.6791 48.811 38.3305 48.811H37.1124ZM38.0436 49.1663C38.0436 49.0997 38.0524 49.0553 38.0833 49.0287C38.1098 49.0065 38.1628 48.9842 38.2466 48.9842C38.5158 48.9842 38.7939 49.1486 38.7939 49.6504C38.7939 50.25 38.4408 50.3655 38.2819 50.3655C38.1892 50.3655 38.0966 50.3433 38.0436 50.3211V49.1663ZM42.6278 51.6978V51.5424C42.3454 51.5068 42.2924 51.4491 42.1424 51.0583C41.8555 50.2944 41.5819 49.5216 41.2994 48.7444L41.0743 48.8021L40.1696 51.0849C40.024 51.458 39.9666 51.5068 39.6753 51.5424V51.6978H40.6639V51.5424C40.3418 51.5024 40.3285 51.4402 40.3947 51.2271C40.4477 51.0494 40.505 50.8895 40.5536 50.7518H41.4009C41.4671 50.9295 41.5333 51.1205 41.5775 51.2537C41.6481 51.4491 41.626 51.5024 41.3656 51.5424V51.6978H42.6278ZM41.3171 50.5165H40.6286C40.7433 50.2011 40.8537 49.8769 40.9773 49.5527H40.9905L41.3171 50.5165ZM46.1308 51.5957C46.0337 51.5602 45.9587 51.5069 45.8616 51.4047C45.7778 51.3115 45.6807 51.1693 45.5262 50.9206C45.3938 50.7163 45.2305 50.4232 45.1643 50.29C45.46 50.1701 45.716 49.9569 45.716 49.566C45.716 49.2907 45.5968 49.0953 45.4203 48.9754C45.2393 48.8554 45.0187 48.811 44.6303 48.811H43.3902V48.9665C43.7123 48.9976 43.752 49.042 43.752 49.3973V51.1027C43.752 51.4714 43.7035 51.5113 43.3725 51.5424V51.6979H44.7053V51.5424C44.3699 51.5113 44.3302 51.4714 44.3302 51.1027V50.4543H44.414C44.5553 50.4543 44.6347 50.5121 44.7053 50.6453C44.8333 50.8807 44.9525 51.1205 45.0672 51.3026C45.2481 51.5824 45.4159 51.7068 45.9719 51.7334C46.0293 51.7334 46.0779 51.7378 46.1043 51.7378L46.1308 51.5957V51.5957ZM44.3302 50.2767V49.1974C44.3302 49.1042 44.339 49.0598 44.3699 49.0331C44.3964 49.0065 44.4582 48.9887 44.5685 48.9887C44.8156 48.9887 45.0893 49.1575 45.0893 49.6327C45.0893 49.8592 45.0275 50.0368 44.8774 50.1612C44.7803 50.2455 44.6303 50.2766 44.4449 50.2766H44.3302V50.2767ZM49.2101 49.5616C49.188 49.2774 49.166 48.8865 49.1616 48.7H49.0512C48.9762 48.7844 48.9144 48.811 48.7997 48.811H47.0255C46.8975 48.811 46.8402 48.7977 46.774 48.7H46.6636C46.6548 48.9265 46.6283 49.2507 46.6107 49.5749H46.774C46.8313 49.3529 46.8843 49.2019 46.9593 49.1264C47.0211 49.0509 47.1005 49.0064 47.4669 49.0064H47.6169V51.1072C47.6169 51.4847 47.5728 51.5113 47.202 51.5424V51.6978H48.6408V51.5424C48.2524 51.5113 48.2083 51.4847 48.2083 51.1072V49.0064H48.4069C48.6673 49.0064 48.7776 49.0286 48.857 49.1086C48.9365 49.1885 48.9983 49.3395 49.0512 49.5705L49.2101 49.5616L49.2101 49.5616ZM53.584 51.6978V51.5424C53.2397 51.5068 53.2177 51.4758 53.2088 51.0672L53.1691 49.4062C53.1603 49.0375 53.1779 49.002 53.531 48.9665V48.811H52.6388L51.773 50.7563L50.9257 48.811H50.0121V48.9665C50.3917 49.002 50.4226 49.0642 50.3873 49.5661L50.3167 50.4454C50.2814 50.9117 50.2505 51.1471 50.224 51.2848C50.1931 51.4447 50.1137 51.5202 49.8621 51.5424V51.6979H50.9257V51.5424C50.63 51.5158 50.5462 51.4758 50.5285 51.2759C50.5109 51.1383 50.5064 50.9295 50.5285 50.5609L50.5815 49.4017H50.5991L51.4994 51.6668H51.623L52.5991 49.3573H52.6211L52.63 51.0672C52.63 51.4758 52.6079 51.5069 52.2769 51.5424V51.6979H53.584L53.584 51.6978ZM56.5735 50.9295C56.4941 51.1249 56.4146 51.267 56.3264 51.3648C56.2249 51.4758 56.0704 51.5069 55.8409 51.5069C55.6732 51.5069 55.5232 51.498 55.4437 51.4624C55.3555 51.418 55.3378 51.3115 55.3378 51.0983V50.3255H55.6335C56.0086 50.3255 56.066 50.3432 56.1234 50.663H56.2822V49.7703H56.1234C56.066 50.0812 56.0042 50.1034 55.6335 50.1034H55.3378V49.1619C55.3378 49.0153 55.3555 49.0064 55.5188 49.0064H55.7306C55.9777 49.0064 56.0969 49.0375 56.1719 49.1175C56.2514 49.1974 56.3087 49.344 56.3485 49.4994L56.5117 49.4772C56.4941 49.2019 56.472 48.891 56.4676 48.811H54.3889V48.9665C54.7023 48.9931 54.7464 49.0153 54.7464 49.4017V51.1072C54.7464 51.4847 54.7023 51.5113 54.3271 51.5424V51.6979H56.5779C56.6132 51.5646 56.7015 51.1605 56.7324 50.9606L56.5735 50.9295V50.9295ZM60.4781 48.811H59.4013V48.962C59.7278 48.9798 59.8161 49.0553 59.8382 49.2463C59.8514 49.3751 59.8735 49.5838 59.8735 49.9791V50.7607H59.8602L58.1699 48.811H57.3535V48.962C57.5432 48.9798 57.6403 49.0153 57.7242 49.1219C57.808 49.2285 57.8125 49.3084 57.8125 49.6016V50.5253C57.8125 50.9162 57.786 51.116 57.7683 51.2626C57.7507 51.4536 57.6491 51.5246 57.402 51.5424V51.6978H58.4833V51.5424C58.1567 51.5291 58.0817 51.4447 58.0596 51.2493C58.0463 51.116 58.0243 50.9162 58.0243 50.5253V49.5305H58.0375L59.8735 51.7422H60.0853V49.9791C60.0853 49.5838 60.1118 49.3751 60.125 49.2374C60.1471 49.0375 60.2398 48.9753 60.4781 48.962V48.811L60.4781 48.811ZM63.7737 49.5616C63.7516 49.2774 63.7295 48.8865 63.7251 48.7H63.6148C63.5397 48.7844 63.478 48.811 63.3632 48.811H61.5891C61.4611 48.811 61.4037 48.7977 61.3375 48.7H61.2272C61.2183 48.9265 61.1919 49.2507 61.1742 49.5749H61.3375C61.3949 49.3529 61.4478 49.2019 61.5229 49.1264C61.5847 49.0509 61.6641 49.0064 62.0304 49.0064H62.1804V51.1072C62.1804 51.4847 62.1363 51.5113 61.7656 51.5424V51.6978H63.2043V51.5424C62.816 51.5113 62.7718 51.4847 62.7718 51.1072V49.0064H62.9704C63.2308 49.0064 63.3411 49.0286 63.4206 49.1086C63.5 49.1885 63.5618 49.3395 63.6148 49.5705L63.7736 49.5616L63.7737 49.5616Z" fill="white"/>
<path d="M14.8949 56.0269C14.8094 56.1834 14.7239 56.3125 14.6461 56.3908C14.545 56.4925 14.4322 56.5355 14.2495 56.5355C14.1017 56.5355 14.0162 56.5199 13.9734 56.4768C13.9307 56.426 13.9346 56.3438 13.9618 56.2069L14.2612 54.6222C14.3117 54.3561 14.3389 54.3209 14.6072 54.2974L14.6344 54.1761H13.5652L13.538 54.2974C13.814 54.3209 13.8373 54.36 13.7868 54.6222L13.4758 56.2108C13.4174 56.5121 13.3941 56.5434 13.1219 56.5668L13.0908 56.6881H14.7861C14.8405 56.559 14.9727 56.1951 15.0193 56.0699L14.8949 56.0269H14.8949ZM16.8818 56.2069C16.804 56.2851 16.6913 56.3673 16.6563 56.3673C16.6329 56.3673 16.6291 56.3281 16.6485 56.2186C16.7379 55.7569 16.8312 55.3382 16.9362 54.9117H16.8818L16.4774 55.0213C16.4308 55.2678 16.3608 55.5808 16.2986 55.8469C16.2091 56.023 15.9175 56.3868 15.7698 56.3868C15.7153 56.3868 15.6959 56.336 15.7348 56.1638C15.797 55.9017 15.867 55.5808 15.9292 55.3147C15.9992 55.0017 15.9603 54.9117 15.8592 54.9117C15.7037 54.9117 15.4354 55.0878 15.2099 55.303L15.2566 55.4126C15.3343 55.3499 15.4432 55.2756 15.4782 55.2756C15.5054 55.2834 15.5093 55.3069 15.486 55.4126C15.4199 55.6943 15.3616 55.9447 15.3071 56.1951C15.2022 56.6724 15.3382 56.7351 15.451 56.7351C15.5365 56.7351 15.626 56.7077 15.7076 56.6568C15.8165 56.5981 16.0498 56.4142 16.2481 56.1403H16.2558C16.2403 56.2225 16.2209 56.2968 16.2053 56.379C16.1586 56.6138 16.1936 56.7351 16.3142 56.7351C16.4658 56.7351 16.7069 56.5903 16.9441 56.3125L16.8818 56.2068L16.8818 56.2069ZM17.3289 55.4556C17.4378 55.3147 17.5 55.2639 17.535 55.2639C17.5661 55.2639 17.5933 55.2991 17.6439 55.4908L17.7527 55.8899C17.5739 56.1951 17.4339 56.3516 17.3561 56.3516C17.3212 56.3516 17.2939 56.3399 17.2667 56.3125C17.2473 56.293 17.2278 56.2734 17.2006 56.2734C17.1306 56.2734 17.0062 56.3673 17.0062 56.5238C17.0023 56.649 17.0879 56.7351 17.1967 56.7351C17.3834 56.7351 17.5195 56.559 17.7994 56.0582L17.8811 56.3712C17.951 56.6255 18.0444 56.7351 18.161 56.7351C18.2971 56.7351 18.4876 56.6373 18.7092 56.2695L18.6237 56.1873C18.5226 56.3164 18.4448 56.3868 18.4021 56.3868C18.3554 56.3868 18.3126 56.3164 18.2621 56.1208L18.126 55.6317C18.2038 55.5104 18.2699 55.4243 18.3243 55.3617C18.3865 55.2952 18.4293 55.2678 18.4604 55.2678C18.4992 55.2678 18.5304 55.2913 18.5498 55.3108C18.5692 55.3422 18.5887 55.3617 18.6198 55.3617C18.7053 55.3617 18.8181 55.26 18.822 55.1269C18.8259 55.0017 18.7559 54.9117 18.6392 54.9117C18.4915 54.9117 18.3593 55.0369 18.0716 55.4791L18.0249 55.3069C17.9588 55.0448 17.9005 54.9117 17.7722 54.9117C17.6283 54.9117 17.43 55.0839 17.2473 55.3656L17.3289 55.4556ZM20.6338 56.2069C20.5561 56.2851 20.4433 56.3673 20.4083 56.3673C20.385 56.3673 20.3811 56.3281 20.4006 56.2186C20.49 55.7569 20.5833 55.3382 20.6883 54.9117H20.6338L20.2295 55.0213C20.1828 55.2678 20.1128 55.5808 20.0506 55.8469C19.9612 56.023 19.6696 56.3868 19.5218 56.3868C19.4674 56.3868 19.448 56.336 19.4869 56.1638C19.5491 55.9017 19.6191 55.5808 19.6813 55.3147C19.7512 55.0017 19.7124 54.9117 19.6113 54.9117C19.4557 54.9117 19.1875 55.0878 18.962 55.303L19.0086 55.4126C19.0864 55.3499 19.1953 55.2756 19.2303 55.2756C19.2575 55.2834 19.2614 55.3069 19.238 55.4126C19.1719 55.6943 19.1136 55.9447 19.0592 56.1951C18.9542 56.6724 19.0903 56.7351 19.2031 56.7351C19.2886 56.7351 19.378 56.7077 19.4597 56.6568C19.5685 56.5981 19.8018 56.4142 20.0001 56.1403H20.0079C19.9923 56.2225 19.9729 56.2968 19.9574 56.379C19.9107 56.6138 19.9457 56.7351 20.0662 56.7351C20.2179 56.7351 20.4589 56.5903 20.6961 56.3125L20.6339 56.2068L20.6338 56.2069ZM21.567 55.5456L21.602 55.3656C21.6681 55.0448 21.6409 54.9117 21.5203 54.9117C21.3843 54.9117 21.1354 55.0761 20.9177 55.3108L20.976 55.4087C21.046 55.3461 21.1626 55.2717 21.1976 55.2717C21.2248 55.2717 21.2287 55.3226 21.2054 55.44C21.1315 55.8626 21.0421 56.2695 20.9449 56.6881L20.976 56.7195C21.0888 56.6881 21.2599 56.6529 21.3998 56.6451C21.4387 56.4299 21.4893 56.1325 21.5398 55.9213C21.5864 55.7647 21.6603 55.6004 21.7575 55.4556C21.8197 55.3617 21.8508 55.3461 21.8858 55.3461C21.9247 55.3461 21.9753 55.3735 22.0219 55.4165C22.0491 55.4439 22.088 55.4478 22.123 55.4204C22.1619 55.393 22.2047 55.35 22.2591 55.2717C22.3135 55.1856 22.3252 55.1113 22.2785 55.0252C22.2358 54.9508 22.1697 54.9117 22.0997 54.9117C21.9519 54.9117 21.7808 55.1387 21.5787 55.5456H21.567ZM23.3089 56.2969C23.2933 55.9799 23.2778 55.7021 23.2506 55.4322C23.2156 55.0526 23.1378 54.9118 23.0056 54.9118C22.8423 54.9118 22.644 55.1035 22.4807 55.3696L22.5585 55.4674C22.6518 55.3383 22.714 55.2835 22.7412 55.2835C22.7646 55.2835 22.784 55.3226 22.8151 55.4909C22.8734 55.8156 22.9318 56.4651 22.924 56.7742C22.7335 57.0325 22.5157 57.2086 22.0958 57.4864L22.1308 57.5998L22.6207 57.4746C22.8657 57.1929 23.0912 56.8916 23.3089 56.5668C23.5305 56.2382 23.7327 55.9212 23.9154 55.6121C24.0165 55.44 24.0632 55.2835 24.0632 55.17C24.0632 55.0056 23.9738 54.9117 23.861 54.9117C23.7833 54.9117 23.6977 54.9704 23.6588 55.0487C23.6355 55.0995 23.6355 55.1387 23.6588 55.1895C23.6861 55.2365 23.7094 55.303 23.7133 55.3969C23.7094 55.6708 23.5072 55.9956 23.3167 56.2968H23.3089L23.3089 56.2969ZM28.5229 56.2342C28.4373 56.3086 28.3362 56.3712 28.309 56.3712C28.2935 56.3516 28.274 56.3321 28.3051 56.2029L28.484 55.3734C28.5695 54.9783 28.449 54.9117 28.344 54.9117C28.2546 54.9117 28.1496 54.9548 28.0524 55.0135C27.9124 55.0995 27.6908 55.2874 27.4925 55.5613H27.4847C27.5897 55.0604 27.6908 54.5635 27.7919 54.0705C27.8113 53.9844 27.8075 53.9531 27.7569 53.9531C27.6986 53.9531 27.4964 54.0079 27.3487 54.0549L27.337 54.0979C27.3176 54.1605 27.2631 54.1761 27.0298 54.1761H25.5251C25.4357 54.1761 25.4046 54.1683 25.3657 54.0783H25.2685C25.2296 54.2779 25.1596 54.5478 25.0858 54.8022H25.2218C25.2996 54.6222 25.3657 54.5244 25.4279 54.4539C25.494 54.3835 25.5835 54.3366 25.8128 54.3366H26.0578L25.6612 56.1716C25.5951 56.4925 25.5679 56.5355 25.284 56.5629L25.2568 56.6881H26.3883L26.4155 56.5629C26.1005 56.5355 26.0772 56.4964 26.1433 56.1716L26.5166 54.3366H26.6799C26.9365 54.3366 27.1193 54.3444 27.2903 54.36C27.1426 55.1582 26.9832 55.9408 26.8199 56.7038L26.851 56.7351C26.9754 56.6999 27.1348 56.6607 27.2826 56.649C27.3254 56.4103 27.3915 56.0738 27.4381 55.8704C27.5781 55.6082 27.8814 55.2482 28.0097 55.2482C28.0563 55.2482 28.0641 55.303 28.0369 55.4399L27.8464 56.289C27.7686 56.6451 27.8308 56.7351 27.9358 56.7351C28.0602 56.7351 28.3324 56.6059 28.5773 56.3399L28.5229 56.2342H28.5229ZM30.4436 56.1951C30.3581 56.2812 30.2337 56.3712 30.2026 56.3712C30.1792 56.3712 30.1714 56.3399 30.1909 56.2342C30.2764 55.7451 30.3697 55.3304 30.4514 54.9861L30.432 54.9704C30.362 54.9704 30.3036 54.9626 30.222 54.943C30.1404 54.9235 30.0548 54.9117 29.9926 54.9117C29.7127 54.9117 29.3666 55.0917 29.1955 55.26C28.9506 55.5065 28.7873 55.9095 28.7873 56.2812C28.7873 56.5825 28.9 56.7351 29.04 56.7351C29.1644 56.7351 29.3044 56.6412 29.421 56.5434C29.5299 56.4495 29.6543 56.3282 29.7865 56.1404H29.7943L29.7554 56.3399C29.6893 56.6764 29.7671 56.7351 29.8527 56.7351C29.9693 56.7351 30.2453 56.6099 30.5059 56.293L30.4436 56.1951L30.4436 56.1951ZM29.3433 56.3868C29.3005 56.3868 29.2694 56.336 29.2694 56.1951C29.2694 55.8351 29.39 55.3578 29.6193 55.1622C29.6699 55.123 29.7204 55.0995 29.7943 55.0995C29.8682 55.0995 29.9421 55.123 29.9926 55.1504C29.9498 55.3421 29.8915 55.6082 29.8371 55.8312C29.7826 55.9603 29.4677 56.3868 29.3433 56.3868ZM31.855 54.9828H31.4623L31.5984 54.3802L31.5517 54.3529L31.1163 54.6268L31.0307 54.9828H30.8286L30.7158 55.1269L30.7314 55.17H30.9919L30.7741 56.1834C30.6808 56.6021 30.7741 56.7351 30.9024 56.7351C31.1124 56.7351 31.4351 56.4964 31.579 56.2969L31.5207 56.1951C31.4235 56.289 31.2718 56.3947 31.2252 56.3947C31.1902 56.3947 31.1746 56.3399 31.2057 56.1951L31.4196 55.1713L31.7423 55.1517L31.855 54.9829L31.855 54.9828ZM32.9087 54.1761L32.8815 54.2974C33.1537 54.3209 33.1692 54.3561 33.107 54.6848L32.8154 56.2069C32.7571 56.5042 32.7221 56.5395 32.481 56.5668L32.4577 56.6881H33.5464L33.5697 56.5668C33.2626 56.5434 33.2392 56.5081 33.2937 56.2147L33.422 55.5104H33.7136C34.0091 55.5104 34.0479 55.5456 34.0441 55.8352H34.1763L34.324 55.0409H34.1996C34.0985 55.2913 34.0752 55.3343 33.7641 55.3343H33.4609L33.6242 54.4852C33.6475 54.364 33.6708 54.3287 33.7836 54.3287H33.9935C34.1996 54.3287 34.2852 54.3561 34.324 54.4461C34.359 54.5205 34.3707 54.6417 34.3824 54.7826L34.5068 54.7709C34.534 54.5713 34.569 54.2661 34.5845 54.1761H32.9087H32.9087ZM35.7043 56.1599C35.5254 56.336 35.3194 56.4338 35.1755 56.4338C34.9967 56.4338 34.9344 56.2616 34.9344 56.0425C34.9344 56.0112 34.9344 55.976 34.9383 55.9447C35.3271 55.839 35.8754 55.6356 35.8754 55.2482C35.8754 55.0722 35.7626 54.9117 35.506 54.9117C35.3155 54.9117 35.055 55.0448 34.9111 55.1622C34.6467 55.3813 34.4679 55.7843 34.4679 56.1638C34.4679 56.6099 34.6856 56.7351 34.915 56.7351C35.1405 56.7351 35.4283 56.6373 35.7743 56.2616L35.7043 56.1599H35.7043ZM35.3271 55.0917C35.3855 55.0917 35.4671 55.1465 35.4671 55.3069C35.4671 55.5104 35.3349 55.6747 34.9539 55.7999C35.0044 55.4008 35.1483 55.1974 35.2105 55.1426C35.2533 55.1074 35.2921 55.0917 35.3271 55.0917ZM37.2362 56.1599C37.0574 56.336 36.8513 56.4338 36.7074 56.4338C36.5286 56.4338 36.4664 56.2616 36.4664 56.0425C36.4664 56.0112 36.4664 55.976 36.4702 55.9447C36.8591 55.839 37.4073 55.6356 37.4073 55.2482C37.4073 55.0722 37.2945 54.9117 37.0379 54.9117C36.8474 54.9117 36.5869 55.0448 36.443 55.1622C36.1786 55.3813 35.9998 55.7843 35.9998 56.1638C35.9998 56.6099 36.2175 56.7351 36.4469 56.7351C36.6725 56.7351 36.9602 56.6373 37.3062 56.2616L37.2362 56.1599H37.2362ZM36.8591 55.0917C36.9174 55.0917 36.999 55.1465 36.999 55.3069C36.999 55.5104 36.8668 55.6747 36.4858 55.7999C36.5363 55.4008 36.6802 55.1974 36.7424 55.1426C36.7852 55.1074 36.8241 55.0917 36.8591 55.0917ZM38.2588 56.2421C38.1771 56.3164 38.0722 56.379 38.0411 56.379C38.0177 56.379 38.01 56.3399 38.0294 56.2382C38.1733 55.5299 38.3171 54.8217 38.4571 54.1174C38.4765 54.0235 38.4765 53.9766 38.4299 53.9766C38.3677 53.9766 38.1033 54.0822 37.7572 54.1135L37.73 54.2348L37.8078 54.2427C37.9594 54.2505 37.9905 54.274 37.9516 54.4735C37.8311 55.0683 37.7144 55.663 37.5939 56.2577C37.5123 56.6529 37.59 56.7351 37.6872 56.7351C37.8156 56.7351 38.0722 56.6138 38.3171 56.3438L38.2588 56.2421ZM38.8537 56.7351C39.1842 56.7351 39.6041 56.4416 39.6041 56.0856C39.6041 55.8899 39.4602 55.7412 39.2619 55.5965C39.1025 55.4791 39.0131 55.3734 39.0131 55.2756C39.0131 55.1974 39.0714 55.1387 39.1531 55.1387C39.2853 55.1387 39.3941 55.2561 39.468 55.35C39.4913 55.3813 39.5302 55.3891 39.5808 55.3539C39.6585 55.303 39.7052 55.2208 39.7052 55.1465C39.7052 55.0291 39.573 54.9117 39.3825 54.9117C39.2464 54.9117 39.0714 54.9861 38.9315 55.1073C38.7371 55.2717 38.6943 55.4204 38.6943 55.5573C38.6943 55.7764 38.8848 55.929 39.0403 56.0582C39.2153 56.2029 39.2658 56.2734 39.2658 56.3634C39.2658 56.4494 39.192 56.5003 39.1025 56.5003C38.9859 56.5003 38.8381 56.4142 38.7098 56.2382C38.6787 56.1951 38.6359 56.1912 38.5698 56.2342C38.5115 56.2734 38.4493 56.3595 38.4493 56.4455C38.4532 56.6177 38.6593 56.7351 38.8537 56.7351ZM42.2869 56.0269C42.2014 56.1834 42.1158 56.3125 42.038 56.3907C41.937 56.4925 41.8242 56.5355 41.6415 56.5355C41.4937 56.5355 41.4082 56.5199 41.3654 56.4768C41.3226 56.426 41.3265 56.3438 41.3537 56.2068L41.6531 54.6222C41.7037 54.3561 41.7309 54.3209 41.9992 54.2974L42.0264 54.1761H40.9571L40.9299 54.2974C41.206 54.3209 41.2293 54.36 41.1788 54.6222L40.8677 56.2108C40.8094 56.5121 40.7861 56.5434 40.5139 56.5668L40.4828 56.6881H42.178C42.2324 56.559 42.3646 56.1951 42.4113 56.0699L42.2869 56.0269H42.2869ZM43.2861 54.1566C43.1151 54.1566 43.0062 54.3013 43.0062 54.454C43.0101 54.587 43.0878 54.677 43.2161 54.677C43.3872 54.677 43.4961 54.5361 43.4961 54.3796C43.4961 54.2701 43.43 54.1566 43.2861 54.1566ZM43.36 56.2264C43.2589 56.3164 43.1695 56.3712 43.1384 56.3712C43.1112 56.3712 43.0995 56.3399 43.1267 56.2303L43.3444 55.3069C43.4067 55.0448 43.3872 54.9117 43.2745 54.9117C43.1384 54.9117 42.8545 55.0722 42.6018 55.3226L42.6524 55.4243C42.7262 55.3695 42.8468 55.2874 42.8779 55.2874C42.9012 55.2874 42.9012 55.3226 42.8817 55.4126L42.6679 56.3555C42.5979 56.6568 42.6757 56.7351 42.7768 56.7351C42.8973 56.7351 43.1695 56.6099 43.4222 56.3203L43.36 56.2264H43.36ZM45.2069 56.2538C45.133 56.3399 45.063 56.3907 45.0241 56.3907C44.9814 56.3907 44.9386 56.3203 44.8647 56.1325C44.7753 55.9251 44.6898 55.6356 44.6431 55.4478C44.7248 55.3421 44.8608 55.2521 44.9814 55.2521C45.0553 55.2521 45.1136 55.2717 45.1563 55.2952C45.1836 55.303 45.2108 55.2913 45.238 55.2678C45.2846 55.2169 45.3313 55.123 45.3313 55.0565C45.3313 54.9743 45.2536 54.9117 45.1408 54.9117C44.9386 54.9117 44.752 55.1308 44.5537 55.3382C44.4409 55.4478 44.3515 55.5613 44.2465 55.6943H44.2387C44.3554 55.1622 44.4604 54.6652 44.5809 54.1135C44.6042 54.0118 44.6042 53.9766 44.5537 53.9766C44.4953 53.9766 44.2349 54.0823 43.8771 54.1135L43.8499 54.2387L43.9471 54.2427C44.0949 54.2544 44.1065 54.2779 44.0716 54.4579C43.9238 55.2404 43.7722 55.9564 43.605 56.7077L43.6322 56.7351C43.7527 56.7038 43.9044 56.6725 44.056 56.649C44.0871 56.4768 44.1299 56.2577 44.1882 55.9525C44.2154 55.8977 44.2504 55.8508 44.3087 55.7843C44.3826 56.0425 44.4526 56.2851 44.5226 56.4612C44.5926 56.6451 44.6781 56.7351 44.787 56.7351C44.8881 56.7351 45.0708 56.6607 45.2769 56.3516L45.2069 56.2538H45.2069ZM46.6611 56.1599C46.4822 56.336 46.2761 56.4338 46.1323 56.4338C45.9534 56.4338 45.8912 56.2616 45.8912 56.0425C45.8912 56.0112 45.8912 55.976 45.8951 55.9447C46.2839 55.839 46.8321 55.6356 46.8321 55.2482C46.8321 55.0722 46.7194 54.9117 46.4628 54.9117C46.2722 54.9117 46.0117 55.0448 45.8679 55.1622C45.6035 55.3813 45.4246 55.7843 45.4246 56.1638C45.4246 56.6099 45.6424 56.7351 45.8718 56.7351C46.0973 56.7351 46.385 56.6373 46.7311 56.2616L46.6611 56.1599H46.6611ZM46.2839 55.0917C46.3422 55.0917 46.4239 55.1465 46.4239 55.3069C46.4239 55.5104 46.2917 55.6747 45.9106 55.7999C45.9612 55.4008 46.105 55.1974 46.1672 55.1426C46.21 55.1074 46.2489 55.0917 46.2839 55.0917ZM50.4325 54.1761H49.3905L49.3594 54.2974C49.616 54.3209 49.6355 54.36 49.5849 54.6418L49.4644 55.2639H48.6129L48.7296 54.6418C48.784 54.36 48.8073 54.3209 49.0406 54.2974L49.0678 54.1761H48.0219L47.9947 54.2974C48.2707 54.3209 48.3096 54.36 48.2552 54.6418L47.948 56.2147C47.8897 56.5081 47.8703 56.5395 47.6097 56.5668L47.5825 56.6881H48.6284L48.6518 56.5668C48.3952 56.5434 48.3718 56.5003 48.4263 56.2147L48.5701 55.4517H49.4255L49.2855 56.2147C49.2311 56.5081 49.2 56.5434 48.9473 56.5668L48.9201 56.6881H49.9738L50.0049 56.5668C49.7327 56.5395 49.7055 56.5081 49.7599 56.2147L50.0632 54.6418C50.1177 54.3561 50.1371 54.3209 50.4054 54.2974L50.4326 54.1761H50.4325ZM50.8369 56.7351C51.0702 56.7351 51.2996 56.6255 51.4629 56.4886C51.7312 56.2577 51.8711 55.8743 51.8711 55.526C51.8711 55.1543 51.7001 54.9117 51.3462 54.9117C51.1868 54.9117 50.9963 54.9744 50.8408 55.0683C50.553 55.2404 50.3003 55.6082 50.3003 56.113C50.3003 56.4025 50.4092 56.7351 50.8369 56.7351L50.8369 56.7351ZM50.9885 56.5629C50.8836 56.5629 50.7825 56.4299 50.7825 56.1599C50.7825 55.5026 50.9924 55.1543 51.113 55.0995C51.1441 55.0878 51.1674 55.08 51.1946 55.08C51.3152 55.08 51.3929 55.2052 51.3929 55.4869C51.3929 56.0778 51.214 56.4886 51.0741 56.5434C51.0391 56.5551 51.0235 56.5629 50.9885 56.5629ZM54.7212 56.2225C54.6356 56.3008 54.5268 56.3751 54.4956 56.3751C54.4684 56.3751 54.4645 56.3438 54.484 56.246L54.6551 55.4947C54.7717 54.9704 54.6395 54.9117 54.5423 54.9117C54.4645 54.9117 54.3751 54.9469 54.2779 55.0056C54.1146 55.1073 53.9241 55.2756 53.7102 55.5573H53.7025L53.7219 55.4595C53.823 54.9704 53.6869 54.9117 53.5936 54.9117C53.5158 54.9117 53.4342 54.9469 53.337 55.0017C53.197 55.0878 52.9559 55.3108 52.7693 55.5651H52.7615L52.8082 55.3578C52.8743 55.0369 52.851 54.9117 52.7304 54.9117C52.5944 54.9117 52.3572 55.0565 52.1083 55.3147L52.1589 55.4243C52.2405 55.3499 52.3494 55.2756 52.3844 55.2756C52.4038 55.2912 52.4155 55.3186 52.3883 55.4438C52.2911 55.8821 52.1977 56.2812 52.0966 56.6881L52.1239 56.7194C52.2444 56.6881 52.4077 56.6568 52.5515 56.6451C52.606 56.3907 52.6682 56.0699 52.7226 55.8704C52.8276 55.6473 53.1698 55.2443 53.2903 55.2443C53.337 55.2443 53.3447 55.3108 53.2981 55.5299C53.2125 55.9016 53.1231 56.3007 53.0259 56.6881L53.0531 56.7194C53.1737 56.6881 53.3369 56.6568 53.4886 56.6451C53.543 56.3868 53.6052 56.066 53.6596 55.8547C53.7685 55.6238 54.1146 55.2482 54.2195 55.2482C54.2584 55.2482 54.2662 55.3147 54.2351 55.4438L54.029 56.3438C53.9551 56.6489 54.0212 56.735 54.134 56.735C54.2584 56.735 54.5267 56.6137 54.7755 56.332L54.7211 56.2225L54.7212 56.2225ZM56.2298 56.1599C56.0509 56.336 55.8448 56.4338 55.701 56.4338C55.5221 56.4338 55.4599 56.2616 55.4599 56.0425C55.4599 56.0112 55.4599 55.976 55.4638 55.9447C55.8526 55.839 56.4008 55.6356 56.4008 55.2482C56.4008 55.0722 56.288 54.9117 56.0315 54.9117C55.8409 54.9117 55.5804 55.0448 55.4366 55.1622C55.1722 55.3813 54.9933 55.7843 54.9933 56.1638C54.9933 56.6099 55.2111 56.7351 55.4405 56.7351C55.666 56.7351 55.9537 56.6373 56.2998 56.2616L56.2298 56.1599H56.2298ZM55.8526 55.0917C55.9109 55.0917 55.9926 55.1465 55.9926 55.3069C55.9926 55.5104 55.8604 55.6747 55.4793 55.7999C55.5299 55.4008 55.6737 55.1974 55.7359 55.1426C55.7787 55.1074 55.8176 55.0917 55.8526 55.0917ZM56.7585 56.7351C56.9063 56.7351 57.0501 56.6138 57.0501 56.4142C57.0501 56.2538 56.9452 56.1325 56.8013 56.1325C56.6341 56.1325 56.5136 56.2734 56.5136 56.4612C56.5136 56.6138 56.6146 56.7351 56.7585 56.7351L56.7585 56.7351ZM57.6878 56.7351C57.8356 56.7351 57.9794 56.6138 57.9794 56.4142C57.9794 56.2538 57.8744 56.1325 57.7306 56.1325C57.5634 56.1325 57.4428 56.2734 57.4428 56.4612C57.4428 56.6138 57.5439 56.7351 57.6878 56.7351L57.6878 56.7351ZM58.6171 56.7351C58.7648 56.7351 58.9087 56.6138 58.9087 56.4142C58.9087 56.2538 58.8037 56.1325 58.6598 56.1325C58.4926 56.1325 58.3721 56.2734 58.3721 56.4612C58.3721 56.6138 58.4732 56.7351 58.6171 56.7351L58.6171 56.7351Z" fill="white"/>
</g>
<defs>
<clipPath id="clip0_912_2824">
<rect width="72" height="57.6" fill="white"/>
</clipPath>
</defs>
</svg>
