<svg width="24" height="25" viewBox="0 0 24 25" fill="none" xmlns="http://www.w3.org/2000/svg">
<mask id="path-1-outside-1_1355_4611" maskUnits="userSpaceOnUse" x="0" y="0.5" width="24" height="24" fill="black">
<rect fill="white" y="0.5" width="24" height="24"/>
<path d="M12 1.5C18.0751 1.5 23 6.42487 23 12.5C23 18.5751 18.0751 23.5 12 23.5C5.92487 23.5 1 18.5751 1 12.5C1 6.42487 5.92487 1.5 12 1.5ZM12 3.15C6.83614 3.15 2.65 7.33614 2.65 12.5C2.65 17.6639 6.83614 21.85 12 21.85C17.1639 21.85 21.35 17.6639 21.35 12.5C21.35 7.33614 17.1639 3.15 12 3.15ZM10.625 14.0833L15.5416 9.16664C15.8638 8.84445 16.3862 8.84445 16.7084 9.16664C17.0013 9.45953 17.0279 9.91786 16.7882 10.2408L16.7084 10.3334L11.2084 15.8334C10.9155 16.1263 10.4571 16.1529 10.1342 15.9132L10.0416 15.8334L7.29164 13.0834C6.96945 12.7612 6.96945 12.2388 7.29164 11.9166C7.58453 11.6237 8.04286 11.5971 8.36583 11.8368L8.45836 11.9166L10.625 14.0833L15.5416 9.16664L10.625 14.0833Z"/>
</mask>
<path d="M12 1.5C18.0751 1.5 23 6.42487 23 12.5C23 18.5751 18.0751 23.5 12 23.5C5.92487 23.5 1 18.5751 1 12.5C1 6.42487 5.92487 1.5 12 1.5ZM12 3.15C6.83614 3.15 2.65 7.33614 2.65 12.5C2.65 17.6639 6.83614 21.85 12 21.85C17.1639 21.85 21.35 17.6639 21.35 12.5C21.35 7.33614 17.1639 3.15 12 3.15ZM10.625 14.0833L15.5416 9.16664C15.8638 8.84445 16.3862 8.84445 16.7084 9.16664C17.0013 9.45953 17.0279 9.91786 16.7882 10.2408L16.7084 10.3334L11.2084 15.8334C10.9155 16.1263 10.4571 16.1529 10.1342 15.9132L10.0416 15.8334L7.29164 13.0834C6.96945 12.7612 6.96945 12.2388 7.29164 11.9166C7.58453 11.6237 8.04286 11.5971 8.36583 11.8368L8.45836 11.9166L10.625 14.0833L15.5416 9.16664L10.625 14.0833Z" fill="#FF9500"/>
<path d="M10.625 14.0833L10.2714 14.4368L10.625 14.7904L10.9786 14.4368L10.625 14.0833ZM15.5416 9.16664L15.8952 9.52019L15.5416 9.16664ZM16.7084 9.16664L17.0619 8.81308L16.7084 9.16664ZM16.7882 10.2408L17.1667 10.5676L17.1788 10.5536L17.1898 10.5388L16.7882 10.2408ZM16.7084 10.3334L17.0619 10.6869L17.0749 10.674L17.0868 10.6601L16.7084 10.3334ZM11.2084 15.8334L11.5619 16.1869L11.2084 15.8334ZM10.1342 15.9132L9.80743 16.2917L9.82141 16.3038L9.83623 16.3148L10.1342 15.9132ZM10.0416 15.8334L9.68808 16.1869L9.70104 16.1999L9.7149 16.2118L10.0416 15.8334ZM7.29164 13.0834L6.93808 13.4369L7.29164 13.0834ZM7.29164 11.9166L6.93808 11.5631V11.5631L7.29164 11.9166ZM8.36583 11.8368L8.69257 11.4583L8.67859 11.4462L8.66377 11.4352L8.36583 11.8368ZM8.45836 11.9166L8.81192 11.5631L8.79896 11.5501L8.7851 11.5382L8.45836 11.9166ZM12 2C17.799 2 22.5 6.70101 22.5 12.5H23.5C23.5 6.14873 18.3513 1 12 1V2ZM22.5 12.5C22.5 18.299 17.799 23 12 23V24C18.3513 24 23.5 18.8513 23.5 12.5H22.5ZM12 23C6.20101 23 1.5 18.299 1.5 12.5H0.5C0.5 18.8513 5.64873 24 12 24V23ZM1.5 12.5C1.5 6.70101 6.20101 2 12 2V1C5.64873 1 0.5 6.14873 0.5 12.5H1.5ZM12 2.65C6.56 2.65 2.15 7.06 2.15 12.5H3.15C3.15 7.61228 7.11228 3.65 12 3.65V2.65ZM2.15 12.5C2.15 17.94 6.56 22.35 12 22.35V21.35C7.11228 21.35 3.15 17.3877 3.15 12.5H2.15ZM12 22.35C17.44 22.35 21.85 17.94 21.85 12.5H20.85C20.85 17.3877 16.8877 21.35 12 21.35V22.35ZM21.85 12.5C21.85 7.06 17.44 2.65 12 2.65V3.65C16.8877 3.65 20.85 7.61228 20.85 12.5H21.85ZM10.9786 14.4368L15.8952 9.52019L15.1881 8.81308L10.2714 13.7297L10.9786 14.4368ZM15.8952 9.52019C16.0221 9.39327 16.2279 9.39327 16.3548 9.52019L17.0619 8.81308C16.5445 8.29564 15.7055 8.29564 15.1881 8.81308L15.8952 9.52019ZM16.3548 9.52019C16.4699 9.63526 16.4808 9.81603 16.3867 9.9429L17.1898 10.5388C17.5749 10.0197 17.5326 9.2838 17.0619 8.81308L16.3548 9.52019ZM16.4098 9.9141L16.3299 10.0066L17.0868 10.6601L17.1667 10.5676L16.4098 9.9141ZM16.3548 9.97981L10.8548 15.4798L11.5619 16.1869L17.0619 10.6869L16.3548 9.97981ZM10.8548 15.4798C10.7397 15.5949 10.559 15.6058 10.4321 15.5117L9.83623 16.3148C10.3553 16.6999 11.0912 16.6576 11.5619 16.1869L10.8548 15.4798ZM10.4609 15.5348L10.3684 15.4549L9.7149 16.2118L9.80743 16.2917L10.4609 15.5348ZM10.3952 15.4798L7.64519 12.7298L6.93808 13.4369L9.68808 16.1869L10.3952 15.4798ZM7.64519 12.7298C7.51827 12.6029 7.51827 12.3971 7.64519 12.2702L6.93808 11.5631C6.42064 12.0805 6.42064 12.9195 6.93808 13.4369L7.64519 12.7298ZM7.64519 12.2702C7.76026 12.1551 7.94103 12.1442 8.0679 12.2383L8.66377 11.4352C8.14469 11.0501 7.4088 11.0924 6.93808 11.5631L7.64519 12.2702ZM8.0391 12.2152L8.13163 12.2951L8.7851 11.5382L8.69257 11.4583L8.0391 12.2152ZM8.10481 12.2702L10.2714 14.4368L10.9786 13.7297L8.81192 11.5631L8.10481 12.2702ZM10.9786 14.4368L15.8952 9.52019L15.1881 8.81308L10.2714 13.7297L10.9786 14.4368ZM15.1881 8.81308L10.2714 13.7297L10.9786 14.4368L15.8952 9.52019L15.1881 8.81308Z" fill="#FF9500" mask="url(#path-1-outside-1_1355_4611)"/>
</svg>
