<svg width="64" height="65" viewBox="0 0 64 65" fill="none" xmlns="http://www.w3.org/2000/svg">
<path d="M0 32.6143C0 14.9411 14.3269 0.614258 32 0.614258V0.614258C49.6731 0.614258 64 14.9411 64 32.6143V32.6143C64 50.2874 49.6731 64.6143 32 64.6143V64.6143C14.3269 64.6143 0 50.2874 0 32.6143V32.6143Z" fill="#FF9500"/>
<path d="M30.9407 15.7816C30.4498 15.8462 29.6697 16.0721 29.277 16.2712C28.797 16.508 28.4916 16.777 28.3443 17.0891C28.2188 17.3581 28.2134 17.4011 28.2134 18.7947V20.2259L27.7716 20.3442C27.5261 20.4088 27.1934 20.5218 27.0243 20.5971C26.8606 20.6671 26.7079 20.7263 26.6861 20.7263C26.637 20.7263 26.6425 20.7316 26.3806 19.7309C26.1679 18.913 26.0643 18.6763 25.8025 18.3857C25.4806 18.0199 25.2734 17.9553 24.5315 17.9661C24.1715 17.9715 23.5443 18.0145 23.1406 18.0629C21.9024 18.2136 21.237 18.375 20.9097 18.6171C20.5879 18.8538 20.3588 19.5372 20.4406 20.016L20.4733 20.2259L21.0133 20.2528C21.657 20.2851 21.9952 20.4196 22.3879 20.8123C22.7479 21.1621 22.9443 21.571 23.1679 22.3996C23.277 22.7977 23.4243 23.3089 23.5006 23.5349L23.637 23.9492L23.4897 24.1375C23.4024 24.2397 23.3315 24.3204 23.3206 24.315C23.2879 24.2774 22.8952 22.9968 22.7588 22.4641C22.5024 21.4688 22.1424 20.9576 21.5588 20.7532C21.2806 20.6563 20.0642 20.6455 18.6406 20.7263C16.606 20.8446 16.0988 21.0222 15.8315 21.7324C15.7224 22.0176 15.6733 22.8569 15.7551 23.0614C15.7824 23.1313 15.886 23.1475 16.3169 23.1475C17.206 23.1528 17.6315 23.3089 18.1551 23.82C18.6297 24.2827 18.8424 24.7293 19.137 25.8861C19.2733 26.408 19.4915 27.2151 19.6279 27.6832C19.7588 28.1459 19.8679 28.5548 19.8679 28.5871C19.8679 28.6624 19.6551 28.9584 19.6006 28.9584C19.5733 28.9584 19.5297 28.8669 19.497 28.7539C19.4697 28.6463 19.306 28.0652 19.137 27.4626C18.9679 26.86 18.7606 26.0798 18.6679 25.7301C18.5806 25.375 18.4388 24.9499 18.3569 24.7777C18.1388 24.3365 17.7242 23.9115 17.3315 23.7286L17.0042 23.5779H15.586C13.486 23.5779 11.926 23.7124 11.1242 23.9545C10.7096 24.0837 10.3933 24.3742 10.1805 24.8423C10.0496 25.1221 10.0224 25.2512 10.006 25.7839C9.98417 26.4349 10.006 26.5802 10.3496 27.8016C10.666 28.9261 11.2605 31.7508 12.0624 35.9584C12.2969 37.1797 12.4769 37.9868 12.5315 38.0729C12.6678 38.2773 13.3224 38.6863 13.8078 38.8746C14.2606 39.0467 15.3842 39.3427 15.5915 39.3427H15.7224V40.8492C15.7224 41.6778 15.706 42.3557 15.6842 42.3557C15.6569 42.3557 15.0515 42.1244 14.3315 41.8392C13.5951 41.5487 12.9406 41.3227 12.8369 41.3227C12.5751 41.3227 12.3678 41.5379 12.3842 41.7908C12.4005 42.0329 12.406 42.2643 12.3896 42.4633C12.3624 42.7808 12.646 43.0552 13.0006 43.0552C13.1369 43.0552 13.2242 43.0068 13.3878 42.84L13.5951 42.6194L14.3097 42.8992C14.7624 43.0767 14.9969 43.1951 14.9533 43.222C14.9097 43.2435 14.3751 43.4587 13.7587 43.7009C13.1424 43.943 12.5805 44.1959 12.5096 44.2658C12.4278 44.3411 12.3842 44.4487 12.3842 44.5456C12.3896 44.6263 12.3896 44.8469 12.3896 45.0298C12.3896 45.4065 12.4769 45.584 12.7005 45.6809C13.1478 45.8853 13.5733 45.5679 13.5296 45.0675L13.5133 44.8684L14.9315 44.3088C15.7115 44.0022 16.3769 43.7547 16.4151 43.7547C16.4588 43.7547 17.1133 44.0022 17.8769 44.3035L19.2679 44.8523V45.0567C19.2679 45.3419 19.4915 45.5786 19.797 45.6217C20.0042 45.6486 20.0479 45.6324 20.2115 45.471C20.3751 45.3042 20.397 45.2504 20.4297 44.8899C20.4842 44.2497 20.517 44.2819 19.0497 43.7009C18.3569 43.4264 17.7951 43.1951 17.806 43.1897C17.8169 43.1789 18.1769 43.0337 18.6079 42.8615C19.077 42.6786 19.4042 42.5763 19.426 42.6086C19.5406 42.7862 19.8897 42.8346 20.1297 42.7108C20.3315 42.6086 20.397 42.4526 20.4351 42.0221C20.4679 41.6939 20.457 41.6509 20.3315 41.5056C20.0915 41.2258 20.0424 41.2312 18.5533 41.8177C17.8006 42.1136 17.1624 42.3557 17.1351 42.3557C17.1024 42.3557 17.0915 41.78 17.0969 40.9407L17.1133 39.531L17.2769 39.5471C17.3697 39.5579 17.7297 39.687 18.0842 39.8323C19.1479 40.2789 20.7461 40.7685 22.0988 41.0644C22.4861 41.1505 22.677 41.2205 22.8679 41.3603C23.2715 41.6509 23.6261 42.0598 23.8115 42.4526L23.9861 42.8131L24.0024 45.3527L24.0188 47.8922L24.2424 48.0913C25.3934 49.1136 29.4952 49.6839 34.0498 49.458C37.0662 49.3073 39.1934 48.8231 40.0825 48.0859L40.2953 47.9084L40.3225 45.3096L40.3498 42.7055L40.5135 42.388C40.6716 42.0759 41.1516 41.5379 41.4135 41.3711C41.4898 41.3281 41.9535 41.1989 42.4498 41.0913C43.9062 40.7739 44.9426 40.478 45.8971 40.1175C46.1589 40.0152 46.3989 39.9345 46.4317 39.9345C46.4644 39.9345 46.4862 40.3596 46.4862 41.1451C46.4862 41.8123 46.4699 42.3557 46.448 42.3557C46.4262 42.3557 45.788 42.1136 45.0298 41.8177C43.6771 41.2796 43.6553 41.2743 43.4644 41.355C43.2298 41.4518 43.1371 41.6132 43.1807 41.8661C43.2189 42.0975 43.2189 42.0975 43.1807 42.4203C43.148 42.6624 43.1589 42.6893 43.3389 42.8669C43.4753 43.0014 43.5789 43.0552 43.7044 43.0552C43.8626 43.0552 44.1953 42.9099 44.1953 42.84C44.1953 42.8238 44.2335 42.77 44.2771 42.7108C44.3535 42.614 44.3808 42.6248 45.068 42.8938C45.4608 43.0498 45.7662 43.1951 45.7389 43.2166C45.7171 43.2381 45.1826 43.4533 44.5498 43.7009C43.8407 43.9753 43.3607 44.1905 43.2844 44.2712C43.1862 44.3788 43.1698 44.4595 43.1644 44.8415C43.1644 45.3688 43.2298 45.5625 43.4371 45.6647C43.8844 45.8961 44.3262 45.6109 44.2989 45.1159L44.2826 44.8738L45.6953 44.3142C46.4753 44.0075 47.1462 43.7547 47.1844 43.7547C47.2226 43.7547 47.8826 43.9968 48.6462 44.2981C49.999 44.8307 50.0317 44.8469 50.0317 44.9922C50.0317 45.2397 50.1244 45.4172 50.3153 45.5302C50.5281 45.6593 50.6917 45.6647 50.9044 45.5571C51.1281 45.4441 51.1772 45.3258 51.2099 44.8415C51.2317 44.4864 51.2208 44.3949 51.139 44.2981C51.0735 44.2228 50.599 44.0022 49.8626 43.7116C49.2135 43.4533 48.6735 43.2274 48.6626 43.2005C48.6517 43.1789 48.979 43.0283 49.3935 42.8615L50.1462 42.5656L50.2881 42.6786C50.4517 42.8077 50.6862 42.8185 50.9044 42.7055C51.1226 42.5925 51.1881 42.4526 51.2099 42.0221C51.2372 41.6025 51.1608 41.4303 50.899 41.3388C50.7081 41.2743 50.7681 41.2581 49.1481 41.893C48.499 42.1459 47.9535 42.3557 47.9371 42.3557C47.9208 42.3557 47.9044 41.6886 47.9044 40.8761V39.3965H48.0299C48.2535 39.3965 49.4371 39.1328 49.8572 38.9876C50.599 38.7347 51.3463 38.2881 51.499 38.0029C51.5317 37.9491 51.679 37.2389 51.8317 36.4318C52.5463 32.6278 53.3426 28.8239 53.6863 27.6079C53.9699 26.6017 54.0572 25.9238 53.9644 25.418C53.8554 24.8046 53.5444 24.2666 53.1954 24.089C52.9063 23.9384 52.2408 23.7931 51.4553 23.7017C50.8553 23.6371 50.1844 23.6102 48.7499 23.6102C46.8408 23.6048 46.8408 23.6048 46.5953 23.7339C46.2462 23.9169 45.8317 24.3634 45.6299 24.767C45.5317 24.9607 45.3735 25.4611 45.2644 25.8969C45.0844 26.6394 44.4244 29.0229 44.3862 29.0552C44.3753 29.066 44.3044 28.9853 44.2226 28.8777L44.0698 28.6893L44.4298 27.4088C44.6317 26.7093 44.8553 25.8754 44.9262 25.5579C45.008 25.2297 45.1498 24.81 45.2644 24.5894C45.5262 24.0729 46.0171 23.5725 46.4808 23.3519C46.808 23.1905 46.879 23.1744 47.528 23.1582L48.2262 23.1367L48.2644 22.7816C48.3462 22.0014 48.068 21.302 47.5771 21.0652C47.4408 21.0007 47.0971 20.9092 46.8135 20.8608C46.1317 20.7532 44.1844 20.6563 43.2353 20.6832C42.3789 20.7047 42.2044 20.7639 41.8444 21.1405C41.5662 21.4203 41.4244 21.727 41.2444 22.4157C41.1571 22.7385 40.988 23.3143 40.8625 23.6963L40.6444 24.3904L40.4916 24.202L40.3335 24.0083L40.5244 23.4057C40.6225 23.0721 40.7698 22.561 40.8462 22.2651C41.0916 21.3073 41.4735 20.7532 42.1007 20.4518C42.4062 20.3012 42.5262 20.2743 43.0007 20.2528L43.5517 20.2259L43.5298 19.7362C43.5026 19.2143 43.4262 18.9937 43.1644 18.7193C43.088 18.6333 42.9571 18.531 42.8753 18.488C42.488 18.2889 41.0589 18.0575 39.5807 17.9499C38.9371 17.9069 38.5716 18.0037 38.2607 18.305C37.9607 18.5902 37.8025 18.913 37.628 19.6233C37.5462 19.9461 37.4425 20.3389 37.3989 20.4895L37.3171 20.7693L36.9407 20.6133C36.7334 20.5326 36.368 20.4088 36.128 20.3496L35.6862 20.2312V18.7731C35.6862 17.428 35.6752 17.2989 35.5771 17.0944C35.0971 16.1206 32.9807 15.5233 30.9407 15.7816ZM33.2861 21.0491C35.1407 21.1567 36.3843 21.4419 37.1207 21.9261C37.4098 22.1144 38.0753 22.9322 46.028 32.9184C46.7862 33.8707 47.5062 34.7585 47.6262 34.8984C47.7517 35.0383 47.8662 35.2105 47.8826 35.275C47.9917 35.7216 47.048 36.4103 45.5589 36.9645C43.2135 37.8415 39.8207 38.4926 35.8498 38.8369C34.4861 38.9499 30.9243 38.9983 29.5607 38.9176C25.8461 38.6916 22.5679 38.1159 19.7588 37.1905C17.6642 36.5018 16.2133 35.6571 16.2133 35.1244C16.2133 35.0598 17.026 33.9945 18.1933 32.531C24.6897 24.385 26.1952 22.5072 26.4243 22.2597C26.9861 21.6463 28.1752 21.2535 29.9043 21.1029C31.2189 20.9899 32.0207 20.9791 33.2861 21.0491Z" fill="white"/>
</svg>
