<svg width="15" height="15" viewBox="0 0 15 15" fill="none" xmlns="http://www.w3.org/2000/svg">
<path d="M9.03254 1.60384L13.5109 6.08218C14.357 6.92832 14.357 8.30018 13.5109 9.14631L9.03254 13.6247C8.18641 14.4708 6.81455 14.4708 5.96841 13.6247L1.49007 9.14631C0.643935 8.30018 0.643935 6.92832 1.49007 6.08218L5.96841 1.60384C6.81455 0.757704 8.18641 0.757704 9.03254 1.60384ZM6.67552 2.31095L2.19718 6.78929C1.74157 7.2449 1.74157 7.98359 2.19718 8.43921L6.67552 12.9175C7.13113 13.3732 7.86982 13.3732 8.32544 12.9175L12.8038 8.43921C13.2594 7.98359 13.2594 7.2449 12.8038 6.78929L8.32544 2.31095C7.86982 1.85534 7.13113 1.85534 6.67552 2.31095ZM7.80562 4.48388L7.85403 4.4278C8.03154 4.25029 8.30932 4.23415 8.50506 4.37939L8.56114 4.4278L9.89447 5.76113C10.072 5.93865 10.0881 6.21642 9.94288 6.41216L9.89447 6.46824L8.56114 7.80157C8.36588 7.99684 8.04929 7.99684 7.85403 7.80157C7.67652 7.62406 7.66038 7.34629 7.80562 7.15055L7.85403 7.09447L8.33347 6.61391L7.33381 6.61425C6.90234 6.61425 6.54746 6.94216 6.50478 7.36238L6.50048 7.44758V9.61425C6.50048 9.89039 6.27662 10.1142 6.00048 10.1142C5.74735 10.1142 5.53815 9.92615 5.50504 9.68209L5.50048 9.61425V7.44758C5.50048 6.47256 6.26161 5.67531 7.22213 5.61759L7.33381 5.61425L8.3328 5.61391L7.85403 5.13491C7.67652 4.9574 7.66038 4.67962 7.80562 4.48388Z" fill="black"/>
</svg>
