<svg width="32" height="32" viewBox="0 0 32 32" fill="none" xmlns="http://www.w3.org/2000/svg">
<rect x="0.724609" y="1.19141" width="30" height="30" rx="15" stroke="#265205"/>
<path d="M15.7246 8.69141C11.5896 8.69141 8.22461 12.0564 8.22461 16.1914C8.22461 20.3264 11.5896 23.6914 15.7246 23.6914C19.8596 23.6914 23.2246 20.3264 23.2246 16.1914C23.2246 12.0564 19.8596 8.69141 15.7246 8.69141ZM15.7246 9.94141C19.184 9.94141 21.9746 12.732 21.9746 16.1914C21.9761 17.6876 21.4396 19.1345 20.4629 20.268C19.4863 21.4015 18.1346 22.1461 16.6546 22.3658V18.0139H18.4346L18.714 16.2058H16.6546V15.2183C16.6546 14.4683 16.9015 13.8014 17.6034 13.8014H18.7315V12.2239C18.5334 12.197 18.114 12.1389 17.3215 12.1389C15.6665 12.1389 14.6965 13.0127 14.6965 15.0039V16.2058H12.9952V18.0139H14.6965V22.3502C13.237 22.1099 11.9104 21.3586 10.9538 20.2304C9.9972 19.1022 9.47291 17.6706 9.47461 16.1914C9.47461 12.732 12.2652 9.94141 15.7246 9.94141Z" fill="#265205"/>
</svg>
