<svg width="31" height="32" viewBox="0 0 31 32" fill="none" xmlns="http://www.w3.org/2000/svg">
<rect y="0.307129" width="31" height="31" rx="15.5" fill="#FF9500"/>
<path d="M15.5 8.30713C11.365 8.30713 8 11.6721 8 15.8071C8 19.9421 11.365 23.3071 15.5 23.3071C19.635 23.3071 23 19.9421 23 15.8071C23 11.6721 19.635 8.30713 15.5 8.30713ZM15.5 9.55713C18.9594 9.55713 21.75 12.3478 21.75 15.8071C21.7515 17.3034 21.215 18.7502 20.2383 19.8838C19.2617 21.0173 17.91 21.7618 16.43 21.9815V17.6296H18.21L18.4894 15.8215H16.43V14.834C16.43 14.084 16.6769 13.4171 17.3788 13.4171H18.5069V11.8396C18.3088 11.8128 17.8894 11.7546 17.0969 11.7546C15.4419 11.7546 14.4719 12.6284 14.4719 14.6196V15.8215H12.7706V17.6296H14.4719V21.9659C13.0123 21.7257 11.6858 20.9743 10.7292 19.8461C9.77259 18.7179 9.24831 17.2863 9.25 15.8071C9.25 12.3478 12.0406 9.55713 15.5 9.55713Z" fill="white"/>
</svg>
