<svg width="32" height="32" viewBox="0 0 32 32" fill="none" xmlns="http://www.w3.org/2000/svg">
<rect x="1.11243" y="1.02148" width="30" height="30" rx="15" stroke="#FF9500"/>
<path d="M16.1124 8.52148C11.9774 8.52148 8.61243 11.8865 8.61243 16.0215C8.61243 20.1565 11.9774 23.5215 16.1124 23.5215C20.2474 23.5215 23.6124 20.1565 23.6124 16.0215C23.6124 11.8865 20.2474 8.52148 16.1124 8.52148ZM16.1124 9.77148C19.5718 9.77148 22.3624 12.5621 22.3624 16.0215C22.3639 17.5177 21.8274 18.9646 20.8508 20.0981C19.8741 21.2316 18.5224 21.9762 17.0424 22.1959V17.844H18.8224L19.1018 16.0359H17.0424V15.0484C17.0424 14.2984 17.2893 13.6315 17.9912 13.6315H19.1193V12.054C18.9212 12.0271 18.5018 11.969 17.7093 11.969C16.0543 11.969 15.0843 12.8427 15.0843 14.834V16.0359H13.3831V17.844H15.0843V22.1802C13.6248 21.94 12.2982 21.1887 11.3416 20.0605C10.385 18.9322 9.86073 17.5007 9.86243 16.0215C9.86243 12.5621 12.6531 9.77148 16.1124 9.77148Z" fill="#FF9500"/>
</svg>
