<svg width="32" height="32" viewBox="0 0 32 32" fill="none" xmlns="http://www.w3.org/2000/svg">
<rect width="32" height="31.0275" rx="15.5138" transform="matrix(1 0 0 -1 0 31.5137)" fill="#265205"/>
<path d="M8 8.5124C8 8.52768 8.73376 9.51622 9.62548 10.7137C10.5223 11.9111 11.9032 13.7608 12.6981 14.8258L14.1452 16.7621L12.2599 18.8003C11.2255 19.9213 9.84459 21.4092 9.20255 22.1022C8.55541 22.8003 8.02038 23.4016 8.01019 23.4423C7.9949 23.5035 8.12229 23.5137 8.72357 23.5137H9.45223L11.1338 21.6946C14.3796 18.1837 14.8382 17.6946 14.879 17.7404C14.9045 17.771 17.0854 20.6907 18.9503 23.1927L19.1847 23.5086L21.5949 23.5137C23.2204 23.5137 24 23.4984 24 23.4627C24 23.4321 23.6637 22.9583 23.251 22.4028C20.7949 19.106 17.8038 15.106 17.6815 14.9532L17.5439 14.7748L17.7529 14.5404C17.9516 14.3162 19.7045 12.4207 22.1605 9.7659C22.7669 9.11367 23.2713 8.55826 23.2764 8.53278C23.2866 8.50221 23.0064 8.48182 22.5376 8.48692H21.7834L21.3707 8.94042C21.1414 9.18501 20.0357 10.3876 18.9045 11.6105L16.8561 13.827L16.6675 13.5876C16.5656 13.4551 15.949 12.6347 15.3019 11.7684C14.6548 10.8971 13.8395 9.81176 13.493 9.34807L12.8662 8.5073L10.4357 8.49202C9.09554 8.48692 8 8.49202 8 8.5124ZM12.8968 10.4589C13.2484 10.9277 14.3541 12.4003 15.3478 13.7302C20.1019 20.1048 21.7223 22.2704 21.7682 22.3264C21.8089 22.3774 21.6102 22.3927 20.8 22.3927H19.7809L17.6968 19.6054C12.8815 13.1595 10.4611 9.92386 10.3541 9.7659L10.2369 9.60284H11.2459H12.2548L12.8968 10.4589Z" fill="white"/>
</svg>
