<svg width="33" height="32" viewBox="0 0 33 32" fill="none" xmlns="http://www.w3.org/2000/svg">
<rect x="0.775391" y="0.193359" width="31.61" height="31.6144" rx="15.805" fill="#265205"/>
<path d="M11.3029 10.3405C13.6125 10.2255 15.4087 10.168 16.6921 10.168C17.9754 10.168 19.7725 10.2255 22.0833 10.3409C22.688 10.3711 23.2612 10.6197 23.6965 11.0405C24.1317 11.4614 24.3995 12.0259 24.45 12.6292C24.5558 13.8934 24.6087 15.0067 24.6087 15.9696C24.6087 16.9442 24.5546 18.073 24.4462 19.3563C24.3959 19.9527 24.1333 20.5113 23.7061 20.9305C23.279 21.3497 22.7156 21.6018 22.1183 21.6409C20.1429 21.7701 18.3341 21.8346 16.6921 21.8346C15.0504 21.8346 13.2421 21.7701 11.2679 21.6409C10.6708 21.6018 10.1076 21.35 9.68043 20.931C9.25328 20.512 8.99055 19.9537 8.93997 19.3576C8.83039 18.0646 8.77539 16.9351 8.77539 15.9696C8.77539 15.0155 8.82914 13.9017 8.93581 12.628C8.98651 12.0248 9.25434 11.4605 9.68958 11.0398C10.1248 10.6191 10.6979 10.3706 11.3025 10.3405H11.3029Z" fill="white" stroke="#265205" stroke-width="1.66667" stroke-linejoin="round"/>
<path d="M15.4434 14.1718V17.8368C15.4433 17.9014 15.4608 17.9647 15.4939 18.0201C15.527 18.0755 15.5745 18.1209 15.6314 18.1515C15.6882 18.182 15.7523 18.1966 15.8168 18.1937C15.8812 18.1907 15.9437 18.1704 15.9975 18.1347L18.7463 16.3181C18.7954 16.2857 18.8358 16.2417 18.8638 16.1899C18.8918 16.1382 18.9066 16.0803 18.9068 16.0215C18.9071 15.9626 18.8928 15.9046 18.8652 15.8526C18.8376 15.8007 18.7976 15.7563 18.7488 15.7235L15.9996 13.8752C15.9459 13.8391 15.8833 13.8182 15.8187 13.8149C15.7541 13.8116 15.6897 13.8259 15.6326 13.8564C15.5755 13.8868 15.5277 13.9322 15.4943 13.9877C15.461 14.0432 15.4434 14.1067 15.4434 14.1714V14.1718Z" fill="white" stroke="#265205" stroke-linejoin="round"/>
</svg>
