<svg width="32" height="32" viewBox="0 0 32 32" fill="none" xmlns="http://www.w3.org/2000/svg">
<rect x="0.385742" y="0.193359" width="31.6147" height="31.6144" rx="15.8072" fill="#265205"/>
<path d="M16.191 11.9947C13.9742 11.9947 12.1852 13.7838 12.1852 16.0006C12.1852 18.2174 13.9742 20.0064 16.191 20.0064C18.4078 20.0064 20.1969 18.2174 20.1969 16.0006C20.1969 13.7838 18.4078 11.9947 16.191 11.9947ZM16.191 18.6041C14.7574 18.6041 13.5875 17.4342 13.5875 16.0006C13.5875 14.567 14.7574 13.3971 16.191 13.3971C17.6246 13.3971 18.7945 14.567 18.7945 16.0006C18.7945 17.4342 17.6246 18.6041 16.191 18.6041ZM20.3609 10.8971C19.8434 10.8971 19.4254 11.315 19.4254 11.8326C19.4254 12.3502 19.8434 12.7682 20.3609 12.7682C20.8785 12.7682 21.2965 12.3521 21.2965 11.8326C21.2966 11.7097 21.2725 11.588 21.2256 11.4744C21.1786 11.3608 21.1097 11.2576 21.0228 11.1707C20.9359 11.0838 20.8327 11.0149 20.7191 10.968C20.6056 10.921 20.4838 10.8969 20.3609 10.8971ZM23.9996 16.0006C23.9996 14.9225 24.0094 13.8541 23.9488 12.7779C23.8883 11.5279 23.6031 10.4185 22.6891 9.50449C21.773 8.58847 20.6656 8.30527 19.4156 8.24472C18.3375 8.18417 17.2691 8.19394 16.193 8.19394C15.1148 8.19394 14.0465 8.18417 12.9703 8.24472C11.7203 8.30527 10.6109 8.59042 9.69687 9.50449C8.78085 10.4205 8.49765 11.5279 8.4371 12.7779C8.37656 13.856 8.38632 14.9244 8.38632 16.0006C8.38632 17.0768 8.37656 18.1471 8.4371 19.2232C8.49765 20.4732 8.78281 21.5826 9.69687 22.4967C10.6129 23.4127 11.7203 23.6959 12.9703 23.7564C14.0484 23.817 15.1168 23.8072 16.193 23.8072C17.2711 23.8072 18.3394 23.817 19.4156 23.7564C20.6656 23.6959 21.775 23.4107 22.6891 22.4967C23.6051 21.5807 23.8883 20.4732 23.9488 19.2232C24.0113 18.1471 23.9996 17.0787 23.9996 16.0006ZM22.2809 20.606C22.1383 20.9615 21.9664 21.2271 21.691 21.5006C21.4156 21.776 21.1519 21.9478 20.7965 22.0904C19.7691 22.4986 17.3297 22.4068 16.191 22.4068C15.0523 22.4068 12.6109 22.4986 11.5836 22.0924C11.2281 21.9498 10.9625 21.7779 10.6891 21.5025C10.4137 21.2271 10.2418 20.9635 10.0992 20.608C9.69296 19.5787 9.78476 17.1393 9.78476 16.0006C9.78476 14.8619 9.69296 12.4205 10.0992 11.3932C10.2418 11.0377 10.4137 10.7721 10.6891 10.4986C10.9644 10.2252 11.2281 10.0514 11.5836 9.90878C12.6109 9.50253 15.0523 9.59433 16.191 9.59433C17.3297 9.59433 19.7711 9.50253 20.7984 9.90878C21.1539 10.0514 21.4195 10.2232 21.693 10.4986C21.9684 10.774 22.1402 11.0377 22.2828 11.3932C22.6891 12.4205 22.5973 14.8619 22.5973 16.0006C22.5973 17.1393 22.6891 19.5787 22.2809 20.606Z" fill="white"/>
</svg>
