<svg width="31" height="32" viewBox="0 0 31 32" fill="none" xmlns="http://www.w3.org/2000/svg">
<rect y="0.5" width="31" height="31" rx="15.5" fill="#265205"/>
<path d="M15.5 8.5C11.365 8.5 8 11.865 8 16C8 20.135 11.365 23.5 15.5 23.5C19.635 23.5 23 20.135 23 16C23 11.865 19.635 8.5 15.5 8.5ZM15.5 9.75C18.9594 9.75 21.75 12.5406 21.75 16C21.7515 17.4962 21.215 18.9431 20.2383 20.0766C19.2617 21.2101 17.91 21.9547 16.43 22.1744V17.8225H18.21L18.4894 16.0144H16.43V15.0269C16.43 14.2769 16.6769 13.61 17.3787 13.61H18.5069V12.0325C18.3088 12.0056 17.8894 11.9475 17.0969 11.9475C15.4419 11.9475 14.4719 12.8212 14.4719 14.8125V16.0144H12.7706V17.8225H14.4719V22.1588C13.0123 21.9185 11.6858 21.1672 10.7292 20.039C9.77259 18.9108 9.24831 17.4792 9.25 16C9.25 12.5406 12.0406 9.75 15.5 9.75Z" fill="white"/>
</svg>
