<svg width="32" height="32" viewBox="0 0 32 32" fill="none" xmlns="http://www.w3.org/2000/svg">
<rect x="0.497681" y="0.714355" width="30.6147" height="30.6144" rx="15.3072" stroke="#FF9500"/>
<path d="M15.8029 12.0157C13.5862 12.0157 11.7971 13.8048 11.7971 16.0216C11.7971 18.2384 13.5862 20.0274 15.8029 20.0274C18.0197 20.0274 19.8088 18.2384 19.8088 16.0216C19.8088 13.8048 18.0197 12.0157 15.8029 12.0157ZM15.8029 18.6251C14.3694 18.6251 13.1994 17.4552 13.1994 16.0216C13.1994 14.588 14.3694 13.4181 15.8029 13.4181C17.2365 13.4181 18.4065 14.588 18.4065 16.0216C18.4065 17.4552 17.2365 18.6251 15.8029 18.6251ZM19.9729 10.9181C19.4553 10.9181 19.0373 11.336 19.0373 11.8536C19.0373 12.3712 19.4553 12.7892 19.9729 12.7892C20.4904 12.7892 20.9084 12.3731 20.9084 11.8536C20.9086 11.7307 20.8845 11.609 20.8375 11.4954C20.7906 11.3818 20.7217 11.2786 20.6347 11.1917C20.5478 11.1048 20.4446 11.0359 20.3311 10.989C20.2175 10.942 20.0958 10.9179 19.9729 10.9181V10.9181ZM23.6115 16.0216C23.6115 14.9435 23.6213 13.8751 23.5608 12.7989C23.5002 11.5489 23.2151 10.4395 22.301 9.52548C21.385 8.60947 20.2776 8.32626 19.0276 8.26572C17.9494 8.20517 16.8811 8.21494 15.8049 8.21494C14.7268 8.21494 13.6584 8.20517 12.5822 8.26572C11.3322 8.32626 10.2229 8.61142 9.30881 9.52548C8.39279 10.4415 8.10959 11.5489 8.04904 12.7989C7.9885 13.877 7.99826 14.9454 7.99826 16.0216C7.99826 17.0977 7.9885 18.1681 8.04904 19.2442C8.10959 20.4942 8.39475 21.6036 9.30881 22.5177C10.2248 23.4337 11.3322 23.7169 12.5822 23.7774C13.6604 23.838 14.7287 23.8282 15.8049 23.8282C16.883 23.8282 17.9514 23.838 19.0276 23.7774C20.2776 23.7169 21.3869 23.4317 22.301 22.5177C23.217 21.6017 23.5002 20.4942 23.5608 19.2442C23.6233 18.1681 23.6115 17.0997 23.6115 16.0216V16.0216ZM21.8928 20.627C21.7502 20.9825 21.5783 21.2481 21.3029 21.5216C21.0276 21.797 20.7639 21.9688 20.4084 22.1114C19.3811 22.5196 16.9416 22.4278 15.8029 22.4278C14.6643 22.4278 12.2229 22.5196 11.1955 22.1134C10.8401 21.9708 10.5744 21.7989 10.301 21.5235C10.0256 21.2481 9.85373 20.9845 9.71115 20.629C9.3049 19.5997 9.3967 17.1602 9.3967 16.0216C9.3967 14.8829 9.3049 12.4415 9.71115 11.4142C9.85373 11.0587 10.0256 10.7931 10.301 10.5196C10.5764 10.2462 10.8401 10.0724 11.1955 9.92978C12.2229 9.52353 14.6643 9.61533 15.8029 9.61533C16.9416 9.61533 19.383 9.52353 20.4104 9.92978C20.7658 10.0724 21.0315 10.2442 21.3049 10.5196C21.5803 10.795 21.7522 11.0587 21.8947 11.4142C22.301 12.4415 22.2092 14.8829 22.2092 16.0216C22.2092 17.1602 22.301 19.5997 21.8928 20.627Z" fill="#FF9500"/>
</svg>
