<svg width="32" height="32" viewBox="0 0 32 32" fill="none" xmlns="http://www.w3.org/2000/svg">
<rect x="0.385254" width="31.6147" height="31.6144" rx="15.8072" fill="#FF9500"/>
<path d="M16.1905 11.8014C13.9737 11.8014 12.1847 13.5904 12.1847 15.8072C12.1847 18.024 13.9737 19.8131 16.1905 19.8131C18.4073 19.8131 20.1964 18.024 20.1964 15.8072C20.1964 13.5904 18.4073 11.8014 16.1905 11.8014ZM16.1905 18.4107C14.7569 18.4107 13.587 17.2408 13.587 15.8072C13.587 14.3736 14.7569 13.2037 16.1905 13.2037C17.6241 13.2037 18.794 14.3736 18.794 15.8072C18.794 17.2408 17.6241 18.4107 16.1905 18.4107ZM20.3604 10.7037C19.8429 10.7037 19.4249 11.1217 19.4249 11.6393C19.4249 12.1568 19.8429 12.5748 20.3604 12.5748C20.878 12.5748 21.296 12.1588 21.296 11.6393C21.2961 11.5164 21.2721 11.3946 21.2251 11.2811C21.1781 11.1675 21.1092 11.0643 21.0223 10.9774C20.9354 10.8905 20.8322 10.8216 20.7186 10.7746C20.6051 10.7276 20.4833 10.7036 20.3604 10.7037V10.7037ZM23.9991 15.8072C23.9991 14.7291 24.0089 13.6607 23.9483 12.5846C23.8878 11.3346 23.6026 10.2252 22.6886 9.31113C21.7726 8.39511 20.6651 8.11191 19.4151 8.05136C18.337 7.99082 17.2686 8.00058 16.1925 8.00058C15.1143 8.00058 14.046 7.99082 12.9698 8.05136C11.7198 8.11191 10.6104 8.39707 9.69638 9.31113C8.78037 10.2271 8.49716 11.3346 8.43662 12.5846C8.37607 13.6627 8.38583 14.731 8.38583 15.8072C8.38583 16.8834 8.37607 17.9537 8.43662 19.0299C8.49716 20.2799 8.78232 21.3893 9.69638 22.3033C10.6124 23.2193 11.7198 23.5025 12.9698 23.5631C14.0479 23.6236 15.1163 23.6139 16.1925 23.6139C17.2706 23.6139 18.339 23.6236 19.4151 23.5631C20.6651 23.5025 21.7745 23.2174 22.6886 22.3033C23.6046 21.3873 23.8878 20.2799 23.9483 19.0299C24.0108 17.9537 23.9991 16.8853 23.9991 15.8072V15.8072ZM22.2804 20.4127C22.1378 20.7682 21.9659 21.0338 21.6905 21.3072C21.4151 21.5826 21.1515 21.7545 20.796 21.8971C19.7686 22.3053 17.3292 22.2135 16.1905 22.2135C15.0519 22.2135 12.6104 22.3053 11.5831 21.899C11.2276 21.7564 10.962 21.5846 10.6886 21.3092C10.4132 21.0338 10.2413 20.7701 10.0987 20.4146C9.69248 19.3853 9.78427 16.9459 9.78427 15.8072C9.78427 14.6685 9.69248 12.2271 10.0987 11.1998C10.2413 10.8443 10.4132 10.5787 10.6886 10.3053C10.964 10.0318 11.2276 9.858 11.5831 9.71542C12.6104 9.30917 15.0519 9.40097 16.1905 9.40097C17.3292 9.40097 19.7706 9.30917 20.7979 9.71542C21.1534 9.858 21.419 10.0299 21.6925 10.3053C21.9679 10.5807 22.1397 10.8443 22.2823 11.1998C22.6886 12.2271 22.5968 14.6685 22.5968 15.8072C22.5968 16.9459 22.6886 19.3853 22.2804 20.4127Z" fill="white"/>
</svg>
