<svg width="33" height="32" viewBox="0 0 33 32" fill="none" xmlns="http://www.w3.org/2000/svg">
<rect x="1.11035" y="0.884766" width="30.6147" height="30.6144" rx="15.3072" stroke="#265205"/>
<path d="M16.4156 12.1861C14.1988 12.1861 12.4098 13.9752 12.4098 16.192C12.4098 18.4088 14.1988 20.1978 16.4156 20.1978C18.6324 20.1978 20.4215 18.4088 20.4215 16.192C20.4215 13.9752 18.6324 12.1861 16.4156 12.1861ZM16.4156 18.7955C14.982 18.7955 13.8121 17.6256 13.8121 16.192C13.8121 14.7584 14.982 13.5885 16.4156 13.5885C17.8492 13.5885 19.0191 14.7584 19.0191 16.192C19.0191 17.6256 17.8492 18.7955 16.4156 18.7955ZM20.5855 11.0885C20.068 11.0885 19.65 11.5064 19.65 12.024C19.65 12.5416 20.068 12.9596 20.5855 12.9596C21.1031 12.9596 21.5211 12.5435 21.5211 12.024C21.5212 11.9011 21.4971 11.7794 21.4502 11.6658C21.4032 11.5522 21.3343 11.449 21.2474 11.3621C21.1605 11.2752 21.0573 11.2063 20.9437 11.1594C20.8302 11.1124 20.7084 11.0883 20.5855 11.0885ZM24.2242 16.192C24.2242 15.1139 24.234 14.0455 24.1734 12.9693C24.1129 11.7193 23.8277 10.61 22.9137 9.69589C21.9977 8.77988 20.8902 8.49667 19.6402 8.43613C18.5621 8.37558 17.4937 8.38535 16.4176 8.38535C15.3394 8.38535 14.2711 8.37558 13.1949 8.43613C11.9449 8.49667 10.8355 8.78183 9.92148 9.69589C9.00546 10.6119 8.72226 11.7193 8.66171 12.9693C8.60117 14.0475 8.61093 15.1158 8.61093 16.192C8.61093 17.2682 8.60117 18.3385 8.66171 19.4146C8.72226 20.6646 9.00742 21.774 9.92148 22.6881C10.8375 23.6041 11.9449 23.8873 13.1949 23.9478C14.273 24.0084 15.3414 23.9986 16.4176 23.9986C17.4957 23.9986 18.5641 24.0084 19.6402 23.9478C20.8902 23.8873 21.9996 23.6021 22.9137 22.6881C23.8297 21.7721 24.1129 20.6646 24.1734 19.4146C24.2359 18.3385 24.2242 17.2701 24.2242 16.192ZM22.5055 20.7975C22.3629 21.1529 22.191 21.4185 21.9156 21.692C21.6402 21.9674 21.3766 22.1393 21.0211 22.2818C19.9937 22.69 17.5543 22.5982 16.4156 22.5982C15.2769 22.5982 12.8355 22.69 11.8082 22.2838C11.4527 22.1412 11.1871 21.9693 10.9137 21.6939C10.6383 21.4185 10.4664 21.1549 10.3238 20.7994C9.91757 19.7701 10.0094 17.3307 10.0094 16.192C10.0094 15.0533 9.91757 12.6119 10.3238 11.5846C10.4664 11.2291 10.6383 10.9635 10.9137 10.69C11.1891 10.4166 11.4527 10.2428 11.8082 10.1002C12.8355 9.69394 15.2769 9.78574 16.4156 9.78574C17.5543 9.78574 19.9957 9.69394 21.023 10.1002C21.3785 10.2428 21.6441 10.4146 21.9176 10.69C22.193 10.9654 22.3648 11.2291 22.5074 11.5846C22.9137 12.6119 22.8219 15.0533 22.8219 16.192C22.8219 17.3307 22.9137 19.7701 22.5055 20.7975Z" fill="#265205"/>
</svg>
