<svg width="65" height="65" viewBox="0 0 65 65" fill="none" xmlns="http://www.w3.org/2000/svg">
<path d="M0.5 32.6143C0.5 14.9411 14.8269 0.614258 32.5 0.614258V0.614258C50.1731 0.614258 64.5 14.9411 64.5 32.6143V32.6143C64.5 50.2874 50.1731 64.6143 32.5 64.6143V64.6143C14.8269 64.6143 0.5 50.2874 0.5 32.6143V32.6143Z" fill="#FF9500"/>
<path d="M30.5719 11.0452C27.5963 11.4081 25.4553 12.0159 22.9967 13.2134C16.4739 16.3795 12.0196 22.4397 10.9219 29.6338C10.7223 30.9492 10.686 34.3784 10.8674 35.5306C11.2938 38.2431 11.9107 40.239 12.9812 42.4344C14.2967 45.1106 16.5012 47.8685 18.7238 49.6285C19.3498 50.1275 19.4859 50.191 19.7217 50.1456C20.0846 50.073 20.3205 49.7827 20.3205 49.4017C20.3205 49.1386 20.2298 49.0207 19.4314 48.3403C15.5123 44.9473 13.1627 40.7742 12.3734 35.7574C12.1375 34.324 12.1375 31.2304 12.3734 29.8152C12.7272 27.5835 13.3078 25.7509 14.2694 23.7914C16.6645 18.9197 21.019 15.1457 26.2445 13.4311C29.9822 12.1973 34.3005 12.1248 38.0563 13.2316C38.655 13.413 39.2992 13.5944 39.4806 13.6489C39.78 13.7396 39.8526 13.7214 40.0703 13.5672C40.3969 13.3223 40.4695 12.7417 40.2064 12.5058C39.8344 12.1701 37.5029 11.4988 35.6976 11.2085C34.8267 11.0724 31.2976 10.9635 30.5719 11.0452Z" fill="white"/>
<path d="M46.72 13.54C45.1415 13.7396 43.5085 14.4835 42.2112 15.5994C41.6669 16.0711 41.5036 16.3887 41.6306 16.7152C41.8574 17.3231 42.5378 17.3594 43.0458 16.7969C43.2999 16.5157 44.1163 15.9713 44.8058 15.6266C45.6949 15.173 46.6112 14.9643 47.7633 14.9553C49.5868 14.9462 50.9567 15.4361 52.4717 16.6517C53.1884 17.2324 53.4877 17.2959 53.8416 16.933C54.2226 16.561 54.1319 16.1981 53.5059 15.6357C52.2812 14.5198 50.621 13.7759 48.8701 13.54C48.0718 13.4312 47.5819 13.4312 46.72 13.54Z" fill="white"/>
<path d="M46.9922 17.3498C46.2392 17.4768 45.0961 18.0755 44.6425 18.5654C44.3069 18.9374 44.2615 19.0281 44.3069 19.273C44.3704 19.6268 44.6607 19.8809 44.9873 19.8809C45.1324 19.8809 45.4318 19.7357 45.7312 19.5089C46.6202 18.8466 47.473 18.6108 48.3893 18.7922C49.0425 18.9192 49.3328 19.0553 49.9497 19.5271C50.2581 19.7629 50.503 19.8809 50.6936 19.8809C51.3377 19.8809 51.5917 19.1279 51.1381 18.6198C50.8024 18.257 49.8952 17.7126 49.3055 17.5312C48.5979 17.3135 47.6363 17.2318 46.9922 17.3498Z" fill="white"/>
<path d="M26.3535 17.84L26.1267 18.0577V21.9678V25.8687H24.0946C22.0715 25.8687 22.0715 25.8687 21.8266 26.0955C21.2913 26.5945 21.6905 27.3203 22.507 27.3203H22.9424L22.9697 32.1012C23.006 36.6644 23.015 36.9275 23.1965 37.5898C24.2216 41.2549 26.6983 43.7315 30.2636 44.6569C30.9258 44.8293 31.3069 44.8655 32.4318 44.8655C33.8107 44.8746 34.3641 44.793 35.3983 44.4573C37.9929 43.6045 40.2428 41.527 41.2407 39.0776C41.9574 37.3176 41.9483 37.4446 41.9846 32.1012L42.0118 27.3203H42.4473C43.2638 27.3203 43.663 26.5945 43.1277 26.0955C42.8828 25.8687 42.8828 25.8687 40.8597 25.8687H38.8276V21.9678V18.0577L38.6008 17.84C38.3105 17.5406 37.8931 17.5406 37.6028 17.84L37.376 18.0577V21.9678V25.8687H32.4771H27.5783V21.9678V18.0577L27.3515 17.84C27.2154 17.6948 27.0249 17.6132 26.8525 17.6132C26.6801 17.6132 26.4896 17.6948 26.3535 17.84ZM32.831 30.0872C33.3753 30.3685 33.3481 30.568 32.4318 32.4006C31.8058 33.6616 31.6788 33.9882 31.7514 34.1333C31.8421 34.2876 31.96 34.3057 33.2936 34.3057C34.1555 34.3057 34.8268 34.342 34.9538 34.4055C35.1806 34.5053 35.3802 34.8319 35.3802 35.0859C35.3802 35.3309 33.0305 39.9213 32.8491 40.0211C32.3864 40.266 31.7514 39.9213 31.7514 39.4314C31.7514 39.3044 32.0961 38.5061 32.5225 37.6624C32.9489 36.8187 33.2936 36.102 33.2936 36.0838C33.2936 36.0566 33.2301 35.975 33.1485 35.9024C33.0305 35.7845 32.7493 35.7572 31.5155 35.7572C30.0458 35.7572 30.0186 35.7572 29.8009 35.5304C29.6739 35.4125 29.5741 35.2038 29.5741 35.0768C29.5741 34.9498 30.1003 33.7977 30.7444 32.5095C32.0598 29.8695 32.1778 29.7425 32.831 30.0872Z" fill="white"/>
<path d="M47.3097 20.7791C46.838 20.9969 46.6656 21.1964 46.5295 21.7135C46.4206 22.1036 46.4297 22.1672 46.6384 22.5572C46.8924 23.0653 47.3188 23.3284 47.854 23.3284C49.233 23.3284 49.6684 21.4414 48.4437 20.8063C47.9629 20.5614 47.7814 20.5614 47.3097 20.7791Z" fill="white"/>
<path d="M51.6193 23.6733C51.3471 23.755 51.075 24.0906 51.075 24.3265C51.075 24.4626 51.202 24.8708 51.3562 25.2428C52.1908 27.2749 52.7986 30.2959 52.7986 32.4732C52.7986 32.954 52.8349 33.081 53.0254 33.2625C53.1615 33.4076 53.352 33.4893 53.5244 33.4893C53.6968 33.4893 53.8873 33.4076 54.0234 33.2625C54.2229 33.0719 54.2502 32.9631 54.2502 32.4278C54.2502 29.9784 53.5425 26.6217 52.5446 24.3265C52.3087 23.7822 51.9912 23.5554 51.6193 23.6733Z" fill="white"/>
<path d="M52.68 36.5825C52.4623 36.7095 52.2537 37.2085 52.2537 37.6076C52.2537 38.1883 53.0248 38.5239 53.424 38.1247C53.6417 37.907 53.8231 37.272 53.7505 37.027C53.678 36.7912 53.2697 36.4827 53.0339 36.4827C52.9341 36.4827 52.7708 36.5281 52.68 36.5825Z" fill="white"/>
<path d="M51.7186 39.7217C51.5734 39.8668 51.3648 40.2206 51.2559 40.52C50.7388 41.8808 49.4778 44.0128 48.3801 45.4008C45.5224 48.9842 41.4309 51.5607 36.9221 52.5949C36.3959 52.7128 35.7246 52.8126 35.4252 52.8126C34.4364 52.8126 33.6471 52.2683 33.3296 51.3883C33.2479 51.1524 33.2116 50.5628 33.2026 49.5648V48.0952H33.7469C34.2096 48.0952 34.3366 48.0589 34.518 47.8684C34.8265 47.569 34.8355 46.8523 34.5452 46.5076L34.3366 46.2717L32.4768 46.2626H30.6261L30.4175 46.5076C30.1181 46.8523 30.1272 47.569 30.4356 47.8684C30.617 48.0589 30.7441 48.0952 31.2067 48.0952H31.7511V49.5739C31.7511 51.1887 31.8599 51.8419 32.2591 52.5223C32.5947 53.0938 33.1754 53.62 33.8376 53.9375C34.4001 54.2006 34.4817 54.2188 35.4706 54.2097C36.6137 54.2097 37.5753 54.0101 39.4441 53.3842C45.1232 51.4972 49.8497 47.1789 52.3627 41.6177C52.9614 40.2932 52.9887 40.1027 52.6348 39.7489C52.2901 39.4132 52.0633 39.4042 51.7186 39.7217Z" fill="white"/>
</svg>
