<svg width="64" height="65" viewBox="0 0 64 65" fill="none" xmlns="http://www.w3.org/2000/svg">
<path d="M0 32.6143C0 14.9411 14.3269 0.614258 32 0.614258V0.614258C49.6731 0.614258 64 14.9411 64 32.6143V32.6143C64 50.2874 49.6731 64.6143 32 64.6143V64.6143C14.3269 64.6143 0 50.2874 0 32.6143V32.6143Z" fill="#FF9500"/>
<path d="M17.5238 17.1554V20.0427H16.7739H16.0201L16.012 35.5013L16 50.96H32H48V35.5013V20.0427H47.2301H46.4642L46.4802 18.166C46.4882 17.1354 46.4922 15.8361 46.4842 15.2788L46.4762 14.2682H32H17.5238V17.1554ZM44.6717 18.0778V20.0828H32.02H19.3684V18.0778V16.0727H32.02H44.6717V18.0778ZM44.6837 21.8472H46.1955V35.5414V49.2357L33.584 49.2397C26.6466 49.2437 20.9444 49.2437 20.9123 49.2437C20.8802 49.2437 20.1664 49.2437 19.3283 49.2397L17.8045 49.2357V35.5414V21.8472L30.1674 21.8351C36.9644 21.8271 42.6707 21.8271 42.8471 21.8351C43.0236 21.8392 43.8496 21.8472 44.6837 21.8472Z" fill="white"/>
<path d="M20.4513 17.5282C20.1666 17.7166 20.0583 18.1497 20.2347 18.3903C20.4473 18.675 20.728 18.7472 21.0367 18.5948C21.4778 18.3823 21.5099 17.8008 21.0969 17.5282C20.9124 17.4038 20.6317 17.4038 20.4513 17.5282Z" fill="white"/>
<path d="M23.31 17.4641C23.0895 17.5042 22.897 17.841 22.897 18.1738C22.897 18.3262 22.9732 18.4225 23.2539 18.6069C23.5065 18.7753 23.9516 18.6029 24.124 18.2701C24.2123 18.0976 24.1281 17.829 23.9195 17.6124C23.7671 17.452 23.7351 17.436 23.5747 17.44C23.4784 17.444 23.3581 17.456 23.31 17.4641Z" fill="white"/>
<path d="M30.8768 25.5525C30.187 25.6287 29.9143 25.6769 29.3008 25.8332C26.8707 26.4588 24.6452 28.0588 23.2016 30.2202C23.0452 30.4568 22.8367 30.7977 22.7444 30.9821L22.572 31.3109H21.2687H19.9695L19.9775 35.7099L19.9895 40.1129L21.1404 40.125L22.2953 40.133L22.5118 40.5701C23.4462 42.4267 24.8096 43.9626 26.4136 44.953C27.7489 45.7831 29.1123 46.2443 30.7885 46.4327C31.4221 46.5009 32.9379 46.4608 33.5595 46.3525C35.0592 46.0919 36.3544 45.5906 37.5334 44.8047C38.3795 44.2433 39.2537 43.4533 39.8793 42.6794C42.1088 39.9285 42.8186 36.0388 41.7038 32.6743C41.3309 31.5435 40.6773 30.3325 39.9474 29.4182C38.3234 27.3811 35.8051 25.9576 33.2026 25.5967C32.561 25.5084 31.4903 25.4884 30.8768 25.5525ZM32.6732 27.345C34.7023 27.5616 36.6472 28.5119 38.0346 29.9515C39.2898 31.2548 40.1078 33.0032 40.3845 34.9601C40.4567 35.4613 40.4447 36.7365 40.3645 37.2458C40.0517 39.2428 39.1334 41.0192 37.7098 42.3786C36.4908 43.5455 34.959 44.2994 33.1825 44.6122C32.6171 44.7084 31.0612 44.7084 30.4958 44.6122C28.9158 44.3355 27.5965 43.722 26.3775 42.7034C24.7935 41.3761 23.6747 39.343 23.3539 37.2057C23.2056 36.2272 23.2778 34.9119 23.5384 33.8653C23.9715 32.1129 25.0301 30.4448 26.4737 29.2418C27.9454 28.0107 29.8181 27.325 31.771 27.3049C32.0517 27.3049 32.4567 27.321 32.6732 27.345Z" fill="white"/>
<path d="M30.1595 29.7951C30.0633 30.0878 29.8146 30.7695 29.6061 31.3068C29.161 32.4457 29.141 32.2813 29.7946 32.6903C30.1916 32.9389 31.8397 33.7971 32.0282 33.8532C32.1044 33.8773 32.0803 33.8091 31.8317 33.2758C31.6753 32.9429 31.559 32.6582 31.575 32.6462C31.5871 32.6301 31.948 32.6101 32.373 32.6021C33.4237 32.578 33.7605 32.6622 34.2818 33.0753C34.6467 33.364 35.0678 33.9735 35.3364 34.6031C35.4086 34.7755 35.4888 34.9199 35.5089 34.9199C35.5329 34.9199 35.7174 34.8477 35.9219 34.7595C36.3229 34.587 36.8121 34.4387 36.9725 34.4387C37.0567 34.4427 37.1249 34.5189 37.3655 34.8758C37.5259 35.1164 37.6943 35.3449 37.7344 35.381C37.8026 35.4452 37.8106 35.4372 37.8628 35.2126C37.8908 35.0843 37.9149 34.7635 37.9149 34.4988C37.9109 34.0577 37.8989 33.9855 37.7785 33.6367C37.161 31.8843 36.0342 30.7334 34.4101 30.192C33.7846 29.9875 33.4237 29.9314 32.6618 29.9314C31.972 29.9314 31.4708 29.9996 30.9976 30.168L30.8372 30.2241L30.5966 29.7469C30.4643 29.4823 30.352 29.2657 30.344 29.2657C30.34 29.2657 30.2557 29.5063 30.1595 29.7951Z" fill="white"/>
<path d="M27.9897 31.8001C27.4805 32.2453 26.8429 32.931 26.5381 33.36C26.0609 34.0257 25.7201 34.8197 25.6278 35.4974C25.5677 35.9385 25.5717 36.7365 25.6439 37.1295C25.7922 37.9876 26.2454 38.9099 26.9391 39.7801C27.0795 39.9565 27.1877 40.133 27.1877 40.1811C27.1877 40.2332 27.1677 40.4137 27.1396 40.5821C27.1155 40.7545 27.1035 40.9069 27.1196 40.9189C27.1476 40.951 28.9241 40.8588 29.4734 40.7986L29.8905 40.7545L29.9787 40.4698C30.0268 40.3134 30.087 40.0488 30.111 39.8763C30.1592 39.5475 30.1632 38.5129 30.1191 38.0157L30.095 37.723L29.9546 37.8272C29.5256 38.152 29.0965 38.2603 28.88 38.0999C28.7516 38.0077 28.499 37.5184 28.4068 37.1856C28.3226 36.8728 28.2865 35.9746 28.3466 35.6778C28.4108 35.3771 28.5712 35.0523 28.88 34.5991C29.1446 34.2102 29.4133 33.725 29.3812 33.6889C29.3531 33.6648 28.5872 33.4803 28.503 33.4763C28.4669 33.4763 28.4228 33.4523 28.4028 33.4242C28.3867 33.4001 28.3627 32.955 28.3506 32.4377L28.3306 31.5034L27.9897 31.8001Z" fill="white"/>
<path d="M35.3281 36.0468C34.6104 36.4879 34.0209 36.8608 34.0129 36.8808C34.0088 36.8969 34.2053 36.953 34.454 37.0011C34.7026 37.0533 34.9913 37.1134 35.0996 37.1335C35.3322 37.1816 35.3362 37.2217 35.1557 37.6668C34.8469 38.4287 34.1853 39.0823 33.4033 39.3991C32.8459 39.6237 32.1723 39.6718 31.6189 39.5315C31.4464 39.4874 31.3021 39.4553 31.3021 39.4593C31.2981 39.4673 31.3061 39.8242 31.3221 40.2533C31.3382 40.6823 31.3382 41.0473 31.3221 41.0593C31.3101 41.0753 30.9412 41.1636 30.5081 41.2598C30.071 41.352 29.7141 41.4443 29.7141 41.4563C29.7141 41.4964 30.3998 41.8092 30.7166 41.9174C33.7963 42.9641 36.7557 41.352 37.678 38.1199C37.7382 37.9154 37.7863 37.743 37.7903 37.739C37.7983 37.731 37.9627 37.6989 38.1592 37.6588C38.3557 37.6227 38.5281 37.5826 38.5442 37.5706C38.5803 37.5425 38.1231 36.933 37.5938 36.3034C37.2209 35.8543 36.6956 35.2688 36.6555 35.2528C36.6434 35.2488 36.0459 35.6057 35.3281 36.0468Z" fill="white"/>
</svg>
