<svg width="20" height="22" viewBox="0 0 20 22" fill="none" xmlns="http://www.w3.org/2000/svg">
<path d="M9.66667 2.38477C7.91005 2.38468 6.22438 3.0779 4.97604 4.31376C3.72769 5.54962 3.01757 7.22823 3 8.98477C3 13.5514 8.875 18.6348 9.125 18.8514C9.27594 18.9805 9.46804 19.0515 9.66667 19.0515C9.86529 19.0515 10.0574 18.9805 10.2083 18.8514C10.5 18.6348 16.3333 13.5514 16.3333 8.98477C16.3158 7.22823 15.6056 5.54962 14.3573 4.31376C13.109 3.0779 11.4233 2.38468 9.66667 2.38477ZM9.66667 17.0931C8.275 15.7681 4.66667 12.0931 4.66667 8.98477C4.66667 7.65868 5.19345 6.38691 6.13113 5.44923C7.06881 4.51155 8.34058 3.98477 9.66667 3.98477C10.9927 3.98477 12.2645 4.51155 13.2022 5.44923C14.1399 6.38691 14.6667 7.65868 14.6667 8.98477C14.6667 12.0681 11.0583 15.7681 9.66667 17.0931Z" fill="#265205"/>
<path d="M9.99968 5.55078C9.42281 5.55078 8.85891 5.72754 8.37926 6.05871C7.89962 6.38989 7.52578 6.86059 7.30503 7.41131C7.08427 7.96203 7.02651 8.56802 7.13905 9.15266C7.25159 9.7373 7.52938 10.2743 7.93728 10.6958C8.34518 11.1173 8.86488 11.4044 9.43066 11.5207C9.99644 11.637 10.5829 11.5773 11.1158 11.3492C11.6488 11.121 12.1043 10.7347 12.4248 10.2391C12.7453 9.74348 12.9163 9.16077 12.9163 8.56468C12.9163 7.76534 12.6091 6.99875 12.0621 6.43353C11.5151 5.86832 10.7732 5.55078 9.99968 5.55078ZM9.99968 9.85635C9.75245 9.85635 9.51078 9.78059 9.30521 9.63866C9.09965 9.49673 8.93944 9.295 8.84483 9.05898C8.75022 8.82296 8.72546 8.56324 8.77369 8.31269C8.82193 8.06213 8.94098 7.83197 9.11579 7.65133C9.29061 7.47069 9.51334 7.34767 9.75581 7.29783C9.99829 7.24799 10.2496 7.27357 10.478 7.37133C10.7064 7.46909 10.9017 7.63465 11.039 7.84706C11.1764 8.05948 11.2497 8.30921 11.2497 8.56468C11.2497 8.90725 11.118 9.23579 10.8836 9.47803C10.6491 9.72026 10.3312 9.85635 9.99968 9.85635Z" fill="#265205"/>
</svg>
