<svg width="20" height="21" viewBox="0 0 20 21" fill="none" xmlns="http://www.w3.org/2000/svg">
<path d="M9.99992 2.1665C8.2433 2.16642 6.55763 2.85964 5.30929 4.0955C4.06094 5.33136 3.35082 7.00997 3.33325 8.7665C3.33325 13.3332 9.20825 18.4165 9.45825 18.6332C9.6092 18.7623 9.80129 18.8332 9.99992 18.8332C10.1985 18.8332 10.3906 18.7623 10.5416 18.6332C10.8333 18.4165 16.6666 13.3332 16.6666 8.7665C16.649 7.00997 15.9389 5.33136 14.6905 4.0955C13.4422 2.85964 11.7565 2.16642 9.99992 2.1665ZM9.99992 16.8748C8.60825 15.5498 4.99992 11.8748 4.99992 8.7665C4.99992 7.44042 5.5267 6.16865 6.46438 5.23097C7.40207 4.29329 8.67384 3.7665 9.99992 3.7665C11.326 3.7665 12.5978 4.29329 13.5355 5.23097C14.4731 6.16865 14.9999 7.44042 14.9999 8.7665C14.9999 11.8498 11.3916 15.5498 9.99992 16.8748Z" fill="#FF9500"/>
<path d="M9.99992 5.5C9.42306 5.5 8.85915 5.67106 8.37951 5.99155C7.89986 6.31203 7.52603 6.76756 7.30527 7.30051C7.08452 7.83346 7.02676 8.4199 7.1393 8.98568C7.25184 9.55146 7.52962 10.0712 7.93753 10.4791C8.34543 10.887 8.86513 11.1648 9.43091 11.2773C9.99668 11.3898 10.5831 11.3321 11.1161 11.1113C11.649 10.8906 12.1046 10.5167 12.425 10.0371C12.7455 9.55744 12.9166 8.99353 12.9166 8.41667C12.9166 7.64312 12.6093 6.90125 12.0623 6.35427C11.5153 5.80729 10.7735 5.5 9.99992 5.5V5.5ZM9.99992 9.66667C9.75269 9.66667 9.51102 9.59336 9.30546 9.456C9.0999 9.31865 8.93968 9.12343 8.84507 8.89502C8.75046 8.66661 8.72571 8.41528 8.77394 8.1728C8.82217 7.93033 8.94122 7.7076 9.11604 7.53278C9.29085 7.35797 9.51358 7.23892 9.75606 7.19068C9.99853 7.14245 10.2499 7.16721 10.4783 7.26182C10.7067 7.35643 10.9019 7.51664 11.0393 7.7222C11.1766 7.92777 11.2499 8.16944 11.2499 8.41667C11.2499 8.74819 11.1182 9.06613 10.8838 9.30055C10.6494 9.53497 10.3314 9.66667 9.99992 9.66667Z" fill="#FF9500"/>
</svg>
