<svg width="20" height="21" viewBox="0 0 20 21" fill="none" xmlns="http://www.w3.org/2000/svg">
<path d="M9.99967 2.47363C8.24305 2.47354 6.55739 3.16677 5.30904 4.40263C4.0607 5.63849 3.35057 7.3171 3.33301 9.07363C3.33301 13.6403 9.20801 18.7236 9.45801 18.9403C9.60895 19.0694 9.80105 19.1404 9.99967 19.1404C10.1983 19.1404 10.3904 19.0694 10.5413 18.9403C10.833 18.7236 16.6663 13.6403 16.6663 9.07363C16.6488 7.3171 15.9386 5.63849 14.6903 4.40263C13.442 3.16677 11.7563 2.47354 9.99967 2.47363ZM9.99967 17.182C8.60801 15.857 4.99967 12.182 4.99967 9.07363C4.99967 7.74755 5.52646 6.47578 6.46414 5.5381C7.40182 4.60042 8.67359 4.07363 9.99967 4.07363C11.3258 4.07363 12.5975 4.60042 13.5352 5.5381C14.4729 6.47578 14.9997 7.74755 14.9997 9.07363C14.9997 12.157 11.3913 15.857 9.99967 17.182Z" fill="black"/>
<path d="M9.99968 5.80713C9.42281 5.80713 8.85891 5.97819 8.37926 6.29868C7.89962 6.61916 7.52578 7.07468 7.30503 7.60764C7.08427 8.14059 7.02651 8.72703 7.13905 9.29281C7.25159 9.85859 7.52938 10.3783 7.93728 10.7862C8.34518 11.1941 8.86488 11.4719 9.43066 11.5844C9.99644 11.697 10.5829 11.6392 11.1158 11.4184C11.6488 11.1977 12.1043 10.8239 12.4248 10.3442C12.7453 9.86457 12.9163 9.30066 12.9163 8.7238C12.9163 7.95025 12.6091 7.20838 12.0621 6.6614C11.5151 6.11442 10.7732 5.80713 9.99968 5.80713V5.80713ZM9.99968 9.9738C9.75245 9.9738 9.51077 9.90048 9.30521 9.76313C9.09965 9.62578 8.93944 9.43056 8.84483 9.20215C8.75022 8.97374 8.72546 8.72241 8.77369 8.47993C8.82193 8.23746 8.94098 8.01473 9.11579 7.83991C9.29061 7.6651 9.51334 7.54605 9.75581 7.49781C9.99829 7.44958 10.2496 7.47434 10.478 7.56895C10.7064 7.66356 10.9017 7.82377 11.039 8.02933C11.1764 8.23489 11.2497 8.47657 11.2497 8.7238C11.2497 9.05532 11.118 9.37326 10.8836 9.60768C10.6491 9.8421 10.3312 9.9738 9.99968 9.9738Z" fill="black"/>
</svg>
