<svg width="20" height="21" viewBox="0 0 20 21" fill="none" xmlns="http://www.w3.org/2000/svg">
<path d="M9.99992 2.05222C8.2433 2.05213 6.55763 2.74535 5.30929 3.98121C4.06094 5.21707 3.35082 6.89568 3.33325 8.65222C3.33325 13.2189 9.20825 18.3022 9.45825 18.5189C9.6092 18.648 9.80129 18.7189 9.99992 18.7189C10.1985 18.7189 10.3906 18.648 10.5416 18.5189C10.8333 18.3022 16.6666 13.2189 16.6666 8.65222C16.649 6.89568 15.9389 5.21707 14.6905 3.98121C13.4422 2.74535 11.7565 2.05213 9.99992 2.05222ZM9.99992 16.7605C8.60825 15.4355 4.99992 11.7605 4.99992 8.65222C4.99992 7.32613 5.5267 6.05436 6.46438 5.11668C7.40207 4.179 8.67384 3.65222 9.99992 3.65222C11.326 3.65222 12.5978 4.179 13.5355 5.11668C14.4731 6.05436 14.9999 7.32613 14.9999 8.65222C14.9999 11.7355 11.3916 15.4355 9.99992 16.7605Z" fill="white"/>
<path d="M9.99992 5.38556C9.42306 5.38556 8.85915 5.55662 8.37951 5.87711C7.89986 6.19759 7.52603 6.65311 7.30527 7.18607C7.08452 7.71902 7.02676 8.30546 7.1393 8.87124C7.25184 9.43702 7.52962 9.95672 7.93753 10.3646C8.34543 10.7725 8.86513 11.0503 9.43091 11.1628C9.99668 11.2754 10.5831 11.2176 11.1161 10.9969C11.649 10.7761 12.1046 10.4023 12.425 9.92264C12.7455 9.443 12.9166 8.87909 12.9166 8.30223C12.9166 7.52868 12.6093 6.78681 12.0623 6.23983C11.5153 5.69285 10.7735 5.38556 9.99992 5.38556ZM9.99992 9.55223C9.75269 9.55223 9.51102 9.47891 9.30546 9.34156C9.0999 9.20421 8.93968 9.00899 8.84507 8.78058C8.75046 8.55217 8.72571 8.30084 8.77394 8.05836C8.82217 7.81589 8.94122 7.59316 9.11604 7.41834C9.29085 7.24353 9.51358 7.12448 9.75606 7.07624C9.99853 7.02801 10.2499 7.05277 10.4783 7.14738C10.7067 7.24199 10.9019 7.4022 11.0393 7.60776C11.1766 7.81332 11.2499 8.055 11.2499 8.30223C11.2499 8.63375 11.1182 8.95169 10.8838 9.18611C10.6494 9.42053 10.3314 9.55223 9.99992 9.55223Z" fill="white"/>
</svg>
