<svg width="64" height="65" viewBox="0 0 64 65" fill="none" xmlns="http://www.w3.org/2000/svg">
<path d="M0 32.6143C0 14.9411 14.3269 0.614258 32 0.614258V0.614258C49.6731 0.614258 64 14.9411 64 32.6143V32.6143C64 50.2874 49.6731 64.6143 32 64.6143V64.6143C14.3269 64.6143 0 50.2874 0 32.6143V32.6143Z" fill="#FF9500"/>
<path d="M41.0315 9.09973L37.4609 11.7859V14.0899L37.45 16.3939L38.2798 16.6887C38.7275 16.8525 39.1643 17.0054 39.2516 17.0381C39.3827 17.0927 39.4154 16.7979 39.4373 15.2146L39.47 13.3365L41.9815 11.4911L44.493 9.6457L44.5257 28.165L44.5476 46.6733H51.4814H58.4152V29.7155V12.7468L52.4969 10.0388C49.232 8.54284 46.1309 7.12332 45.5849 6.87218L44.6021 6.41356L41.0315 9.09973ZM48.0964 12.3755L49.1883 12.8014L49.221 15.16C49.232 16.4594 49.2101 17.5186 49.1665 17.5077C49.1119 17.5077 48.5659 17.322 47.9326 17.1036L46.786 16.6996L46.7533 14.3192C46.7314 12.4629 46.7533 11.9497 46.8625 11.9497C46.9389 11.9497 47.4958 12.1462 48.0964 12.3755ZM52.3003 14.1226L53.3377 14.5267L53.3704 16.6778C53.3813 17.8571 53.3595 18.8289 53.3049 18.8289C53.2612 18.8289 52.7262 18.6651 52.1365 18.4686L51.0446 18.0973L51.0118 15.9025C50.99 14.1772 51.0118 13.6968 51.121 13.7077C51.1975 13.7077 51.7325 13.8933 52.3003 14.1226ZM55.7945 15.9789L56.6135 16.2956L56.6462 18.0536C56.6572 19.0255 56.6353 19.8116 56.5916 19.8007C56.537 19.8007 56.133 19.6588 55.6853 19.495L54.8664 19.2002L54.8336 17.4312C54.8227 16.4594 54.8445 15.6623 54.8882 15.6623C54.9428 15.6623 55.3468 15.8042 55.7945 15.9789ZM48.0964 19.2766L49.2429 19.7134V22.061C49.2429 23.3495 49.1992 24.3978 49.1555 24.3978C49.0136 24.3978 47.2228 23.7754 46.9607 23.6444C46.7423 23.5242 46.7314 23.4587 46.7314 21.1766C46.7314 19.7571 46.7751 18.8289 46.8406 18.8289C46.8952 18.8289 47.463 19.0255 48.0964 19.2766ZM52.2457 20.8162C52.7262 21.0019 53.1848 21.1984 53.2612 21.2639C53.3595 21.3404 53.3923 21.9082 53.3923 23.415C53.3923 24.5288 53.3595 25.4788 53.3267 25.5116C53.294 25.5552 52.7589 25.4024 52.1256 25.1949L50.99 24.8127V22.5743C50.99 20.4887 51.0009 20.3358 51.1865 20.4122C51.2848 20.4559 51.7653 20.6415 52.2457 20.8162ZM55.9365 22.2903L56.6681 22.5743V24.3104C56.6681 25.2604 56.6353 26.0357 56.5916 26.0357C56.548 26.0357 56.133 25.9047 55.6635 25.73L54.8118 25.4351V23.6444C54.8118 21.9955 54.8227 21.8645 55.0083 21.93C55.1066 21.9737 55.5215 22.1375 55.9365 22.2903Z" fill="white"/>
<path d="M24.1065 15.9133L20.5249 18.119V21.0891V24.0482L21.049 24.2448C21.3329 24.3431 21.726 24.4959 21.9335 24.5833C22.1301 24.6597 22.3375 24.7252 22.3921 24.7252C22.4467 24.7252 22.4904 23.5569 22.4904 22.1264C22.4904 19.7788 22.5122 19.5058 22.6869 19.3529C22.9599 19.1018 27.4915 16.4265 27.6225 16.4265C27.6989 16.4265 27.7317 21.3184 27.7317 31.6591V46.8916H34.7201H41.7085V32.882V18.8834L40.9114 18.5886C40.4855 18.4248 37.3954 17.2782 34.0649 16.0334C30.7345 14.7886 27.9282 13.7622 27.8409 13.7403C27.7535 13.7294 26.072 14.7013 24.1065 15.9133ZM32.1322 18.8506L32.5362 18.9707V20.9253C32.5362 21.9954 32.5253 22.869 32.5144 22.869C32.3943 22.869 30.123 22.2138 30.0357 22.1592C29.9156 22.0937 29.861 18.3702 29.9811 18.261C30.0138 18.2282 30.4179 18.3156 30.8765 18.4575C31.3351 18.5995 31.9029 18.7742 32.1322 18.8506ZM35.5609 20.0408L36.5764 20.3793V22.1592V23.9391L36.1724 23.8299C35.9431 23.7753 35.4299 23.6333 35.0258 23.5132L34.2833 23.2948V21.504C34.2833 20.1391 34.3161 19.7023 34.4144 19.7023C34.4908 19.7023 35.0149 19.8552 35.5609 20.0408ZM39.1971 21.5914L40.016 21.8425L40.0488 23.2839C40.0706 24.3977 40.0488 24.7252 39.9396 24.7143C39.8631 24.7143 39.4264 24.6051 38.9787 24.4632L38.1597 24.223L38.127 22.7816C38.1051 21.6678 38.127 21.3402 38.2361 21.3402C38.3126 21.3402 38.7494 21.4494 39.1971 21.5914ZM32.4598 24.6161C32.5471 24.6161 32.569 28.547 32.4816 28.547C32.3724 28.547 30.123 27.8919 30.0248 27.8373C29.9156 27.7718 29.8719 24.0482 29.9811 23.9391C30.0138 23.9063 30.5598 24.0373 31.2041 24.2448C31.8483 24.4413 32.4052 24.6161 32.4598 24.6161ZM35.9212 25.6862L36.5218 25.8936L36.5546 27.6516C36.5764 28.9074 36.5436 29.4206 36.4563 29.4206C36.3908 29.4206 36.085 29.3441 35.7793 29.2677C35.4626 29.1804 35.004 29.0493 34.7529 28.9838L34.2833 28.8637V27.0183V25.1729L34.8075 25.3258C35.0914 25.4132 35.5937 25.577 35.9212 25.6862ZM39.0988 26.7017C39.481 26.8327 39.8631 26.9856 39.9396 27.0511C40.0815 27.1603 40.1361 29.8574 39.9942 29.8574C39.9396 29.8574 39.5028 29.7591 39.0114 29.6281L38.1051 29.3878V27.9246C38.1051 26.7999 38.1379 26.4723 38.2471 26.4723C38.3235 26.4723 38.7057 26.5815 39.0988 26.7017Z" fill="white"/>
<path d="M10.1296 24.0264L6.98486 25.5988V36.0268V46.4548H8.1314H9.27793L9.29977 36.6601L9.33253 26.8545L11.2434 25.9701L13.1543 25.0856L13.1871 35.7757L13.2089 46.4548H19.2146H25.2202V36.3653V26.2758L24.3794 25.9919C23.9099 25.839 21.2893 25.0092 18.5485 24.1356C15.8077 23.2621 13.5037 22.5195 13.4164 22.4977C13.329 22.4649 11.8549 23.1529 10.1296 24.0264ZM16.3755 25.9045L17.4129 26.2103L17.4456 27.6189C17.4566 28.3942 17.4566 29.0821 17.4238 29.1585C17.391 29.2568 17.0853 29.2131 16.2773 29.0166L15.1744 28.7436V27.1712C15.1744 26.3086 15.2072 25.5988 15.2618 25.5988C15.3054 25.5988 15.8077 25.7408 16.3755 25.9045ZM16.2882 30.3378C16.8123 30.4907 17.2928 30.6326 17.3583 30.6763C17.533 30.7855 17.5002 33.6792 17.3364 33.6792C17.26 33.6792 16.7359 33.57 16.1899 33.4389L15.1744 33.1987V31.6372C15.1744 30.7746 15.2072 30.0758 15.2618 30.0758C15.3054 30.0758 15.764 30.1959 16.2882 30.3378ZM16.5393 35.0222L17.4129 35.2734L17.4456 36.682C17.4566 37.4573 17.4566 38.1452 17.4238 38.2216C17.391 38.3199 17.0853 38.2762 16.2773 38.0797L15.1744 37.8067V36.2343V34.6619L15.4255 34.7165C15.5566 34.7602 16.0589 34.8912 16.5393 35.0222Z" fill="white"/>
<path d="M40.7258 48.3112C27.7973 48.7698 16.8779 51.0083 9.38721 54.7427C7.96769 55.4525 6.25334 56.468 5.67462 56.9375C5.45623 57.1232 5.59818 57.0904 6.49357 56.7737C13.7659 54.2077 23.6698 51.7945 32.4271 50.4514C39.3172 49.3813 47.5177 48.617 53.0102 48.5078C53.9165 48.4968 53.8728 48.4859 52.5188 48.4204C49.9309 48.2785 43.2701 48.2129 40.7258 48.3112Z" fill="white"/>
<path d="M41.7086 51.4779C30.942 51.7945 21.5514 53.5635 14.7704 56.5554C13.2199 57.2324 11.2871 58.2697 10.7958 58.6737C10.5555 58.8703 10.5992 58.8703 11.4073 58.6191C20.3612 55.8674 31.4443 53.7491 41.9815 52.7882C46.6004 52.3732 49.4395 52.2313 54.375 52.1549C59.5945 52.0893 59.6382 52.0675 55.194 51.7618C52.9118 51.598 45.8798 51.3468 44.8206 51.3905C44.5804 51.4014 43.1827 51.4342 41.7086 51.4779Z" fill="white"/>
</svg>
