<svg width="20" height="21" viewBox="0 0 20 21" fill="none" xmlns="http://www.w3.org/2000/svg">
<path d="M16.3786 6.55221C17.0768 6.99943 17.5396 7.78206 17.5396 8.67278V13.3185C17.5396 15.5635 15.7196 17.3835 13.4746 17.3835H6.50603C5.61532 17.3835 4.83268 16.9207 4.38546 16.2225L13.4746 16.2221C15.0782 16.2221 16.3782 14.9221 16.3782 13.3185L16.3786 6.55221ZM4.18318 3.8335H13.0875C14.4293 3.8335 15.5259 4.88378 15.5999 6.20713L15.6039 6.34992V12.9314C15.6039 14.2732 14.5536 15.3698 13.2303 15.4438L13.0875 15.4478H4.18318C2.84132 15.4478 1.74476 14.3975 1.67073 13.0741L1.66675 12.9314V6.34992C1.66675 5.00806 2.71703 3.91151 4.04038 3.83748L4.18318 3.8335ZM14.4425 7.62672L8.90579 10.5417C8.76067 10.618 8.59129 10.629 8.43924 10.5744L8.36485 10.5417L2.82818 7.6275V12.9314C2.82818 13.6423 3.37568 14.2253 4.07205 14.2819L4.18318 14.2864H13.0875C13.7984 14.2864 14.3814 13.7388 14.438 13.0425L14.4425 12.9314V7.62672ZM13.0875 4.99492H4.18318C3.47225 4.99492 2.8892 5.54243 2.83267 6.23879L2.82973 6.31586L8.63532 9.37155L14.442 6.31495C14.4235 5.58277 13.8241 4.99492 13.0875 4.99492Z" fill="#FF9500"/>
</svg>
