<svg width="20" height="21" viewBox="0 0 20 21" fill="none" xmlns="http://www.w3.org/2000/svg">
<path d="M16.3788 6.85934C17.0771 7.30656 17.5398 8.08919 17.5398 8.97991V13.6256C17.5398 15.8707 15.7199 17.6906 13.4748 17.6906H6.50628C5.61556 17.6906 4.83293 17.2278 4.38571 16.5296L13.4748 16.5292C15.0784 16.5292 16.3784 15.2292 16.3784 13.6256L16.3788 6.85934ZM4.18342 4.14062H13.0877C14.4296 4.14062 15.5261 5.19091 15.6002 6.51426L15.6041 6.65705V13.2385C15.6041 14.5803 14.5539 15.6769 13.2305 15.7509L13.0877 15.7549H4.18342C2.84156 15.7549 1.745 14.7046 1.67098 13.3813L1.66699 13.2385V6.65705C1.66699 5.31519 2.71728 4.21864 4.04062 4.14461L4.18342 4.14062ZM14.4427 7.93385L8.90603 10.8488C8.76091 10.9252 8.59153 10.9361 8.43949 10.8815L8.3651 10.8488L2.82842 7.93462V13.2385C2.82842 13.9494 3.37593 14.5325 4.07229 14.589L4.18342 14.5935H13.0877C13.7986 14.5935 14.3817 14.046 14.4382 13.3496L14.4427 13.2385V7.93385ZM13.0877 5.30205H4.18342C3.47249 5.30205 2.88944 5.84956 2.83291 6.54592L2.82997 6.62298L8.63556 9.67868L14.4423 6.62208C14.4237 5.8899 13.8244 5.30205 13.0877 5.30205Z" fill="black"/>
</svg>
