<svg width="17" height="15" viewBox="0 0 17 15" fill="none" xmlns="http://www.w3.org/2000/svg">
<path d="M15.3788 3.43746C16.0771 3.88469 16.5398 4.66732 16.5398 5.55804V10.2038C16.5398 12.4488 14.7199 14.2688 12.4748 14.2688H5.50628C4.61556 14.2688 3.83293 13.806 3.38571 13.1077L12.4748 13.1073C14.0784 13.1073 15.3784 11.8073 15.3784 10.2038L15.3788 3.43746ZM3.18342 0.71875H12.0877C13.4296 0.71875 14.5261 1.76903 14.6002 3.09238L14.6041 3.23518V9.81661C14.6041 11.1585 13.5539 12.255 12.2305 12.3291L12.0877 12.333H3.18342C1.84156 12.333 0.745005 11.2828 0.670976 9.9594L0.666992 9.81661V3.23518C0.666992 1.89332 1.71728 0.796762 3.04062 0.722733L3.18342 0.71875ZM13.4427 4.51198L7.90603 7.42692C7.76091 7.5033 7.59153 7.51421 7.43949 7.45965L7.3651 7.42692L1.82842 4.51275V9.81661C1.82842 10.5275 2.37593 11.1106 3.07229 11.1671L3.18342 11.1716H12.0877C12.7986 11.1716 13.3817 10.6241 13.4382 9.92774L13.4427 9.81661V4.51198ZM12.0877 1.88018H3.18342C2.47249 1.88018 1.88944 2.42768 1.83291 3.12405L1.82997 3.20111L7.63556 6.2568L13.4423 3.20021C13.4237 2.46802 12.8244 1.88018 12.0877 1.88018Z" fill="#265205"/>
</svg>
