<svg width="20" height="21" viewBox="0 0 20 21" fill="none" xmlns="http://www.w3.org/2000/svg">
<path d="M16.3786 6.43759C17.0768 6.88481 17.5396 7.66744 17.5396 8.55816V13.2039C17.5396 15.4489 15.7196 17.2689 13.4746 17.2689H6.50603C5.61532 17.2689 4.83268 16.8061 4.38546 16.1079L13.4746 16.1074C15.0782 16.1074 16.3782 14.8075 16.3782 13.2039L16.3786 6.43759ZM4.18318 3.71887H13.0875C14.4293 3.71887 15.5259 4.76916 15.5999 6.0925L15.6039 6.2353V12.8167C15.6039 14.1586 14.5536 15.2551 13.2303 15.3292L13.0875 15.3332H4.18318C2.84132 15.3332 1.74476 14.2829 1.67073 12.9595L1.66675 12.8167V6.2353C1.66675 4.89344 2.71703 3.79688 4.04038 3.72286L4.18318 3.71887ZM14.4425 7.5121L8.90579 10.427C8.76067 10.5034 8.59129 10.5143 8.43924 10.4598L8.36485 10.427L2.82818 7.51287V12.8167C2.82818 13.5277 3.37568 14.1107 4.07205 14.1672L4.18318 14.1717H13.0875C13.7984 14.1717 14.3814 13.6242 14.438 12.9279L14.4425 12.8167V7.5121ZM13.0875 4.8803H4.18318C3.47225 4.8803 2.8892 5.42781 2.83267 6.12417L2.82973 6.20123L8.63532 9.25692L14.442 6.20033C14.4235 5.46814 13.8241 4.8803 13.0875 4.8803Z" fill="white"/>
</svg>
