<svg width="40" height="41" viewBox="0 0 40 41" fill="none" xmlns="http://www.w3.org/2000/svg">
<path d="M4.99967 28.7478H24.9997C25.9201 28.7478 26.6663 29.494 26.6663 30.4144C26.6663 31.2692 26.0229 31.9736 25.194 32.0699L24.9997 32.0811H4.99967C4.0792 32.0811 3.33301 31.3349 3.33301 30.4144C3.33301 29.5597 3.97641 28.8552 4.80531 28.759L4.99967 28.7478ZM4.99967 18.7478H34.9997C35.9201 18.7478 36.6663 19.4939 36.6663 20.4144C36.6663 21.2692 36.0229 21.9736 35.194 22.0699L34.9997 22.0811H4.99967C4.0792 22.0811 3.33301 21.3349 3.33301 20.4144C3.33301 19.5597 3.97641 18.8552 4.80531 18.759L4.99967 18.7478ZM4.99967 8.74776H29.9997C30.9201 8.74776 31.6663 9.49395 31.6663 10.4144C31.6663 11.2692 31.0229 11.9736 30.194 12.0699L29.9997 12.0811H4.99967C4.0792 12.0811 3.33301 11.3349 3.33301 10.4144C3.33301 9.5597 3.97641 8.85524 4.80531 8.75897L4.99967 8.74776Z" fill="#1B1F26"/>
</svg>
