<svg width="24" height="25" viewBox="0 0 24 25" fill="none" xmlns="http://www.w3.org/2000/svg">
<path d="M3.7941 4.90758L3.93934 4.73934C4.47187 4.20681 5.3052 4.1584 5.89242 4.59411L6.06066 4.73934L12 10.678L17.9393 4.73934C18.5251 4.15356 19.4749 4.15356 20.0607 4.73934C20.6464 5.32513 20.6464 6.27488 20.0607 6.86066L14.122 12.8L20.0607 18.7393C20.5932 19.2719 20.6416 20.1052 20.2059 20.6924L20.0607 20.8607C19.5281 21.3932 18.6948 21.4416 18.1076 21.0059L17.9393 20.8607L12 14.922L6.06066 20.8607C5.47487 21.4464 4.52513 21.4464 3.93934 20.8607C3.35355 20.2749 3.35355 19.3251 3.93934 18.7393L9.878 12.8L3.93934 6.86066C3.40681 6.32813 3.35839 5.4948 3.7941 4.90758Z" fill="white"/>
</svg>
