<svg width="20" height="21" viewBox="0 0 20 21" fill="none" xmlns="http://www.w3.org/2000/svg">
<path d="M16.2501 18.9321H16.1438C3.86259 18.2259 2.11884 7.86338 1.87509 4.70088C1.85545 4.45499 1.88452 4.20764 1.96064 3.97301C2.03676 3.73838 2.15842 3.52107 2.31867 3.33354C2.47891 3.146 2.67458 2.99193 2.89448 2.88015C3.11437 2.76837 3.35415 2.70108 3.60009 2.68213H7.04384C7.29419 2.68189 7.53885 2.75682 7.74611 2.89723C7.95338 3.03764 8.11372 3.23705 8.20634 3.46963L9.15634 5.80713C9.24781 6.03435 9.27051 6.28343 9.22162 6.52344C9.17273 6.76344 9.05441 6.9838 8.88134 7.15713L7.55009 8.50088C7.75804 9.6826 8.32396 10.7719 9.17128 11.6215C10.0186 12.471 11.1064 13.0398 12.2876 13.2509L13.6438 11.9071C13.8198 11.736 14.0422 11.6204 14.2834 11.5748C14.5246 11.5293 14.7738 11.5557 15.0001 11.6509L17.3563 12.5946C17.5854 12.6902 17.7809 12.8518 17.9178 13.0588C18.0547 13.2658 18.1269 13.5089 18.1251 13.7571V17.0571C18.1251 17.5544 17.9276 18.0313 17.5759 18.383C17.2243 18.7346 16.7474 18.9321 16.2501 18.9321ZM3.75009 3.93213C3.58433 3.93213 3.42536 3.99798 3.30815 4.11519C3.19094 4.2324 3.12509 4.39137 3.12509 4.55713V4.60713C3.41259 8.30713 5.25634 17.0571 16.2126 17.6821C16.2947 17.6872 16.377 17.676 16.4548 17.6492C16.5326 17.6224 16.6043 17.5805 16.6658 17.5259C16.7274 17.4714 16.7776 17.4052 16.8135 17.3311C16.8494 17.2571 16.8703 17.1768 16.8751 17.0946V13.7571L14.5188 12.8134L12.7251 14.5946L12.4251 14.5571C6.98759 13.8759 6.25009 8.43838 6.25009 8.38213L6.21259 8.08213L7.98759 6.28838L7.05009 3.93213H3.75009Z" fill="black"/>
</svg>
