<svg width="20" height="21" viewBox="0 0 20 21" fill="none" xmlns="http://www.w3.org/2000/svg">
<path d="M16.2501 18.5106H16.1438C3.86259 17.8043 2.11884 7.44181 1.87509 4.27931C1.85545 4.03342 1.88452 3.78607 1.96064 3.55144C2.03676 3.31681 2.15842 3.0995 2.31867 2.91197C2.47891 2.72443 2.67458 2.57036 2.89448 2.45858C3.11437 2.3468 3.35415 2.27951 3.60009 2.26056H7.04384C7.29419 2.26032 7.53885 2.33525 7.74611 2.47566C7.95338 2.61607 8.11372 2.81548 8.20634 3.04806L9.15634 5.38556C9.24781 5.61278 9.27051 5.86186 9.22162 6.10187C9.17273 6.34187 9.05441 6.56223 8.88134 6.73556L7.55009 8.07931C7.75804 9.26103 8.32396 10.3504 9.17128 11.1999C10.0186 12.0495 11.1064 12.6182 12.2876 12.8293L13.6438 11.4856C13.8198 11.3144 14.0422 11.1988 14.2834 11.1533C14.5246 11.1077 14.7738 11.1341 15.0001 11.2293L17.3563 12.1731C17.5854 12.2686 17.7809 12.4302 17.9178 12.6372C18.0547 12.8443 18.1269 13.0874 18.1251 13.3356V16.6356C18.1251 17.1328 17.9276 17.6098 17.5759 17.9614C17.2243 18.313 16.7474 18.5106 16.2501 18.5106ZM3.75009 3.51056C3.58433 3.51056 3.42536 3.57641 3.30815 3.69362C3.19094 3.81083 3.12509 3.9698 3.12509 4.13556V4.18556C3.41259 7.88556 5.25634 16.6356 16.2126 17.2606C16.2947 17.2656 16.377 17.2544 16.4548 17.2276C16.5326 17.2008 16.6043 17.1589 16.6658 17.1044C16.7274 17.0498 16.7776 16.9836 16.8135 16.9096C16.8494 16.8356 16.8703 16.7552 16.8751 16.6731V13.3356L14.5188 12.3918L12.7251 14.1731L12.4251 14.1356C6.98759 13.4543 6.25009 8.01681 6.25009 7.96056L6.21259 7.66056L7.98759 5.86681L7.05009 3.51056H3.75009Z" fill="white"/>
</svg>
