<svg width="64" height="64" viewBox="0 0 64 64" fill="none" xmlns="http://www.w3.org/2000/svg">
<rect width="64" height="64" rx="32" fill="white" fill-opacity="0.08"/>
<path opacity="0.2" d="M27.5595 31.6015C28.5968 33.7222 30.3158 35.4334 32.4412 36.461C32.5967 36.5347 32.7687 36.5666 32.9403 36.5537C33.1119 36.5407 33.2771 36.4832 33.4198 36.387L36.5492 34.3002C36.6877 34.2079 36.8469 34.1516 37.0126 34.1364C37.1782 34.1212 37.3451 34.1475 37.498 34.213L43.3526 36.7222C43.5515 36.8067 43.7175 36.9535 43.8257 37.1405C43.9339 37.3276 43.9783 37.5447 43.9524 37.7593C43.7673 39.2073 43.0608 40.5382 41.9652 41.5028C40.8695 42.4674 39.4598 42.9996 38 42.9996C33.4913 42.9996 29.1673 41.2086 25.9792 38.0204C22.7911 34.8323 21 30.5083 21 25.9996C21.0001 24.5399 21.5322 23.1301 22.4969 22.0345C23.4615 20.9388 24.7924 20.2323 26.2404 20.0473C26.4549 20.0213 26.672 20.0658 26.8591 20.1739C27.0461 20.2821 27.193 20.4482 27.2775 20.647L29.7888 26.5068C29.8537 26.6583 29.8802 26.8236 29.8658 26.9879C29.8514 27.1522 29.7967 27.3103 29.7064 27.4483L27.6268 30.6258C27.5322 30.7687 27.4762 30.9338 27.4644 31.1048C27.4526 31.2758 27.4854 31.447 27.5595 31.6015Z" fill="white"/>
<path d="M27.5595 31.6015C28.5968 33.7222 30.3158 35.4334 32.4412 36.461C32.5967 36.5347 32.7687 36.5666 32.9403 36.5537C33.1119 36.5407 33.2771 36.4832 33.4198 36.387L36.5492 34.3002C36.6877 34.2079 36.8469 34.1516 37.0126 34.1364C37.1782 34.1212 37.3451 34.1475 37.498 34.213L43.3526 36.7222C43.5515 36.8067 43.7175 36.9535 43.8257 37.1405C43.9339 37.3276 43.9783 37.5447 43.9524 37.7593C43.7673 39.2073 43.0608 40.5382 41.9652 41.5028C40.8695 42.4674 39.4598 42.9996 38 42.9996C33.4913 42.9996 29.1673 41.2086 25.9792 38.0204C22.7911 34.8323 21 30.5083 21 25.9996C21.0001 24.5399 21.5322 23.1301 22.4969 22.0345C23.4615 20.9388 24.7924 20.2323 26.2404 20.0473C26.4549 20.0213 26.672 20.0658 26.8591 20.1739C27.0461 20.2821 27.193 20.4482 27.2775 20.647L29.7888 26.5068C29.8537 26.6583 29.8802 26.8236 29.8658 26.9879C29.8514 27.1522 29.7967 27.3103 29.7064 27.4483L27.6268 30.6258C27.5322 30.7687 27.4762 30.9338 27.4644 31.1048C27.4526 31.2758 27.4854 31.447 27.5595 31.6015V31.6015Z" stroke="white" stroke-width="2" stroke-linecap="round" stroke-linejoin="round"/>
<path d="M35.9277 21C37.623 21.4559 39.1687 22.3493 40.41 23.5906C41.6513 24.8319 42.5446 26.3776 43.0006 28.0728" stroke="white" stroke-width="2" stroke-linecap="round" stroke-linejoin="round"/>
<path d="M34.8926 24.8643C35.9097 25.1378 36.8371 25.6738 37.5819 26.4186C38.3267 27.1634 38.8627 28.0908 39.1363 29.108" stroke="white" stroke-width="2" stroke-linecap="round" stroke-linejoin="round"/>
</svg>
