<svg width="20" height="21" viewBox="0 0 20 21" fill="none" xmlns="http://www.w3.org/2000/svg">
<path d="M16.2501 18.625H16.1438C3.86259 17.9188 2.11884 7.55625 1.87509 4.39375C1.85545 4.14786 1.88452 3.90052 1.96064 3.66588C2.03676 3.43125 2.15842 3.21394 2.31867 3.02641C2.47891 2.83888 2.67458 2.6848 2.89448 2.57302C3.11437 2.46124 3.35415 2.39395 3.60009 2.375H7.04384C7.29419 2.37476 7.53885 2.44969 7.74611 2.5901C7.95338 2.73051 8.11372 2.92992 8.20634 3.1625L9.15634 5.5C9.24781 5.72722 9.27051 5.9763 9.22162 6.21631C9.17273 6.45631 9.05441 6.67667 8.88134 6.85L7.55009 8.19375C7.75804 9.37547 8.32396 10.4648 9.17128 11.3143C10.0186 12.1639 11.1064 12.7327 12.2876 12.9437L13.6438 11.6C13.8198 11.4288 14.0422 11.3133 14.2834 11.2677C14.5246 11.2221 14.7738 11.2486 15.0001 11.3438L17.3563 12.2875C17.5854 12.3831 17.7809 12.5446 17.9178 12.7517C18.0547 12.9587 18.1269 13.2018 18.1251 13.45V16.75C18.1251 17.2473 17.9276 17.7242 17.5759 18.0758C17.2243 18.4275 16.7474 18.625 16.2501 18.625ZM3.75009 3.625C3.58433 3.625 3.42536 3.69085 3.30815 3.80806C3.19094 3.92527 3.12509 4.08424 3.12509 4.25V4.3C3.41259 8 5.25634 16.75 16.2126 17.375C16.2947 17.3801 16.377 17.3689 16.4548 17.3421C16.5326 17.3153 16.6043 17.2734 16.6658 17.2188C16.7274 17.1642 16.7776 17.098 16.8135 17.024C16.8494 16.95 16.8703 16.8696 16.8751 16.7875V13.45L14.5188 12.5062L12.7251 14.2875L12.4251 14.25C6.98759 13.5687 6.25009 8.13125 6.25009 8.075L6.21259 7.775L7.98759 5.98125L7.05009 3.625H3.75009Z" fill="#FF9500"/>
</svg>
