<svg width="18" height="17" viewBox="0 0 18 17" fill="none" xmlns="http://www.w3.org/2000/svg">
<path d="M15.2501 16.5098H15.1438C2.86259 15.8035 1.11884 5.44102 0.875094 2.27852C0.855453 2.03263 0.884524 1.78528 0.96064 1.55065C1.03676 1.31601 1.15842 1.09871 1.31867 0.911173C1.47891 0.723641 1.67458 0.569571 1.89448 0.45779C2.11437 0.34601 2.35415 0.278717 2.60009 0.259766H6.04384C6.29419 0.259524 6.53885 0.33446 6.74611 0.474867C6.95338 0.615275 7.11372 0.814685 7.20634 1.04727L8.15634 3.38477C8.24781 3.61198 8.27051 3.86107 8.22162 4.10107C8.17273 4.34108 8.05441 4.56144 7.88134 4.73477L6.55009 6.07852C6.75804 7.26023 7.32396 8.34956 8.17128 9.19911C9.0186 10.0487 10.1064 10.6175 11.2876 10.8285L12.6438 9.48477C12.8198 9.31361 13.0422 9.19805 13.2834 9.15248C13.5246 9.10691 13.7738 9.13335 14.0001 9.22852L16.3563 10.1723C16.5854 10.2678 16.7809 10.4294 16.9178 10.6364C17.0547 10.8435 17.1269 11.0866 17.1251 11.3348V14.6348C17.1251 15.132 16.9276 15.609 16.5759 15.9606C16.2243 16.3122 15.7474 16.5098 15.2501 16.5098ZM2.75009 1.50977C2.58433 1.50977 2.42536 1.57561 2.30815 1.69282C2.19094 1.81003 2.12509 1.96901 2.12509 2.13477V2.18477C2.41259 5.88477 4.25634 14.6348 15.2126 15.2598C15.2947 15.2648 15.377 15.2537 15.4548 15.2269C15.5326 15.2 15.6043 15.1582 15.6658 15.1036C15.7274 15.049 15.7775 14.9828 15.8135 14.9088C15.8494 14.8348 15.8703 14.7544 15.8751 14.6723V11.3348L13.5188 10.391L11.7251 12.1723L11.4251 12.1348C5.98759 11.4535 5.25009 6.01602 5.25009 5.95977L5.21259 5.65977L6.98759 3.86602L6.05009 1.50977H2.75009Z" fill="#265205"/>
</svg>
