<svg width="64" height="65" viewBox="0 0 64 65" fill="none" xmlns="http://www.w3.org/2000/svg">
<path d="M0 32.6143C0 14.9411 14.3269 0.614258 32 0.614258V0.614258C49.6731 0.614258 64 14.9411 64 32.6143V32.6143C64 50.2874 49.6731 64.6143 32 64.6143V64.6143C14.3269 64.6143 0 50.2874 0 32.6143V32.6143Z" fill="#FF9500"/>
<path d="M35.9813 12.4939C35.7043 12.6997 35.6489 13.0321 35.7676 13.7049C35.9813 14.9239 35.8547 15.9528 35.3323 17.2193C35.1661 17.6071 34.9919 18.1533 34.9286 18.4303C34.8099 18.9923 34.8653 19.9263 35.0473 20.5278C35.4668 21.9209 36.6304 23.0686 38.0393 23.4723L38.4904 23.5989V24.4696V25.3323H36.9628C35.261 25.3323 35.1661 25.3561 35.0078 25.8468C34.9365 26.0526 34.9365 26.1951 35.0078 26.4009C35.1819 26.9391 34.9365 26.9154 40.1289 26.9154C43.2079 26.9154 44.9492 26.947 45.2183 27.0024C45.9149 27.1528 46.3265 27.6515 46.3265 28.3401C46.3265 29.0287 45.9149 29.5274 45.2183 29.6778C44.6485 29.7965 19.3515 29.7965 18.7816 29.6778C18.0851 29.5274 17.6735 29.0287 17.6735 28.3401C17.6735 27.6515 18.0851 27.1528 18.7816 27.0024C19.0507 26.947 20.895 26.9154 24.2352 26.9154H29.2851L29.4988 26.7096C29.7916 26.4088 29.7916 25.8389 29.4988 25.5381L29.2851 25.3323H27.4013H25.5095V24.5408V23.7493L26.6335 22.38C27.3063 21.5568 27.8049 21.0265 27.8762 21.0344C27.9474 21.0423 28.2007 21.1056 28.4381 21.169C29.4988 21.4776 30.7494 21.1927 31.6596 20.4487C32.9577 19.3801 33.2743 17.2905 32.3562 15.8341C32.0554 15.3592 31.4934 14.8289 31.0422 14.5993C28.9447 13.5387 26.6335 14.5281 25.8736 16.7998C25.834 16.9264 25.7232 16.9422 25.0109 16.9422H24.1877L23.4832 15.5887C23.0954 14.8447 22.6917 14.164 22.5888 14.0849C22.1535 13.7366 21.4728 13.9899 21.3145 14.5519C21.2353 14.8289 21.2591 14.9001 21.7261 15.8341C22.0031 16.3724 22.2326 16.8473 22.2485 16.8789C22.2643 16.9106 21.6865 16.9422 20.9583 16.9422C19.8977 16.9422 19.6127 16.966 19.4544 17.0689C19.2249 17.2193 19.0745 17.6388 19.1457 17.9316C19.1774 18.0504 20.2459 19.4276 21.5203 20.9948L23.8473 23.8285V24.5804V25.3244L21.0216 25.3482L18.188 25.3719L17.7368 25.5856C16.8424 26.0051 16.1459 26.9391 16.0192 27.9048C15.8372 29.2266 16.5495 30.5405 17.7368 31.0946L18.188 31.3083L23.9107 31.3321L29.6254 31.3479V38.6536C29.6175 42.6666 29.5858 46.1097 29.5542 46.2997C29.4275 46.9566 28.9368 47.3761 28.2165 47.4553C27.4962 47.5344 26.9738 47.7007 26.5227 48.0014C26.024 48.3339 25.7312 48.6821 25.4462 49.2995C25.2562 49.7111 25.2325 49.8536 25.2087 50.9617C25.1771 52.2519 25.2246 52.5448 25.5412 52.7585C25.6283 52.8218 25.842 52.8772 26.0082 52.8772C26.6968 52.8772 26.8551 52.5685 26.8551 51.1992C26.8551 50.3839 26.8789 50.186 27.0213 49.8932C27.243 49.4262 27.6704 49.1966 28.4698 49.0937C29.6254 48.9433 30.4961 48.3339 30.9552 47.3524L31.1689 46.9012L31.1926 39.1206L31.2085 31.3479H32H32.7915L32.8073 39.1206L32.8311 46.9012L33.0448 47.3524C33.5039 48.3339 34.3745 48.9433 35.5302 49.0937C36.3296 49.1966 36.757 49.4262 36.9786 49.8932C37.1211 50.186 37.1449 50.3839 37.1449 51.1992C37.1449 52.5685 37.3032 52.8772 37.9918 52.8772C38.158 52.8772 38.3717 52.8218 38.4588 52.7585C38.7754 52.5448 38.8229 52.2519 38.7912 50.9617C38.7675 49.8536 38.7437 49.7111 38.5538 49.2995C38.0234 48.1597 37.1923 47.6057 35.7834 47.4553C35.0632 47.3761 34.5724 46.9566 34.4458 46.2997C34.4141 46.1097 34.3825 42.6666 34.3745 38.6536V31.3479L40.0972 31.3321L45.812 31.3083L46.2631 31.0946C47.4504 30.5405 48.1628 29.2266 47.9807 27.9048C47.8541 26.9391 47.1576 26.0051 46.2631 25.5856L45.812 25.3719L42.9863 25.3482L40.1526 25.3244V24.4696V23.6147L40.6117 23.4802C42.4876 22.9499 43.7936 21.2323 43.7936 19.301C43.7936 18.5332 43.6828 18.0187 43.3504 17.2351C43.2 16.8948 43.0258 16.3961 42.9546 16.127C42.7884 15.5017 42.7726 14.2827 42.915 13.61C43.01 13.1667 43.01 13.0401 42.9229 12.8343C42.7251 12.3435 42.8042 12.3514 39.3215 12.3514C36.4404 12.3514 36.1396 12.3673 35.9813 12.4939ZM41.1579 14.8606C41.1658 15.7708 41.2766 16.4357 41.5378 17.1718C41.6011 17.3618 41.6565 17.5438 41.6565 17.5834C41.6565 17.623 40.6038 17.6546 39.3136 17.6546C37.3506 17.6546 36.9786 17.6388 37.0103 17.5438C37.3586 16.6494 37.5723 15.383 37.5248 14.4965L37.501 13.9345H39.3294H41.1579V14.8606ZM29.9499 15.9449C30.409 16.1112 30.7969 16.4515 31.0185 16.9106C31.6042 18.1137 30.7969 19.5226 29.4592 19.6176C29.1822 19.6413 28.9922 19.6176 28.9922 19.5701C28.9922 19.5305 29.2455 19.1902 29.5542 18.8102C29.9104 18.3749 30.1241 18.0345 30.1557 17.8683C30.2032 17.5596 30.0212 17.148 29.7916 17.0214C29.7046 16.9818 29.1901 16.9422 28.6439 16.9422C28.0978 16.9422 27.6466 16.9264 27.6466 16.9027C27.6466 16.7919 27.9237 16.4515 28.1769 16.2615C28.541 15.9845 28.9447 15.842 29.3484 15.842C29.5225 15.842 29.7916 15.8895 29.9499 15.9449ZM24.0215 20.2429C24.7734 21.6993 24.8605 21.8972 24.7576 22.0001C24.6547 22.1029 24.623 22.1029 24.536 22.008C24.4331 21.8972 22.011 18.9131 21.8448 18.6994C21.7894 18.6282 21.9239 18.6044 22.4701 18.6044H23.1745L24.0215 20.2429ZM27.4408 18.6994C27.4092 18.7548 27.0846 19.1664 26.7126 19.6176L26.0478 20.4328L25.8974 20.1875C25.7153 19.8946 25.1138 18.7073 25.1138 18.644C25.1138 18.6203 25.652 18.6044 26.309 18.6044C27.235 18.6044 27.4883 18.6282 27.4408 18.6994ZM42.1077 19.673C42.076 19.8709 41.9573 20.227 41.8386 20.4724C41.0312 22.1346 38.6725 22.4987 37.3427 21.169C36.9549 20.7732 36.6304 20.1558 36.5512 19.6492L36.4958 19.3168H39.3215H42.1552L42.1077 19.673Z" fill="white"/>
<path d="M31.5172 25.5618C31.0027 26.0842 31.3589 26.9153 32.1029 26.9153C32.6491 26.9153 32.9973 26.4799 32.8865 25.9259C32.7757 25.3322 31.9684 25.1185 31.5172 25.5618Z" fill="white"/>
<path d="M12.0775 29.6065C11.935 29.6936 11.8005 29.844 11.7767 29.939C11.753 30.0419 11.7451 31.8307 11.753 33.9203L11.7767 37.7196L12.03 38.2499C12.3466 38.9227 12.869 39.4451 13.5418 39.7617L14.0721 40.015L15.6789 40.0388L17.2778 40.0625V45.6823V51.2942H15.0694H12.869L12.6632 51.492C12.3229 51.8403 12.3229 52.331 12.6632 52.6793L12.869 52.8772H18.1247H23.3883L23.6178 52.6477C23.9424 52.3231 23.9424 51.8482 23.6178 51.5237L23.3883 51.2942H21.1641H18.94V45.6823V40.0625L20.5863 40.0388L22.2248 40.015L22.7551 39.7617C23.4279 39.4451 23.9503 38.9227 24.2669 38.2499C24.5043 37.7592 24.5202 37.6563 24.5202 36.8885C24.5202 36.1207 24.5043 36.0178 24.2669 35.5271C23.9503 34.8543 23.4279 34.3319 22.7551 34.0153L22.2248 33.762L17.7764 33.7383L13.3202 33.7224V31.8545C13.3202 30.7305 13.2885 29.9311 13.241 29.8361C13.1381 29.654 12.7582 29.4482 12.5128 29.4482C12.4099 29.4482 12.212 29.5195 12.0775 29.6065ZM22.1219 35.5667C23.1667 36.1762 23.1667 37.6009 22.1219 38.2104L21.7498 38.432H18.1484H14.547L14.175 38.2104C13.9376 38.0679 13.7238 37.8621 13.5893 37.6325C13.3914 37.3001 13.3677 37.1735 13.336 36.279L13.2964 35.2976L17.5231 35.3213L21.7498 35.3451L22.1219 35.5667Z" fill="white"/>
<path d="M51.0601 29.5748C50.9414 29.6381 50.8069 29.7568 50.7594 29.8439C50.7119 29.9309 50.6802 30.7304 50.6802 31.8543V33.7223L46.2319 33.7381L41.7756 33.7619L41.2453 34.0152C40.5725 34.3318 40.0501 34.8542 39.7335 35.527C39.4961 36.0177 39.4802 36.1206 39.4802 36.8884C39.4802 37.6562 39.4961 37.7591 39.7335 38.2498C40.0501 38.9226 40.5725 39.445 41.2453 39.7616L41.7756 40.0149H45.8519H49.9283L50.4586 39.7616C51.1314 39.445 51.6538 38.9226 51.9704 38.2498L52.2237 37.7195L52.2474 33.9202C52.2553 31.8306 52.2474 30.0418 52.2237 29.9389C52.1683 29.7251 51.7488 29.4481 51.4717 29.4481C51.3609 29.456 51.1789 29.5035 51.0601 29.5748ZM50.6644 36.2868C50.6327 37.1733 50.609 37.3 50.4111 37.6324C50.2765 37.862 50.0628 38.0678 49.8254 38.2102L49.4534 38.4319H45.8519H42.2505L41.8785 38.2102C40.6358 37.482 40.9524 35.6536 42.3614 35.3766C42.5197 35.3449 44.4589 35.3212 46.6751 35.3133L50.704 35.3054L50.6644 36.2868Z" fill="white"/>
<path d="M45.6377 41.3367C45.052 41.4871 44.8621 42.2391 45.2895 42.6744C45.7486 43.1335 46.548 42.9039 46.6667 42.2707C46.7934 41.6533 46.263 41.1705 45.6377 41.3367Z" fill="white"/>
<path d="M45.638 43.9093C45.543 43.9251 45.3689 44.0518 45.2581 44.1784L45.0602 44.4238V47.859V51.2942H42.836H40.6118L40.3823 51.5237C40.0578 51.8482 40.0578 52.3231 40.3823 52.6477L40.6118 52.8772H45.8754H51.1311L51.3369 52.6793C51.6773 52.331 51.6773 51.8403 51.3369 51.492L51.1311 51.2942H48.9307H46.7224V47.9698C46.7224 44.4554 46.6986 44.2101 46.3504 44.028C46.1446 43.9251 45.8438 43.8776 45.638 43.9093Z" fill="white"/>
</svg>
