<svg width="65" height="65" viewBox="0 0 65 65" fill="none" xmlns="http://www.w3.org/2000/svg">
<rect x="0.5" y="0.614258" width="64" height="64" rx="32" fill="#FF9500"/>
<path d="M23.6766 14.1119C22.5925 14.3201 21.6471 14.9448 21.0544 15.8382C20.9231 16.0388 20.7768 16.2963 20.7243 16.4098C20.623 16.6446 20.4579 17.1783 20.4204 17.3979L20.3979 17.5418H19.0024C17.6257 17.5418 17.6032 17.5418 17.4381 17.6251C17.063 17.8181 17.0367 18.3216 17.3893 18.5526C17.4869 18.6169 17.7495 18.6207 22.3974 18.6396L27.3042 18.6586V27.3846V36.1107L26.7677 36.1561C25.5373 36.2546 25.0871 36.3681 23.9467 36.8754C23.1964 37.2124 22.5099 37.3221 21.1895 37.3184C19.8652 37.3146 18.5635 37.1707 17.0217 36.8679C16.6616 36.7959 16.3165 36.7354 16.2602 36.7354C16.1026 36.7354 15.9301 36.8338 15.8363 36.9739L15.75 37.0988V43.9131C15.75 50.4699 15.7538 50.7311 15.8213 50.8561C15.8588 50.928 15.9451 51.0264 16.0126 51.0719L16.1364 51.1589H32.496H48.8557L48.9982 51.0643C49.2721 50.875 49.2496 51.4921 49.2496 43.9358V37.1253L49.1633 37.0004C49.0395 36.8111 48.8969 36.7467 48.383 36.6407C46.5711 36.2697 44.9205 36.0994 43.4725 36.141C42.0882 36.1826 41.1917 36.3681 40.3626 36.7884C39.8937 37.0269 39.0384 37.2654 38.6482 37.2654H38.5169L38.5357 35.8722C38.547 35.1075 38.5545 34.4071 38.5507 34.3125C38.5507 34.2179 38.547 33.2941 38.5507 32.2569C38.5507 31.2234 38.5507 30.2883 38.5507 30.1861C38.5507 30.0801 38.5507 29.1601 38.5507 28.1418C38.5507 27.1196 38.5507 26.1997 38.5507 26.0975C38.5507 24.0797 38.5507 22.0846 38.5507 21.9408C38.5507 21.8423 38.547 21.0625 38.547 20.2107L38.5394 18.6586L43.0486 18.6396L47.5577 18.6207L47.6927 18.4882C47.764 18.4163 47.839 18.3027 47.8578 18.2346C47.9328 17.9658 47.7565 17.6553 47.4902 17.5796C47.4039 17.5569 45.727 17.5418 42.9285 17.5418H38.5019L38.4044 17.1291C38.1868 16.2281 37.6579 15.4218 36.9076 14.8463C36.5775 14.5889 35.9885 14.3088 35.5384 14.1838C35.2007 14.093 35.0995 14.0816 34.5443 14.0816C33.8578 14.0854 33.6214 14.1308 33.025 14.3769C31.8545 14.8577 30.8979 16.0351 30.6654 17.2768L30.6203 17.5228L29.4687 17.5342C28.5646 17.5418 28.3133 17.5342 28.302 17.4963C28.2983 17.4698 28.2532 17.2957 28.212 17.1102C28.0132 16.2811 27.5592 15.5467 26.9103 14.994C26.4413 14.5927 25.9499 14.3428 25.2972 14.1687C24.9108 14.0665 24.0705 14.0362 23.6766 14.1119ZM24.9708 15.1795C26.0249 15.3991 26.869 16.1713 27.1879 17.2162C27.2291 17.3563 27.2666 17.4888 27.2666 17.5077C27.2666 17.5266 26.0512 17.5418 24.3781 17.5418H21.4896L21.5121 17.4358C21.7447 16.4098 22.4949 15.5883 23.5003 15.2552C23.9429 15.1076 24.4944 15.0811 24.9708 15.1795ZM35.1595 15.1757C35.8835 15.3271 36.57 15.7814 36.9789 16.3833C37.1402 16.6218 37.3465 17.061 37.4065 17.3146L37.4591 17.5228L34.608 17.5342C33.04 17.538 31.7458 17.5342 31.7383 17.5228C31.697 17.485 31.8133 17.1026 31.9558 16.8036C32.3572 15.9556 33.1413 15.3423 34.0603 15.1606C34.3267 15.1076 34.8631 15.1151 35.1595 15.1757ZM37.5003 20.0101L37.4891 21.3843L32.9237 21.3956L28.3545 21.4032V20.0214V18.6396H32.9312H37.5078L37.5003 20.0101ZM37.5078 24.0153V25.5675H32.9312H28.3545V24.0153V22.4632H32.9312H37.5078V24.0153ZM37.5078 28.1418V29.6561H32.9312H28.3545V28.1418V26.6275H32.9312H37.5078V28.1418ZM37.5078 32.2871V33.8204H32.9312H28.3545V32.2871V30.7539H32.9312H37.5078V32.2871ZM37.5078 36.1334V37.3524L36.9376 37.3259C35.4934 37.2578 34.1729 37.0723 32.4247 36.6975C31.2693 36.4476 29.9264 36.247 29.011 36.1864C28.8272 36.1751 28.6021 36.1561 28.5158 36.1448L28.3545 36.1259V35.5201V34.9182H32.9312H37.5078V36.1334ZM28.227 37.2275C29.6225 37.2919 30.6091 37.4357 33.0812 37.9279C34.8069 38.2761 36.3899 38.4276 37.7704 38.3897C39.1959 38.3443 40.0587 38.1588 40.8653 37.7196C41.2442 37.5152 41.6343 37.3865 42.2158 37.2805C42.5346 37.2199 42.7785 37.2086 43.8476 37.2124C44.913 37.2124 45.2093 37.2237 45.7983 37.2994C46.451 37.3789 47.9403 37.6174 48.0904 37.6629C48.1579 37.6856 48.1617 37.7461 48.1617 38.6509V39.6125L48.0791 39.5936C47.6815 39.5027 46.406 39.321 45.4982 39.2264C44.7704 39.1506 42.8535 39.162 42.2908 39.2453C41.4805 39.3702 40.9778 39.5141 40.3851 39.8018C39.9575 40.0062 39.5035 40.1501 38.9709 40.2485C38.4044 40.3507 36.3374 40.3394 35.4221 40.2258C34.518 40.116 33.5764 39.957 32.5823 39.7488C30.4928 39.3096 28.8535 39.1279 27.3042 39.1696C25.8749 39.2074 25.1171 39.3626 24.078 39.8396C23.6278 40.0479 23.1889 40.1766 22.6525 40.2636C22.2248 40.3318 20.1316 40.3318 19.5201 40.2636C18.6235 40.1652 17.1718 39.9381 16.9054 39.8548C16.8416 39.8359 16.8379 39.7564 16.8379 38.8894C16.8379 38.1626 16.8491 37.9468 16.8867 37.9468C16.9092 37.9468 17.1605 37.9884 17.4419 38.0376C18.0196 38.1436 18.8861 38.261 19.5764 38.3329C20.2104 38.3973 22.071 38.3973 22.5775 38.3329C23.384 38.2307 24.1755 37.9998 24.7945 37.6818C25.2297 37.4546 25.9762 37.2805 26.7264 37.2313C27.3642 37.1859 27.3942 37.1859 28.227 37.2275ZM29.1911 40.275C30.0689 40.3659 31.0292 40.5135 31.9183 40.699C32.361 40.7899 32.9687 40.9148 33.2651 40.9791C35.5346 41.4486 38.0743 41.5394 39.5673 41.2025C40.0025 41.1041 40.4151 40.9678 40.7002 40.8201C40.8315 40.752 41.0191 40.6574 41.1166 40.6081C41.3492 40.4908 41.8894 40.3507 42.4221 40.2674C42.7485 40.2182 43.0861 40.2031 43.7913 40.2031C45.0105 40.2069 45.8171 40.2864 47.4602 40.5627L48.1617 40.6839V41.6454C48.1617 42.5313 48.1579 42.6032 48.0979 42.6032C48.0604 42.6032 47.8953 42.5767 47.7303 42.5464C46.2522 42.2587 44.3315 42.1073 43.1499 42.183C41.9082 42.2625 41.2442 42.4101 40.4339 42.7925C39.4735 43.2468 38.9371 43.3414 37.3953 43.3414C35.7822 43.3376 34.5218 43.1824 32.451 42.7319C30.1552 42.236 27.8931 42.0467 26.31 42.2284C25.481 42.3231 24.922 42.4707 24.2581 42.7774C23.3502 43.1938 22.7875 43.3149 21.5458 43.349C20.698 43.3717 19.914 43.3301 18.9386 43.2051C18.3647 43.1332 17.3631 42.9742 17.018 42.8985L16.8379 42.8606V41.9029V40.9451L17.1117 40.9981C17.258 41.0284 17.6519 41.0927 17.9821 41.1457C21.0094 41.6114 23.3352 41.4675 24.6595 40.7293C25.1546 40.4567 25.9274 40.2712 26.854 40.2031C27.2366 40.1766 28.6171 40.2182 29.1911 40.275ZM28.8647 43.2657C30.0501 43.3641 31.2843 43.561 32.6498 43.8676C34.428 44.2689 36.0898 44.4469 37.6916 44.409C39.1922 44.3749 40.0963 44.1819 40.9403 43.72C41.5218 43.3982 42.2308 43.2581 43.4162 43.2203C44.6654 43.1824 46.0384 43.3149 47.7415 43.6291L48.1617 43.7086V46.8849V50.0611H32.4998H16.8379V47.0098V43.9585L16.9242 43.9774C17.3818 44.0948 18.9912 44.3144 19.8877 44.3863C20.6305 44.4431 22.2773 44.409 22.8025 44.3257C23.5866 44.2008 24.2093 44.0077 24.7195 43.7238C25.5373 43.2733 26.9853 43.1143 28.8647 43.2657Z" fill="white"/>
</svg>
