<svg width="32" height="32" viewBox="0 0 32 32" fill="none" xmlns="http://www.w3.org/2000/svg">
<rect width="32" height="31.0275" rx="15.5138" transform="matrix(1 0 0 -1 0 31.3208)" fill="#FF9500"/>
<path d="M8 8.31953C8 8.33481 8.73376 9.32335 9.62548 10.5208C10.5223 11.7183 11.9032 13.5679 12.6981 14.6329L14.1452 16.5692L12.2599 18.6074C11.2255 19.7284 9.84459 21.2163 9.20255 21.9093C8.55541 22.6074 8.02038 23.2087 8.01019 23.2495C7.9949 23.3106 8.12229 23.3208 8.72357 23.3208H9.45223L11.1338 21.5017C14.3796 17.9909 14.8382 17.5017 14.879 17.5476C14.9045 17.5781 17.0854 20.4979 18.9503 22.9998L19.1847 23.3157L21.5949 23.3208C23.2204 23.3208 24 23.3055 24 23.2698C24 23.2393 23.6637 22.7654 23.251 22.21C20.7949 18.9132 17.8038 14.9132 17.6815 14.7603L17.5439 14.5819L17.7529 14.3476C17.9516 14.1233 19.7045 12.2278 22.1605 9.57303C22.7669 8.9208 23.2713 8.36539 23.2764 8.33991C23.2866 8.30934 23.0064 8.28895 22.5376 8.29405H21.7834L21.3707 8.74755C21.1414 8.99214 20.0357 10.1947 18.9045 11.4176L16.8561 13.6342L16.6675 13.3947C16.5656 13.2622 15.949 12.4418 15.3019 11.5756C14.6548 10.7042 13.8395 9.61889 13.493 9.1552L12.8662 8.31443L10.4357 8.29914C9.09554 8.29405 8 8.29914 8 8.31953ZM12.8968 10.266C13.2484 10.7348 14.3541 12.2074 15.3478 13.5374C20.1019 19.9119 21.7223 22.0775 21.7682 22.1335C21.8089 22.1845 21.6102 22.1998 20.8 22.1998H19.7809L17.6968 19.4125C12.8815 12.9667 10.4611 9.73099 10.3541 9.57303L10.2369 9.40997H11.2459H12.2548L12.8968 10.266Z" fill="white"/>
</svg>
