<svg width="33" height="32" viewBox="0 0 33 32" fill="none" xmlns="http://www.w3.org/2000/svg">
<rect x="0.5" y="-0.5" width="31" height="30.0275" rx="15.0138" transform="matrix(1 0 0 -1 0.224609 30.7051)" stroke="#265205"/>
<path d="M8.22461 8.7038C8.22461 8.71909 8.95837 9.70763 9.85009 10.9051C10.7469 12.1025 12.1278 13.9522 12.9227 15.0172L14.3698 16.9535L12.4845 18.9917C11.4501 20.1127 10.0692 21.6006 9.42716 22.2936C8.78002 22.9917 8.24499 23.593 8.2348 23.6337C8.21951 23.6949 8.3469 23.7051 8.94818 23.7051H9.67684L11.3584 21.886C14.6042 18.3751 15.0628 17.886 15.1036 17.9318C15.1291 17.9624 17.31 20.8821 19.1749 23.3841L19.4093 23.7L21.8195 23.7051C23.445 23.7051 24.2246 23.6898 24.2246 23.6541C24.2246 23.6235 23.8883 23.1497 23.4756 22.5943C21.0195 19.2974 18.0284 15.2974 17.9061 15.1446L17.7686 14.9662L17.9775 14.7318C18.1762 14.5076 19.9291 12.6121 22.3851 9.95731C22.9915 9.30508 23.4959 8.74966 23.501 8.72419C23.5112 8.69361 23.231 8.67323 22.7622 8.67833H22.008L21.5953 9.13183C21.366 9.37642 20.2603 10.579 19.1291 11.8019L17.0807 14.0185L16.8921 13.779C16.7902 13.6465 16.1737 12.8261 15.5265 11.9599C14.8794 11.0885 14.0641 10.0032 13.7176 9.53947L13.0909 8.69871L10.6603 8.68342C9.32015 8.67833 8.22461 8.68342 8.22461 8.7038ZM13.1214 10.6503C13.473 11.1191 14.5787 12.5917 15.5724 13.9216C20.3265 20.2962 21.9469 22.4618 21.9928 22.5178C22.0335 22.5688 21.8348 22.5841 21.0246 22.5841H20.0055L17.9214 19.7968C13.1061 13.3509 10.6858 10.1153 10.5787 9.95731L10.4616 9.79425H11.4705H12.4794L13.1214 10.6503Z" fill="#265205"/>
</svg>
