<svg width="33" height="32" viewBox="0 0 33 32" fill="none" xmlns="http://www.w3.org/2000/svg">
<rect x="0.5" y="-0.5" width="31" height="30.0275" rx="15.0138" transform="matrix(1 0 0 -1 0.612427 30.5352)" stroke="#FF9500"/>
<path d="M8.61243 8.53388C8.61243 8.54917 9.34618 9.5377 10.2379 10.7352C11.1347 11.9326 12.5156 13.7823 13.3105 14.8473L14.7576 16.7836L12.8723 18.8218C11.8379 19.9428 10.457 21.4307 9.81497 22.1237C9.16784 22.8218 8.63281 23.4231 8.62262 23.4638C8.60733 23.525 8.73472 23.5352 9.33599 23.5352H10.0647L11.7462 21.716C14.992 18.2052 15.4506 17.716 15.4914 17.7619C15.5169 17.7925 17.6978 20.7122 19.5627 23.2141L19.7971 23.5301L22.2073 23.5352C23.8328 23.5352 24.6124 23.5199 24.6124 23.4842C24.6124 23.4536 24.2761 22.9797 23.8634 22.4243C21.4073 19.1275 18.4162 15.1275 18.294 14.9746L18.1564 14.7963L18.3653 14.5619C18.564 14.3377 20.3169 12.4422 22.7729 9.78739C23.3793 9.13516 23.8838 8.57974 23.8889 8.55426C23.8991 8.52369 23.6188 8.50331 23.15 8.5084H22.3959L21.9831 8.96191C21.7538 9.20649 20.6481 10.409 19.5169 11.632L17.4685 13.8485L17.2799 13.609C17.178 13.4766 16.5615 12.6562 15.9143 11.7899C15.2672 10.9186 14.4519 9.83325 14.1054 9.36955L13.4787 8.52879L11.0481 8.5135C9.70797 8.5084 8.61243 8.5135 8.61243 8.53388ZM13.5092 10.4804C13.8608 10.9492 14.9666 12.4218 15.9602 13.7517C20.7143 20.1262 22.3347 22.2918 22.3806 22.3479C22.4213 22.3989 22.2226 22.4141 21.4124 22.4141H20.3933L18.3092 19.6269C13.494 13.181 11.0736 9.94535 10.9666 9.78739L10.8494 9.62433H11.8583H12.8672L13.5092 10.4804Z" fill="#FF9500"/>
</svg>
