<svg width="33" height="32" viewBox="0 0 33 32" fill="none" xmlns="http://www.w3.org/2000/svg">
<rect x="0.583008" width="31.61" height="32" rx="15.805" fill="#FF9500"/>
<path d="M21.5829 22.5H21.4979C11.6729 21.935 10.2779 13.645 10.0829 11.115C10.0672 10.9183 10.0904 10.7204 10.1513 10.5327C10.2122 10.345 10.3096 10.1712 10.4377 10.0211C10.5659 9.8711 10.7225 9.74784 10.8984 9.65842C11.0743 9.569 11.2661 9.51516 11.4629 9.5H14.2179C14.4182 9.49981 14.6139 9.55976 14.7797 9.67208C14.9455 9.78441 15.0738 9.94394 15.1479 10.13L15.9079 12C15.9811 12.1818 15.9992 12.381 15.9601 12.573C15.921 12.7651 15.8263 12.9413 15.6879 13.08L14.6229 14.155C14.7892 15.1004 15.242 15.9718 15.9198 16.6515C16.5977 17.3311 17.468 17.7862 18.4129 17.955L19.4979 16.88C19.6386 16.7431 19.8166 16.6506 20.0095 16.6142C20.2025 16.5777 20.4019 16.5989 20.5829 16.675L22.4679 17.43C22.6511 17.5064 22.8075 17.6357 22.917 17.8013C23.0266 17.967 23.0843 18.1614 23.0829 18.36V21C23.0829 21.3978 22.9249 21.7794 22.6435 22.0607C22.3622 22.342 21.9807 22.5 21.5829 22.5ZM11.5829 10.5C11.4503 10.5 11.3231 10.5527 11.2293 10.6464C11.1356 10.7402 11.0829 10.8674 11.0829 11V11.04C11.3129 14 12.7879 21 21.5529 21.5C21.6186 21.5041 21.6844 21.4951 21.7466 21.4737C21.8089 21.4522 21.8662 21.4187 21.9155 21.375C21.9647 21.3314 22.0049 21.2784 22.0336 21.2192C22.0623 21.16 22.0791 21.0957 22.0829 21.03V18.36L20.1979 17.605L18.7629 19.03L18.5229 19C14.1729 18.455 13.5829 14.105 13.5829 14.06L13.5529 13.82L14.9729 12.385L14.2229 10.5H11.5829Z" fill="white"/>
</svg>
