<svg width="33" height="32" viewBox="0 0 33 32" fill="none" xmlns="http://www.w3.org/2000/svg">
<rect x="0.775269" width="31.61" height="31.6144" rx="15.805" fill="#FF9500"/>
<path d="M11.3028 10.1466C13.6124 10.0316 15.4086 9.97412 16.6919 9.97412C17.9753 9.97412 19.7724 10.0316 22.0832 10.147C22.6879 10.1772 23.2611 10.4258 23.6963 10.8467C24.1316 11.2675 24.3993 11.832 24.4499 12.4354C24.5557 13.6995 24.6086 14.8129 24.6086 15.7758C24.6086 16.7504 24.5544 17.8791 24.4461 19.1625C24.3958 19.7589 24.1332 20.3174 23.706 20.7367C23.2788 21.1559 22.7154 21.408 22.1182 21.447C20.1428 21.5762 18.334 21.6408 16.6919 21.6408C15.0503 21.6408 13.2419 21.5762 11.2678 21.447C10.6707 21.408 10.1075 21.1561 9.68031 20.7371C9.25316 20.3182 8.99043 19.7599 8.93985 19.1637C8.83027 17.8708 8.77527 16.7412 8.77527 15.7758C8.77527 14.8216 8.82902 13.7079 8.93569 12.4341C8.98639 11.8309 9.25421 11.2666 9.68945 10.8459C10.1247 10.4253 10.6978 10.1768 11.3024 10.1466H11.3028Z" fill="white" stroke="#FF9500" stroke-width="1.66667" stroke-linejoin="round"/>
<path d="M15.4427 13.9785V17.6435C15.4427 17.708 15.4602 17.7714 15.4933 17.8268C15.5264 17.8822 15.5739 17.9276 15.6308 17.9581C15.6876 17.9887 15.7517 18.0033 15.8161 18.0003C15.8806 17.9974 15.9431 17.977 15.9969 17.9414L18.7457 16.1247C18.7948 16.0923 18.8352 16.0483 18.8632 15.9965C18.8912 15.9448 18.906 15.8869 18.9062 15.8281C18.9064 15.7693 18.8921 15.7113 18.8646 15.6593C18.837 15.6073 18.797 15.5629 18.7482 15.5301L15.999 13.6818C15.9453 13.6457 15.8827 13.6249 15.8181 13.6216C15.7534 13.6183 15.6891 13.6326 15.632 13.663C15.5748 13.6934 15.5271 13.7388 15.4937 13.7943C15.4604 13.8498 15.4428 13.9133 15.4427 13.978V13.9785Z" fill="white" stroke="#FF9500" stroke-linejoin="round"/>
</svg>
