<svg width="32" height="32" viewBox="0 0 32 32" fill="none" xmlns="http://www.w3.org/2000/svg">
<rect x="0.5" y="0.884766" width="30.61" height="30.6144" rx="15.305" stroke="#265205"/>
<path d="M10.5275 10.5319C12.8371 10.4169 14.6333 10.3594 15.9167 10.3594C17.2 10.3594 18.9971 10.4169 21.3079 10.5323C21.9126 10.5625 22.4858 10.8111 22.9211 11.2319C23.3563 11.6528 23.6241 12.2173 23.6746 12.8206C23.7804 14.0848 23.8333 15.1981 23.8333 16.161C23.8333 17.1356 23.7792 18.2644 23.6708 19.5477C23.6205 20.1441 23.3579 20.7027 22.9308 21.1219C22.5036 21.5412 21.9402 21.7932 21.3429 21.8323C19.3675 21.9615 17.5587 22.026 15.9167 22.026C14.275 22.026 12.4667 21.9615 10.4925 21.8323C9.89545 21.7932 9.33219 21.5414 8.90504 21.1224C8.47789 20.7034 8.21516 20.1451 8.16458 19.549C8.055 18.256 8 17.1265 8 16.161C8 15.2069 8.05375 14.0931 8.16042 12.8194C8.21112 12.2162 8.47894 11.6519 8.91419 11.2312C9.34943 10.8105 9.92252 10.562 10.5271 10.5319H10.5275Z" stroke="#265205" stroke-width="1.66667" stroke-linejoin="round"/>
<path d="M14.668 14.3632V18.0282C14.6679 18.0928 14.6854 18.1561 14.7185 18.2115C14.7516 18.2669 14.7991 18.3123 14.856 18.3429C14.9128 18.3735 14.9769 18.388 15.0414 18.3851C15.1058 18.3821 15.1683 18.3618 15.2221 18.3261L17.9709 16.5095C18.02 16.4771 18.0604 16.4331 18.0884 16.3813C18.1164 16.3296 18.1312 16.2717 18.1314 16.2129C18.1317 16.154 18.1174 16.096 18.0898 16.044C18.0622 15.9921 18.0222 15.9477 17.9734 15.9149L15.2242 14.0666C15.1705 14.0305 15.108 14.0096 15.0433 14.0063C14.9787 14.003 14.9143 14.0173 14.8572 14.0478C14.8001 14.0782 14.7523 14.1236 14.7189 14.1791C14.6856 14.2346 14.668 14.2981 14.668 14.3628V14.3632Z" stroke="#265205" stroke-linejoin="round"/>
</svg>
