<svg width="32" height="32" viewBox="0 0 32 32" fill="none" xmlns="http://www.w3.org/2000/svg">
<rect x="0.887695" y="0.714355" width="30.61" height="30.6144" rx="15.305" stroke="#FF9500"/>
<path d="M10.9152 10.361C13.2248 10.246 15.021 10.1885 16.3044 10.1885C17.5877 10.1885 19.3848 10.246 21.6956 10.3614C22.3003 10.3916 22.8735 10.6402 23.3088 11.061C23.744 11.4819 24.0118 12.0464 24.0623 12.6497C24.1681 13.9139 24.221 15.0272 24.221 15.9901C24.221 16.9647 24.1669 18.0935 24.0585 19.3768C24.0082 19.9732 23.7456 20.5318 23.3185 20.951C22.8913 21.3703 22.3279 21.6223 21.7306 21.6614C19.7552 21.7906 17.9464 21.8551 16.3044 21.8551C14.6627 21.8551 12.8544 21.7906 10.8802 21.6614C10.2831 21.6223 9.71989 21.3705 9.29274 20.9515C8.86558 20.5325 8.60286 19.9742 8.55228 19.3781C8.4427 18.0851 8.3877 16.9556 8.3877 15.9901C8.3877 15.036 8.44145 13.9222 8.54811 12.6485C8.59881 12.0453 8.86664 11.481 9.30188 11.0603C9.73712 10.6396 10.3102 10.3911 10.9148 10.361H10.9152Z" stroke="#FF9500" stroke-width="1.66667" stroke-linejoin="round"/>
<path d="M15.0552 14.1928V17.8578C15.0551 17.9224 15.0726 17.9857 15.1057 18.0411C15.1388 18.0965 15.1863 18.1419 15.2432 18.1725C15.3 18.203 15.3641 18.2176 15.4286 18.2147C15.493 18.2117 15.5555 18.1914 15.6093 18.1557L18.3581 16.3391C18.4072 16.3067 18.4476 16.2627 18.4756 16.2109C18.5036 16.1592 18.5184 16.1013 18.5186 16.0424C18.5189 15.9836 18.5046 15.9256 18.477 15.8736C18.4494 15.8216 18.4094 15.7773 18.3606 15.7445L15.6114 13.8962C15.5577 13.86 15.4952 13.8392 15.4305 13.8359C15.3659 13.8326 15.3015 13.8469 15.2444 13.8774C15.1873 13.9078 15.1395 13.9532 15.1061 14.0087C15.0728 14.0642 15.0552 14.1277 15.0552 14.1924V14.1928Z" stroke="#FF9500" stroke-linejoin="round"/>
</svg>
