<svg width="72" height="59" viewBox="0 0 72 59" fill="none" xmlns="http://www.w3.org/2000/svg">
<g clip-path="url(#clip0_912_1961)">
<path fill-rule="evenodd" clip-rule="evenodd" d="M30.6836 27.9295L29.6012 28.3586C27.7156 26.8176 25.1374 23.1287 23.4697 22.3899C22.0563 21.7638 20.8486 22.2132 19.8594 23.8035C19.9211 23.009 20.2531 22.3505 20.9835 21.8925C21.5589 21.5317 22.2126 21.4817 22.8759 21.5821C24.0229 21.7558 25.0789 22.4726 26.0915 23.4404C25.4974 22.5933 24.7535 21.8023 24.1505 20.9586C23.4176 19.9331 23.0564 19.056 23.0627 17.7724C23.0647 17.3553 23.1145 16.9454 23.2051 16.5416C23.5038 18.627 24.093 20.3427 25.128 21.1109C24.2622 19.1898 23.8903 17.1471 24.5171 14.8582C25.1116 12.8249 27.5479 11.0005 29.2076 12.7786C29.3981 13.0247 29.5338 13.2712 29.6109 13.5179C29.7474 13.9549 29.6998 14.3923 29.4469 14.8284C28.9221 15.9962 27.8771 16.0245 27.2538 17.3797C26.4964 19.0266 26.8095 21.1952 27.83 23.0442C29.0078 25.0239 30.4196 26.5604 32.094 27.5994L31.3724 27.7644C30.9458 27.4246 30.5228 27.065 30.1059 26.6741C28.8341 25.4816 27.2366 23.6159 26.6842 21.9194C26.6467 21.8042 26.6114 21.6862 26.5784 21.5653C26.2648 20.418 26.1199 19.0234 26.4378 17.8631C26.677 16.9901 27.1776 16.288 28.0909 15.6649C29.6339 14.6122 29.6017 12.9165 27.8964 12.6003C26.8921 12.414 25.819 13.3455 25.265 14.3837C24.8167 15.2236 24.7257 16.3222 24.7898 17.2574C24.8331 17.8889 24.9539 18.4921 25.1075 19.0832C25.1402 18.1527 25.2812 17.2666 25.5615 16.4376C25.997 15.1497 26.8254 13.6606 28.3895 14.6252C26.8301 14.6066 25.9214 15.7681 25.7635 18.7201C25.768 20.6064 26.2167 22.2616 27.01 23.7374C28.0227 25.4901 29.3225 26.7613 30.6837 27.9294L30.6836 27.9295Z" fill="#1B1F26"/>
<path fill-rule="evenodd" clip-rule="evenodd" d="M28.9481 28.5483L28.3942 28.7872C27.4396 27.8492 26.4904 26.845 25.5374 25.8872C24.8962 25.2427 23.4746 23.7011 22.6283 23.4682C21.2874 23.0992 20.762 24.7948 21.4712 25.5364C21.9351 26.0216 22.4606 25.9576 22.9203 25.4821C22.8824 26.2614 22.0532 26.2842 21.5056 26.0103C20.6616 25.5882 20.4564 24.4436 20.9417 23.6902C21.1885 23.2927 21.5355 23.0184 22.0365 22.9336C22.5654 22.8995 23.0598 22.9804 23.4732 23.2624C24.7828 24.1556 27.581 27.3063 28.9481 28.5483L28.9481 28.5483Z" fill="#1B1F26"/>
<path fill-rule="evenodd" clip-rule="evenodd" d="M23.2822 24.7411C23.7934 24.9934 23.7804 25.57 23.5486 26.0542C23.2127 26.7562 22.4866 27.1152 21.7252 27.0456C20.6228 26.9447 19.5717 26.0247 19.1053 25.0454C18.8676 24.5463 18.7426 23.9916 18.7393 23.4072C18.7356 22.7477 18.9062 22.0876 19.2504 21.4314C19.8369 20.313 20.8325 19.3932 22.0956 19.1898C21.4212 18.2729 21.3638 16.9004 21.8596 15.8882C22.36 14.8665 23.3952 14.2123 24.6847 14.3961L24.5169 14.858C23.3555 14.586 22.5607 15.3042 22.2108 16.2734C21.6919 17.7105 22.2085 18.4888 22.7826 19.7345C21.7468 19.2923 20.4685 20.3341 19.7642 21.557C19.1739 22.8222 19.2856 23.9911 19.7017 25.1181C20.161 26.0136 21.0029 26.6962 21.9176 26.6766C23.0491 26.6522 23.6048 25.83 23.2822 24.7411H23.2822Z" fill="#1B1F26"/>
<path fill-rule="evenodd" clip-rule="evenodd" d="M20.5202 29.4534C20.5057 29.1394 20.5844 28.9107 20.7757 28.785C20.5364 32.4872 26.2052 30.3967 27.9028 29.5305C32.6231 27.359 37.5305 26.74 42.7958 29.0935C45.6534 30.4731 48.3027 31.4994 49.974 30.8673C50.8718 30.433 51.3071 29.7414 51.1747 28.7336C51.6585 29.2277 51.6335 29.855 51.0214 30.6359C48.8453 32.9979 44.8004 30.8278 42.2299 30.0042C38.6745 28.8649 35.0537 28.1134 29.883 29.7997C28.1058 30.3792 26.2841 31.5359 24.5158 31.64C23.7545 31.6849 22.9931 31.5977 22.2318 31.3557C21.7452 31.2046 21.3034 30.9408 20.929 30.5074C20.7008 30.2485 20.5613 29.9005 20.5202 29.4534V29.4534Z" fill="#1B1F26"/>
<path fill-rule="evenodd" clip-rule="evenodd" d="M42.1425 13.2853L29.7501 13.2241C28.6264 10.3638 27.2179 7.84375 25.5586 5.62346C26.5528 6.23456 27.547 6.84567 28.5411 7.45676C28.7956 7.61319 29.0501 7.76964 29.3046 7.92607C29.2371 8.12304 29.1696 8.32002 29.1022 8.51701L27.4456 7.41641C27.6656 8.15006 29.1052 10.5404 30.0817 10.0405C30.6487 9.75017 30.5398 9.3634 30.5398 8.82267C30.375 8.88882 30.1474 8.90446 29.9323 8.68003C29.8422 8.14316 30.5429 8.1748 30.6411 7.60005L31.1675 7.94645C31.9109 8.21833 31.9493 8.64226 31.1068 8.74115C31.2746 9.41665 31.1972 9.73025 31.9227 9.96649C32.8663 10.2738 33.804 9.61521 34.46 8.74532C34.7373 8.37752 34.9643 7.97195 35.12 7.58561C35.2745 7.20218 35.2462 7.21247 34.9813 6.8721C34.8179 6.66216 34.6558 6.5172 34.4947 6.43334C34.1154 6.23571 33.7423 6.37701 33.3747 6.80532C34.2685 7.03345 33.4127 7.99447 32.8785 7.41962C32.5459 7.06173 32.6454 6.59356 32.8795 6.21082C33.3721 5.40524 34.4871 5.40452 35.2781 6.17364C33.9129 4.3605 35.1568 2.56246 35.9463 0.814453L36.5517 2.3108C37.1319 3.74476 37.6304 4.70699 36.5943 6.17364C37.2823 5.42924 38.3701 5.40107 38.9201 6.31067C39.1558 6.70041 39.2141 7.29165 38.7345 7.51684C38.3517 7.69655 37.908 7.35481 38.1535 7.04984C38.3668 6.74928 38.4236 6.69896 38.0332 6.43327C37.7474 6.23875 37.4653 6.30269 37.1859 6.54701C36.5587 7.09531 36.618 7.28565 36.9482 7.96854C38.0866 10.3229 40.662 10.8585 40.7858 8.82265C40.6462 8.78111 40.5278 8.72801 40.4316 8.66293C39.8879 8.29497 40.157 8.13829 40.5419 8.02589C40.8796 7.92728 40.8997 7.68185 41.1503 7.31472C41.2594 7.61601 41.4292 7.85064 41.65 8.02918C41.9346 8.25922 42.3247 8.21133 41.9145 8.63106C41.7636 8.78551 41.6165 8.84542 41.3668 8.80889C41.3911 9.69938 40.9515 10.1426 41.6415 10.1023C41.8185 10.092 41.9925 10.0967 42.1611 10.0592C43.1185 9.8462 43.7987 8.23177 44.3294 7.45739L42.588 8.59851L42.3248 8.21135L46.6985 5.3178C44.1618 8.05243 42.6709 10.7061 42.1425 13.2853L42.1425 13.2853ZM31.7605 11.5231C32.0068 11.5231 32.2065 11.724 32.2065 11.9719C32.2065 12.2198 32.0068 12.4208 31.7605 12.4208C31.5141 12.4208 31.3144 12.2198 31.3144 11.9719C31.3144 11.724 31.5141 11.5231 31.7605 11.5231ZM40.2095 11.5231C40.4559 11.5231 40.6556 11.724 40.6556 11.9719C40.6556 12.2198 40.4559 12.4208 40.2095 12.4208C39.9632 12.4208 39.7635 12.2198 39.7635 11.9719C39.7635 11.724 39.9632 11.5231 40.2095 11.5231ZM35.9636 9.78803C35.5673 10.4619 34.838 10.9904 35.2217 11.755C35.5732 12.4553 36.5935 12.39 36.7849 11.5895C36.9481 10.9077 36.3248 10.3122 35.9636 9.78805L35.9636 9.78803ZM35.9552 6.59708C36.4873 5.28634 37.1825 4.24167 35.9453 3.05046C34.903 4.24791 35.245 5.32512 35.9552 6.59708Z" fill="#1B1F26"/>
<path fill-rule="evenodd" clip-rule="evenodd" d="M29.8493 14.0021L29.8193 13.6108H42.0116L41.9418 14.0021H29.8493Z" fill="#1B1F26"/>
<path fill-rule="evenodd" clip-rule="evenodd" d="M41.3167 27.9295L42.3991 28.3586C44.2847 26.8176 46.8629 23.1287 48.5306 22.3899C49.944 21.7638 51.1516 22.2132 52.1409 23.8035C52.0792 23.009 51.7472 22.3505 51.0168 21.8925C50.4414 21.5317 49.7877 21.4817 49.1244 21.5821C47.9774 21.7558 46.9214 22.4726 45.9088 23.4404C46.5029 22.5933 47.2468 21.8023 47.8498 20.9586C48.5827 19.9331 48.9439 19.056 48.9376 17.7724C48.9356 17.3553 48.8858 16.9454 48.7952 16.5416C48.4965 18.627 47.9073 20.3427 46.8723 21.1109C47.7381 19.1898 48.11 17.1471 47.4832 14.8582C46.8887 12.8249 44.4524 11.0005 42.7927 12.7786C42.6022 13.0247 42.4665 13.2712 42.3894 13.5179C42.2529 13.9549 42.3005 14.3923 42.5534 14.8284C43.0782 15.9962 44.1232 16.0245 44.7465 17.3797C45.5039 19.0266 45.1908 21.1952 44.1703 23.0442C42.9925 25.0239 41.5807 26.5604 39.9062 27.5994L40.6279 27.7644C41.0545 27.4246 41.4775 27.065 41.8944 26.6741C43.1662 25.4816 44.7637 23.6159 45.3161 21.9194C45.3536 21.8042 45.3889 21.6862 45.4219 21.5653C45.7355 20.418 45.8804 19.0234 45.5625 17.8631C45.3233 16.9901 44.8227 16.288 43.9094 15.6649C42.3664 14.6122 42.3986 12.9165 44.1039 12.6003C45.1082 12.414 46.1813 13.3455 46.7353 14.3837C47.1836 15.2236 47.2746 16.3222 47.2105 17.2574C47.1672 17.8889 47.0464 18.4921 46.8928 19.0832C46.8601 18.1527 46.7191 17.2666 46.4388 16.4376C46.0033 15.1497 45.1749 13.6606 43.6108 14.6252C45.1702 14.6066 46.0789 15.7681 46.2367 18.7201C46.2323 20.6064 45.7836 22.2616 44.9903 23.7374C43.9776 25.4901 42.6778 26.7613 41.3166 27.9294L41.3167 27.9295Z" fill="#1B1F26"/>
<path fill-rule="evenodd" clip-rule="evenodd" d="M43.0518 28.5483L43.6057 28.7872C44.5603 27.8492 45.5095 26.845 46.4625 25.8872C47.1037 25.2427 48.5253 23.7011 49.3716 23.4682C50.7125 23.0992 51.2379 24.7948 50.5287 25.5364C50.0648 26.0216 49.5393 25.9576 49.0796 25.4821C49.1175 26.2614 49.9467 26.2842 50.4943 26.0103C51.3383 25.5882 51.5435 24.4436 51.0581 23.6902C50.8114 23.2927 50.4644 23.0184 49.9634 22.9336C49.4345 22.8995 48.9401 22.9804 48.5267 23.2624C47.217 24.1556 44.4188 27.3063 43.0518 28.5483L43.0518 28.5483Z" fill="#1B1F26"/>
<path fill-rule="evenodd" clip-rule="evenodd" d="M48.7179 24.7411C48.2067 24.9934 48.2196 25.57 48.4514 26.0542C48.7874 26.7562 49.5135 27.1152 50.2749 27.0456C51.3773 26.9447 52.4284 26.0247 52.8948 25.0454C53.1325 24.5463 53.2575 23.9916 53.2608 23.4072C53.2645 22.7477 53.0939 22.0876 52.7497 21.4314C52.1632 20.313 51.1676 19.3932 49.9045 19.1898C50.5789 18.2729 50.6362 16.9004 50.1405 15.8882C49.6401 14.8665 48.6048 14.2123 47.3154 14.3961L47.4832 14.858C48.6446 14.586 49.4393 15.3042 49.7893 16.2734C50.3082 17.7105 49.7916 18.4888 49.2175 19.7345C50.2533 19.2923 51.5316 20.3341 52.2359 21.557C52.8262 22.8222 52.7145 23.9911 52.2983 25.1181C51.8391 26.0136 50.9971 26.6962 50.0825 26.6766C48.951 26.6522 48.3953 25.83 48.7179 24.7411H48.7179Z" fill="#1B1F26"/>
<path d="M37.0835 19.9912C37.9063 19.7694 39.0671 19.1928 39.0671 17.788C39.0671 17.1078 38.7733 16.4572 38.2443 16.1024C37.7888 15.777 37.1423 15.5996 36.0403 15.5996H32.264V16.0136C33.4395 16.1024 33.4983 16.1911 33.4983 17.4184V23.3773C33.4983 24.6194 33.4101 24.7081 32.1465 24.7969V25.2109H35.3938C36.5546 25.2109 37.5243 25.0334 38.2737 24.6194C39.1406 24.1315 39.6843 23.3773 39.6843 22.3866C39.6843 20.908 38.5382 20.2574 37.0835 20.0356V19.9912L37.0835 19.9912ZM34.7325 19.8581V16.96C34.7325 16.472 34.7913 16.3094 34.9236 16.2206C35.0705 16.1319 35.3937 16.0728 35.7611 16.0728C37.157 16.0728 37.7153 16.96 37.7153 17.9655C37.7153 19.2075 37.0394 19.8581 35.4231 19.8581H34.7325ZM34.7325 20.3461H35.4084C37.2011 20.3461 38.2296 21.0115 38.2296 22.5345C38.2296 24.0723 37.157 24.6934 35.9521 24.7082C35.0117 24.7082 34.7325 24.4272 34.7325 23.3626V20.3461Z" fill="#1B1F26"/>
<path d="M6.72604 39.9328C7.9955 39.6659 9.54919 38.9032 9.54919 37.0918C9.54919 36.1766 9.13234 35.3758 8.45025 34.9181C7.76814 34.4605 6.85867 34.2698 5.41867 34.2698H0.132386V34.88C1.53448 35.0135 1.66711 35.1279 1.66711 36.7486V44.1848C1.66711 45.7865 1.51552 45.9199 -0.000244141 46.0343V46.6635H4.58502C6.13868 46.6635 7.52184 46.4157 8.48815 45.8627C9.56815 45.2717 10.2692 44.2802 10.2692 43.0027C10.2692 41.1531 8.81026 40.276 6.72606 40.0091V39.9328H6.72604ZM3.84605 39.7422V36.0813C3.84605 35.5855 3.90289 35.3376 4.05448 35.2042C4.18711 35.0898 4.52816 34.9944 4.96395 34.9944C6.29027 34.9944 7.19974 35.8143 7.19974 37.3969C7.19974 38.9795 6.36607 39.7422 4.43343 39.7422H3.84607L3.84605 39.7422ZM3.84605 40.4667H4.39553C6.61237 40.4667 7.80604 41.3438 7.80604 43.1933C7.80604 45.1191 6.53657 45.9009 5.30498 45.9199C4.20604 45.939 3.84605 45.5386 3.84605 44.1467V40.4667ZM23.3239 46.2632C22.8881 46.1297 22.5281 45.9009 22.0923 45.4242C21.6754 44.9857 21.2776 44.4136 20.6144 43.384C20.046 42.5069 19.307 41.2485 19.0039 40.6574C20.3302 40.1045 21.3913 39.1511 21.3913 37.4923C21.3913 36.3101 20.8797 35.4711 20.1218 34.9563C19.3828 34.4415 18.4355 34.2699 16.8628 34.2699H11.785V34.88C13.1871 35.0135 13.3576 35.166 13.3576 36.7296V44.1848C13.3576 45.7674 13.1681 45.9199 11.7092 46.0534V46.6636H17.147V46.0534C15.6881 45.92 15.5176 45.7674 15.5176 44.1848V41.3057H15.9534C16.7113 41.3057 17.0334 41.5536 17.3555 42.1065C17.9049 43.0789 18.4734 44.1658 19.0228 45.0047C19.8376 46.225 20.5765 46.7208 22.6228 46.8161C22.8502 46.8161 23.0586 46.8352 23.2102 46.8352L23.3238 46.2631L23.3239 46.2632ZM15.5176 40.6002V35.9287C15.5176 35.4902 15.5555 35.2804 15.6881 35.1661C15.8207 35.0517 16.105 34.9754 16.6165 34.9754C17.8102 34.9754 19.0418 35.719 19.0418 37.7783C19.0418 38.7698 18.7576 39.5325 18.0944 40.0854C17.6397 40.4668 17.0144 40.6002 16.1618 40.6002H15.5176V40.6002ZM34.3701 34.2699H30.0502V34.88C31.4712 35.0516 31.5091 35.2614 31.1681 36.1003C30.6754 37.2635 29.6902 39.0939 29.1028 40.2379C28.326 38.827 27.4923 37.3588 26.7912 35.9478C26.4502 35.2804 26.4123 35.0516 27.7007 34.88V34.2699H22.6039V34.88C23.6839 35.0135 23.9681 35.2233 24.6881 36.5008C25.787 38.4265 26.4691 39.685 27.0376 40.7718C27.2649 41.2294 27.3407 41.401 27.3407 41.8586V44.1276C27.3407 45.8056 27.1702 45.939 25.5407 46.0534V46.6636H31.3954V46.0534C29.6902 45.92 29.5386 45.8056 29.5386 44.1276V41.6108C29.5386 41.0769 29.5954 40.8481 29.8607 40.3523C30.7891 38.5982 31.3386 37.6639 32.0965 36.4436C32.8165 35.3186 33.1386 35.0135 34.3701 34.88V34.2699ZM45.5112 46.6636V46.0534C44.2985 45.92 44.0522 45.6912 43.427 44.0133C42.1954 40.7337 41.0017 37.3016 39.808 33.9839L38.9743 34.2127L35.0712 44.0705C34.427 45.7102 34.1807 45.9009 32.9491 46.0534V46.6636H37.1365V46.0534C35.7533 45.8818 35.6586 45.653 35.9807 44.6234C36.208 43.8607 36.4733 43.1171 36.7196 42.4307H40.4901C40.8312 43.3459 41.1533 44.242 41.3617 44.8713C41.6459 45.6721 41.5133 45.8818 40.3764 46.0534V46.6636H45.5112ZM40.187 41.4964H37.0228C37.5533 40.0663 38.0649 38.5791 38.6333 37.1109H38.6712L40.187 41.4964ZM59.5322 34.2699H54.9659V34.88C56.3301 34.9563 56.7469 35.2423 56.8416 36.0813C56.8795 36.6342 56.9743 37.5304 56.9743 39.2274V43.0789H56.9174L49.4333 34.2699H46.1933V34.88C47.027 34.9563 47.4438 35.1088 47.8227 35.5855C48.1638 36.0241 48.2017 36.272 48.2017 37.5876V41.6298C48.2017 43.3459 48.107 44.2039 48.0312 44.8331C47.9554 45.6911 47.5006 45.9772 46.4396 46.0534V46.6636H51.0059V46.0534C49.6606 45.9772 49.2817 45.6721 49.1869 44.7759C49.1301 44.2039 49.0543 43.3459 49.0543 41.6298V37.1681H49.0922L57.0501 46.8543H57.8459V39.2274C57.8459 37.5113 57.9216 36.6342 57.9974 36.0431C58.0921 35.1851 58.509 34.9372 59.5321 34.88V34.2699L59.5322 34.2699ZM71.9995 46.6636V46.0534C70.7869 45.92 70.5406 45.6912 69.9153 44.0133C68.6837 40.7337 67.49 37.3016 66.2963 33.9839L65.4627 34.2127L61.5595 44.0705C60.9153 45.7102 60.669 45.9009 59.4374 46.0534V46.6636H63.6248V46.0534C62.2416 45.8818 62.1469 45.653 62.469 44.6234C62.6964 43.8607 62.9616 43.1171 63.2079 42.4307H66.9785C67.3195 43.3459 67.6416 44.242 67.85 44.8713C68.1342 45.6721 68.0016 45.8818 66.8648 46.0534V46.6636H71.9995ZM66.6753 41.4964H63.5111C64.0416 40.0663 64.5532 38.5791 65.1216 37.1109H65.1595L66.6753 41.4964Z" fill="#1B1F26"/>
<path d="M10.9819 52.4104C10.8848 52.3748 10.8098 52.3215 10.7127 52.2194C10.6289 52.1261 10.5318 51.984 10.3773 51.7353C10.2449 51.531 10.0816 51.2379 10.0154 51.1046C10.3111 50.9847 10.5671 50.7716 10.5671 50.3807C10.5671 50.1054 10.4479 49.9099 10.2714 49.79C10.0905 49.6701 9.86979 49.6257 9.48142 49.6257H8.24128V49.7812C8.56344 49.8122 8.60317 49.8566 8.60317 50.212V51.9174C8.60317 52.286 8.55463 52.326 8.22363 52.3571V52.5125H9.55644V52.3571C9.22103 52.326 9.1813 52.286 9.1813 51.9174V51.269H9.26515C9.40638 51.269 9.48582 51.3267 9.55644 51.46C9.68444 51.6953 9.80358 51.9352 9.91833 52.1173C10.0993 52.3971 10.267 52.5214 10.8231 52.5481C10.8804 52.5481 10.929 52.5525 10.9555 52.5525L10.9819 52.4104V52.4104ZM9.1813 51.0913V50.0121C9.1813 49.9188 9.19013 49.8744 9.22103 49.8478C9.24751 49.8211 9.3093 49.8034 9.41963 49.8034C9.66677 49.8034 9.94039 49.9721 9.94039 50.4473C9.94039 50.6738 9.8786 50.8515 9.72856 50.9758C9.63146 51.0602 9.48142 51.0913 9.29605 51.0913H9.1813V51.0913ZM13.845 51.7442C13.7656 51.9396 13.6861 52.0817 13.5978 52.1794C13.4963 52.2905 13.3419 52.3216 13.1124 52.3216C12.9447 52.3216 12.7946 52.3127 12.7152 52.2771C12.6269 52.2327 12.6093 52.1262 12.6093 51.913V51.1402H12.9049C13.2801 51.1402 13.3375 51.1579 13.3948 51.4777H13.5537V50.585H13.3948C13.3375 50.8959 13.2757 50.9181 12.9049 50.9181H12.6093V49.9766C12.6093 49.83 12.6269 49.8211 12.7902 49.8211H13.002C13.2492 49.8211 13.3683 49.8522 13.4434 49.9322C13.5228 50.0121 13.5802 50.1587 13.6199 50.3141L13.7832 50.2919C13.7656 50.0165 13.7435 49.7057 13.7391 49.6257H11.6604V49.7812C11.9737 49.8078 12.0179 49.83 12.0179 50.2164V51.9219C12.0179 52.2994 11.9737 52.326 11.5986 52.3571V52.5126H13.8494C13.8847 52.3793 13.973 51.9752 14.0039 51.7753L13.845 51.7442V51.7442ZM16.505 50.3141C16.4697 50.0387 16.4388 49.8389 16.4211 49.6746C16.3417 49.6479 16.0902 49.5591 15.8077 49.5591C15.181 49.5591 14.7971 49.941 14.7971 50.4296C14.7971 50.8559 15.1148 51.0958 15.565 51.3267C15.896 51.5043 16.0902 51.6687 16.0902 51.9307C16.0902 52.2149 15.918 52.4015 15.6488 52.4015C15.2251 52.4015 14.9648 51.8996 14.8765 51.6154L14.722 51.6687C14.7529 51.9351 14.8103 52.3082 14.8544 52.4192C14.9118 52.4459 14.9957 52.4814 15.1192 52.517C15.2516 52.5569 15.4061 52.5791 15.565 52.5791C16.2093 52.5791 16.6374 52.1839 16.6374 51.6776C16.6374 51.2379 16.3196 50.9892 15.8562 50.7627C15.4679 50.5628 15.309 50.4251 15.309 50.1809C15.309 49.9233 15.4899 49.7412 15.7371 49.7412C16.0946 49.7412 16.2623 50.0698 16.3505 50.3496L16.505 50.3141H16.505ZM19.0282 49.5635C18.0176 49.5635 17.4747 50.3141 17.4747 51.078C17.4747 51.9263 18.0882 52.5791 18.9709 52.5791C19.805 52.5791 20.489 51.9973 20.489 51.038C20.489 50.1631 19.8314 49.5635 19.0282 49.5635ZM18.94 49.7501C19.4563 49.7501 19.8094 50.2786 19.8094 51.1624C19.8094 51.9796 19.4696 52.3926 19.0503 52.3926C18.4854 52.3926 18.1544 51.7531 18.1544 50.9892C18.1544 50.2208 18.4986 49.7501 18.94 49.7501ZM24.0317 52.4104C23.9346 52.3748 23.8596 52.3215 23.7625 52.2194C23.6787 52.1261 23.5816 51.984 23.4271 51.7353C23.2947 51.531 23.1314 51.2379 23.0652 51.1046C23.3609 50.9847 23.6169 50.7716 23.6169 50.3807C23.6169 50.1054 23.4977 49.9099 23.3212 49.79C23.1403 49.6701 22.9196 49.6257 22.5312 49.6257H21.2911V49.7812C21.6132 49.8122 21.6529 49.8566 21.6529 50.212V51.9174C21.6529 52.286 21.6044 52.326 21.2734 52.3571V52.5125H22.6062V52.3571C22.2708 52.326 22.2311 52.286 22.2311 51.9174V51.269H22.3149C22.4562 51.269 22.5356 51.3267 22.6062 51.46C22.7342 51.6953 22.8534 51.9352 22.9681 52.1173C23.149 52.3971 23.3168 52.5214 23.8728 52.5481C23.9302 52.5481 23.9788 52.5525 24.0052 52.5525L24.0317 52.4104V52.4104ZM22.2311 51.0913V50.0121C22.2311 49.9188 22.2399 49.8744 22.2708 49.8478C22.2973 49.8211 22.3591 49.8034 22.4694 49.8034C22.7166 49.8034 22.9902 49.9721 22.9902 50.4473C22.9902 50.6738 22.9284 50.8515 22.7783 50.9758C22.6812 51.0602 22.5312 51.0913 22.3458 51.0913H22.2311V51.0913ZM27.111 50.3763C27.089 50.092 27.0669 49.7012 27.0625 49.5147H26.9521C26.8771 49.5991 26.8153 49.6257 26.7006 49.6257H24.9264C24.7985 49.6257 24.7411 49.6124 24.6749 49.5147H24.5645C24.5557 49.7412 24.5292 50.0654 24.5116 50.3896H24.6749C24.7322 50.1675 24.7852 50.0165 24.8602 49.941C24.922 49.8655 25.0015 49.8211 25.3678 49.8211H25.5178V51.9218C25.5178 52.2993 25.4737 52.326 25.1029 52.3571V52.5125H26.5417V52.3571C26.1533 52.326 26.1092 52.2993 26.1092 51.9218V49.8211H26.3078C26.5682 49.8211 26.6785 49.8433 26.7579 49.9233C26.8374 50.0032 26.8992 50.1542 26.9521 50.3851L27.111 50.3763L27.111 50.3763ZM31.9159 50.6205H30.8699L30.8655 50.7715C31.17 50.8115 31.2009 50.8781 31.1083 51.078C31.042 51.2201 30.9714 51.3445 30.892 51.46C30.5875 51.1668 30.3359 50.9448 30.2079 50.8382C30.3447 50.7449 30.4683 50.6561 30.561 50.5761C30.6757 50.4784 30.7463 50.363 30.7463 50.2075C30.7463 49.8389 30.4418 49.5635 30.0005 49.5635C29.5636 49.5635 29.1973 49.91 29.1973 50.3097C29.1973 50.5717 29.312 50.7671 29.4929 50.9403C29.1046 51.2157 28.8751 51.3756 28.8751 51.7486C28.8751 52.135 29.2017 52.5747 29.7975 52.5747C30.0888 52.5747 30.3756 52.4059 30.6492 52.0462C30.8081 52.2061 30.9361 52.3571 30.9979 52.4148C31.0553 52.4726 31.3201 52.5747 31.757 52.5747L31.7835 52.5214C31.5805 52.2061 31.3024 51.8641 31.02 51.5888C31.1568 51.3933 31.2671 51.2246 31.3907 51.0691C31.5496 50.8604 31.6422 50.7982 31.9159 50.7716V50.6206L31.9159 50.6205ZM29.9564 49.7367C30.1815 49.7367 30.3006 49.9588 30.3006 50.1853C30.3006 50.4606 30.1947 50.6383 30.08 50.736C29.7799 50.5006 29.6607 50.3496 29.6607 50.1276C29.6607 49.9233 29.7887 49.7367 29.9564 49.7367ZM30.0138 52.1705C29.7137 52.1705 29.4224 51.9707 29.4224 51.5443C29.4224 51.3711 29.4886 51.1846 29.6077 51.0558C29.9829 51.3844 30.208 51.5798 30.5301 51.9129C30.4198 52.0506 30.2035 52.1705 30.0138 52.1705L30.0138 52.1705ZM36.3368 52.5125V52.3571C36.0544 52.3215 36.0014 52.2638 35.8514 51.873C35.5645 51.1091 35.2909 50.3363 35.0084 49.5591L34.7834 49.6168L33.8786 51.8996C33.733 52.2727 33.6756 52.3215 33.3843 52.3571V52.5125H34.3729V52.3571C34.0508 52.3171 34.0375 52.2549 34.1037 52.0417C34.1567 51.8641 34.2141 51.7042 34.2626 51.5665H35.1099C35.1762 51.7442 35.2423 51.9351 35.2865 52.0684C35.3571 52.2638 35.335 52.3171 35.0746 52.3571V52.5125H36.3368ZM35.0261 51.3311H34.3376C34.4524 51.0158 34.5627 50.6916 34.6863 50.3674H34.6995L35.0261 51.3311ZM37.1124 49.6257V49.7812C37.4213 49.8122 37.4611 49.8433 37.4611 50.2208V51.9218C37.4611 52.2993 37.4213 52.3304 37.0903 52.3615V52.5125H38.4585V52.3615C38.0833 52.3304 38.0436 52.2993 38.0436 51.9218V51.3089L38.3437 51.3844C38.3922 51.3844 38.4585 51.3844 38.5246 51.3755C38.9924 51.3178 39.4294 51.0469 39.4294 50.4518C39.4294 50.1631 39.3102 49.941 39.1028 49.7989C38.9263 49.6746 38.6791 49.6257 38.3305 49.6257H37.1124ZM38.0436 49.981C38.0436 49.9144 38.0524 49.87 38.0833 49.8433C38.1098 49.8211 38.1628 49.7989 38.2466 49.7989C38.5158 49.7989 38.7939 49.9632 38.7939 50.4651C38.7939 51.0646 38.4408 51.1801 38.2819 51.1801C38.1892 51.1801 38.0966 51.1579 38.0436 51.1357V49.981ZM42.6278 52.5125V52.357C42.3454 52.3215 42.2924 52.2638 42.1424 51.8729C41.8555 51.109 41.5819 50.3363 41.2994 49.559L41.0743 49.6168L40.1696 51.8996C40.024 52.2727 39.9666 52.3215 39.6753 52.357V52.5125H40.6639V52.357C40.3418 52.3171 40.3285 52.2549 40.3947 52.0417C40.4477 51.864 40.505 51.7042 40.5536 51.5665H41.4009C41.4671 51.7441 41.5333 51.9351 41.5775 52.0683C41.6481 52.2638 41.626 52.3171 41.3656 52.357V52.5125H42.6278ZM41.3171 51.3311H40.6286C40.7433 51.0158 40.8537 50.6916 40.9773 50.3674H40.9905L41.3171 51.3311ZM46.1308 52.4104C46.0337 52.3748 45.9587 52.3215 45.8616 52.2194C45.7778 52.1261 45.6807 51.984 45.5262 51.7353C45.3938 51.531 45.2305 51.2379 45.1643 51.1046C45.46 50.9847 45.716 50.7715 45.716 50.3807C45.716 50.1053 45.5968 49.9099 45.4203 49.79C45.2393 49.6701 45.0187 49.6257 44.6303 49.6257H43.3902V49.7811C43.7123 49.8122 43.752 49.8566 43.752 50.2119V51.9174C43.752 52.286 43.7035 52.326 43.3725 52.3571V52.5125H44.7053V52.3571C44.3699 52.326 44.3302 52.286 44.3302 51.9174V51.269H44.414C44.5553 51.269 44.6347 51.3267 44.7053 51.4599C44.8333 51.6953 44.9525 51.9351 45.0672 52.1172C45.2481 52.397 45.4159 52.5214 45.9719 52.548C46.0293 52.548 46.0779 52.5525 46.1043 52.5525L46.1308 52.4104V52.4104ZM44.3302 51.0913V50.0121C44.3302 49.9188 44.339 49.8744 44.3699 49.8478C44.3964 49.8211 44.4582 49.8033 44.5685 49.8033C44.8156 49.8033 45.0893 49.9721 45.0893 50.4473C45.0893 50.6738 45.0275 50.8515 44.8774 50.9758C44.7803 51.0602 44.6303 51.0913 44.4449 51.0913H44.3302V51.0913ZM49.2101 50.3763C49.188 50.092 49.166 49.7012 49.1616 49.5146H49.0512C48.9762 49.599 48.9144 49.6257 48.7997 49.6257H47.0255C46.8975 49.6257 46.8402 49.6123 46.774 49.5146H46.6636C46.6548 49.7412 46.6283 50.0654 46.6107 50.3896H46.774C46.8313 50.1675 46.8843 50.0165 46.9593 49.941C47.0211 49.8655 47.1005 49.8211 47.4669 49.8211H47.6169V51.9218C47.6169 52.2993 47.5728 52.326 47.202 52.357V52.5125H48.6408V52.357C48.2524 52.3259 48.2083 52.2993 48.2083 51.9218V49.8211H48.4069C48.6673 49.8211 48.7776 49.8433 48.857 49.9232C48.9365 50.0032 48.9983 50.1542 49.0512 50.3851L49.2101 50.3762L49.2101 50.3763ZM53.584 52.5125V52.357C53.2397 52.3215 53.2177 52.2904 53.2088 51.8818L53.1691 50.2208C53.1603 49.8522 53.1779 49.8166 53.531 49.7811V49.6257H52.6388L51.773 51.5709L50.9257 49.6257H50.0121V49.7811C50.3917 49.8167 50.4226 49.8788 50.3873 50.3807L50.3167 51.2601C50.2814 51.7264 50.2505 51.9618 50.224 52.0995C50.1931 52.2593 50.1137 52.3348 49.8621 52.3571V52.5125H50.9257V52.3571C50.63 52.3304 50.5462 52.2904 50.5285 52.0906C50.5109 51.9529 50.5064 51.7442 50.5285 51.3755L50.5815 50.2164H50.5991L51.4994 52.4814H51.623L52.5991 50.172H52.6211L52.63 51.8819C52.63 52.2905 52.6079 52.3215 52.2769 52.3571V52.5125H53.584L53.584 52.5125ZM56.5735 51.7441C56.4941 51.9396 56.4146 52.0817 56.3264 52.1794C56.2249 52.2904 56.0704 52.3215 55.8409 52.3215C55.6732 52.3215 55.5232 52.3126 55.4437 52.2771C55.3555 52.2327 55.3378 52.1261 55.3378 51.9129V51.1401H55.6335C56.0086 51.1401 56.066 51.1579 56.1234 51.4777H56.2822V50.585H56.1234C56.066 50.8959 56.0042 50.9181 55.6335 50.9181H55.3378V49.9765C55.3378 49.83 55.3555 49.8211 55.5188 49.8211H55.7306C55.9777 49.8211 56.0969 49.8522 56.1719 49.9321C56.2514 50.0121 56.3087 50.1586 56.3485 50.3141L56.5117 50.2919C56.4941 50.0165 56.472 49.7056 56.4676 49.6257H54.3889V49.7811C54.7023 49.8078 54.7464 49.83 54.7464 50.2164V51.9218C54.7464 52.2993 54.7023 52.326 54.3271 52.3571V52.5125H56.5779C56.6132 52.3793 56.7015 51.9751 56.7324 51.7753L56.5735 51.7442V51.7441ZM60.4781 49.6257H59.4013V49.7767C59.7278 49.7944 59.8161 49.87 59.8382 50.0609C59.8514 50.1897 59.8735 50.3985 59.8735 50.7937V51.5754H59.8602L58.1699 49.6257H57.3535V49.7767C57.5432 49.7944 57.6403 49.83 57.7242 49.9366C57.808 50.0431 57.8125 50.1231 57.8125 50.4162V51.34C57.8125 51.7308 57.786 51.9307 57.7683 52.0772C57.7507 52.2682 57.6491 52.3393 57.402 52.357V52.5125H58.4833V52.357C58.1567 52.3437 58.0817 52.2593 58.0596 52.0639C58.0463 51.9307 58.0243 51.7308 58.0243 51.34V50.3451H58.0375L59.8735 52.5569H60.0853V50.7937C60.0853 50.3984 60.1118 50.1897 60.125 50.052C60.1471 49.8522 60.2398 49.79 60.4781 49.7767V49.6257L60.4781 49.6257ZM63.7737 50.3763C63.7516 50.092 63.7295 49.7012 63.7251 49.5146H63.6148C63.5397 49.599 63.478 49.6257 63.3632 49.6257H61.5891C61.4611 49.6257 61.4037 49.6123 61.3375 49.5146H61.2272C61.2183 49.7412 61.1919 50.0654 61.1742 50.3896H61.3375C61.3949 50.1675 61.4478 50.0165 61.5229 49.941C61.5847 49.8655 61.6641 49.8211 62.0304 49.8211H62.1804V51.9218C62.1804 52.2993 62.1363 52.326 61.7656 52.357V52.5125H63.2043V52.357C62.816 52.3259 62.7718 52.2993 62.7718 51.9218V49.8211H62.9704C63.2308 49.8211 63.3411 49.8433 63.4206 49.9232C63.5 50.0032 63.5618 50.1542 63.6148 50.3851L63.7736 50.3762L63.7737 50.3763Z" fill="#1B1F26"/>
<path d="M14.8949 56.8413C14.8094 56.9979 14.7239 57.127 14.6461 57.2052C14.545 57.3069 14.4322 57.35 14.2495 57.35C14.1017 57.35 14.0162 57.3343 13.9734 57.2913C13.9307 57.2404 13.9346 57.1583 13.9618 57.0213L14.2612 55.4367C14.3117 55.1706 14.3389 55.1354 14.6072 55.1119L14.6344 54.9906H13.5652L13.538 55.1119C13.814 55.1354 13.8373 55.1745 13.7868 55.4367L13.4758 57.0252C13.4174 57.3265 13.3941 57.3578 13.1219 57.3813L13.0908 57.5026H14.7861C14.8405 57.3735 14.9727 57.0096 15.0193 56.8844L14.8949 56.8413H14.8949ZM16.8818 57.0213C16.804 57.0996 16.6913 57.1817 16.6563 57.1817C16.6329 57.1817 16.6291 57.1426 16.6485 57.033C16.7379 56.5713 16.8312 56.1527 16.9362 55.7262H16.8818L16.4774 55.8357C16.4308 56.0823 16.3608 56.3953 16.2986 56.6613C16.2091 56.8374 15.9175 57.2013 15.7698 57.2013C15.7153 57.2013 15.6959 57.1504 15.7348 56.9783C15.797 56.7161 15.867 56.3953 15.9292 56.1292C15.9992 55.8162 15.9603 55.7262 15.8592 55.7262C15.7037 55.7262 15.4354 55.9022 15.2099 56.1175L15.2566 56.227C15.3343 56.1644 15.4432 56.0901 15.4782 56.0901C15.5054 56.0979 15.5093 56.1214 15.486 56.227C15.4199 56.5087 15.3616 56.7591 15.3071 57.0095C15.2022 57.4869 15.3382 57.5495 15.451 57.5495C15.5365 57.5495 15.626 57.5221 15.7076 57.4713C15.8165 57.4126 16.0498 57.2287 16.2481 56.9548H16.2558C16.2403 57.0369 16.2209 57.1113 16.2053 57.1934C16.1586 57.4282 16.1936 57.5495 16.3142 57.5495C16.4658 57.5495 16.7069 57.4048 16.9441 57.1269L16.8818 57.0213L16.8818 57.0213ZM17.3289 56.2701C17.4378 56.1292 17.5 56.0783 17.535 56.0783C17.5661 56.0783 17.5933 56.1135 17.6439 56.3053L17.7527 56.7044C17.5739 57.0096 17.4339 57.1661 17.3561 57.1661C17.3212 57.1661 17.2939 57.1544 17.2667 57.127C17.2473 57.1074 17.2278 57.0878 17.2006 57.0878C17.1306 57.0878 17.0062 57.1817 17.0062 57.3383C17.0023 57.4635 17.0879 57.5495 17.1967 57.5495C17.3834 57.5495 17.5195 57.3735 17.7994 56.8726L17.8811 57.1857C17.951 57.44 18.0444 57.5495 18.161 57.5495C18.2971 57.5495 18.4876 57.4517 18.7092 57.0839L18.6237 57.0017C18.5226 57.1309 18.4448 57.2013 18.4021 57.2013C18.3554 57.2013 18.3126 57.1309 18.2621 56.9352L18.126 56.4461C18.2038 56.3248 18.2699 56.2388 18.3243 56.1762C18.3865 56.1096 18.4293 56.0823 18.4604 56.0823C18.4992 56.0823 18.5304 56.1057 18.5498 56.1253C18.5692 56.1566 18.5887 56.1762 18.6198 56.1762C18.7053 56.1762 18.8181 56.0744 18.822 55.9414C18.8259 55.8162 18.7559 55.7262 18.6392 55.7262C18.4915 55.7262 18.3593 55.8514 18.0716 56.2935L18.0249 56.1214C17.9588 55.8592 17.9005 55.7262 17.7722 55.7262C17.6283 55.7262 17.43 55.8983 17.2473 56.1801L17.3289 56.2701ZM20.6338 57.0213C20.5561 57.0996 20.4433 57.1817 20.4083 57.1817C20.385 57.1817 20.3811 57.1426 20.4006 57.033C20.49 56.5713 20.5833 56.1527 20.6883 55.7262H20.6338L20.2295 55.8357C20.1828 56.0823 20.1128 56.3953 20.0506 56.6613C19.9612 56.8374 19.6696 57.2013 19.5218 57.2013C19.4674 57.2013 19.448 57.1504 19.4869 56.9783C19.5491 56.7161 19.6191 56.3953 19.6813 56.1292C19.7512 55.8162 19.7124 55.7262 19.6113 55.7262C19.4557 55.7262 19.1875 55.9022 18.962 56.1175L19.0086 56.227C19.0864 56.1644 19.1953 56.0901 19.2303 56.0901C19.2575 56.0979 19.2614 56.1214 19.238 56.227C19.1719 56.5087 19.1136 56.7591 19.0592 57.0095C18.9542 57.4869 19.0903 57.5495 19.2031 57.5495C19.2886 57.5495 19.378 57.5221 19.4597 57.4713C19.5685 57.4126 19.8018 57.2287 20.0001 56.9548H20.0079C19.9923 57.0369 19.9729 57.1113 19.9574 57.1934C19.9107 57.4282 19.9457 57.5495 20.0662 57.5495C20.2179 57.5495 20.4589 57.4048 20.6961 57.1269L20.6339 57.0213L20.6338 57.0213ZM21.567 56.3601L21.602 56.1801C21.6681 55.8592 21.6409 55.7262 21.5203 55.7262C21.3843 55.7262 21.1354 55.8905 20.9177 56.1253L20.976 56.2231C21.046 56.1605 21.1626 56.0862 21.1976 56.0862C21.2248 56.0862 21.2287 56.137 21.2054 56.2544C21.1315 56.677 21.0421 57.0839 20.9449 57.5026L20.976 57.5339C21.0888 57.5026 21.2599 57.4674 21.3998 57.4596C21.4387 57.2444 21.4893 56.947 21.5398 56.7357C21.5864 56.5792 21.6603 56.4149 21.7575 56.2701C21.8197 56.1762 21.8508 56.1605 21.8858 56.1605C21.9247 56.1605 21.9753 56.1879 22.0219 56.231C22.0491 56.2583 22.088 56.2623 22.123 56.2349C22.1619 56.2075 22.2047 56.1644 22.2591 56.0862C22.3135 56.0001 22.3252 55.9257 22.2785 55.8396C22.2358 55.7653 22.1697 55.7262 22.0997 55.7262C21.9519 55.7262 21.7808 55.9531 21.5787 56.3601H21.567ZM23.3089 57.1113C23.2933 56.7944 23.2778 56.5166 23.2506 56.2466C23.2156 55.8671 23.1378 55.7262 23.0056 55.7262C22.8423 55.7262 22.644 55.9179 22.4807 56.184L22.5585 56.2818C22.6518 56.1527 22.714 56.0979 22.7412 56.0979C22.7646 56.0979 22.784 56.1371 22.8151 56.3053C22.8734 56.6301 22.9318 57.2796 22.924 57.5887C22.7335 57.8469 22.5157 58.023 22.0958 58.3008L22.1308 58.4143L22.6207 58.2891C22.8657 58.0073 23.0912 57.7061 23.3089 57.3813C23.5305 57.0526 23.7327 56.7357 23.9154 56.4266C24.0165 56.2544 24.0632 56.0979 24.0632 55.9844C24.0632 55.8201 23.9738 55.7262 23.861 55.7262C23.7833 55.7262 23.6977 55.7849 23.6588 55.8631C23.6355 55.914 23.6355 55.9531 23.6588 56.004C23.6861 56.0509 23.7094 56.1175 23.7133 56.2114C23.7094 56.4853 23.5072 56.81 23.3167 57.1113H23.3089L23.3089 57.1113ZM28.5229 57.0487C28.4373 57.123 28.3362 57.1856 28.309 57.1856C28.2935 57.1661 28.274 57.1465 28.3051 57.0174L28.484 56.1879C28.5695 55.7927 28.449 55.7262 28.344 55.7262C28.2546 55.7262 28.1496 55.7692 28.0524 55.8279C27.9124 55.914 27.6908 56.1018 27.4925 56.3757H27.4847C27.5897 55.8749 27.6908 55.378 27.7919 54.885C27.8113 54.7989 27.8075 54.7676 27.7569 54.7676C27.6986 54.7676 27.4964 54.8224 27.3487 54.8693L27.337 54.9123C27.3176 54.975 27.2631 54.9906 27.0298 54.9906H25.5251C25.4357 54.9906 25.4046 54.9828 25.3657 54.8928H25.2685C25.2296 55.0923 25.1596 55.3623 25.0858 55.6166H25.2218C25.2996 55.4366 25.3657 55.3388 25.4279 55.2684C25.494 55.198 25.5835 55.151 25.8128 55.151H26.0578L25.6612 56.9861C25.5951 57.3069 25.5679 57.35 25.284 57.3774L25.2568 57.5026H26.3883L26.4155 57.3774C26.1005 57.35 26.0772 57.3108 26.1433 56.9861L26.5166 55.151H26.6799C26.9365 55.151 27.1193 55.1588 27.2903 55.1745C27.1426 55.9727 26.9832 56.7552 26.8199 57.5182L26.851 57.5495C26.9754 57.5143 27.1348 57.4752 27.2826 57.4634C27.3254 57.2248 27.3915 56.8883 27.4381 56.6848C27.5781 56.4227 27.8814 56.0627 28.0097 56.0627C28.0563 56.0627 28.0641 56.1175 28.0369 56.2544L27.8464 57.1035C27.7686 57.4595 27.8308 57.5495 27.9358 57.5495C28.0602 57.5495 28.3324 57.4204 28.5773 57.1543L28.5229 57.0487H28.5229ZM30.4436 57.0096C30.3581 57.0956 30.2337 57.1856 30.2026 57.1856C30.1792 57.1856 30.1714 57.1543 30.1909 57.0487C30.2764 56.5596 30.3697 56.1449 30.4514 55.8005L30.432 55.7849C30.362 55.7849 30.3036 55.7771 30.222 55.7575C30.1404 55.7379 30.0548 55.7262 29.9926 55.7262C29.7127 55.7262 29.3666 55.9062 29.1955 56.0744C28.9506 56.3209 28.7873 56.7239 28.7873 57.0957C28.7873 57.3969 28.9 57.5496 29.04 57.5496C29.1644 57.5496 29.3044 57.4557 29.421 57.3578C29.5299 57.2639 29.6543 57.1426 29.7865 56.9548H29.7943L29.7554 57.1544C29.6893 57.4909 29.7671 57.5496 29.8527 57.5496C29.9693 57.5496 30.2453 57.4244 30.5059 57.1074L30.4436 57.0096L30.4436 57.0096ZM29.3433 57.2013C29.3005 57.2013 29.2694 57.1504 29.2694 57.0096C29.2694 56.6496 29.39 56.1722 29.6193 55.9766C29.6699 55.9375 29.7204 55.914 29.7943 55.914C29.8682 55.914 29.9421 55.9375 29.9926 55.9649C29.9498 56.1566 29.8915 56.4227 29.8371 56.6457C29.7826 56.7748 29.4677 57.2013 29.3433 57.2013ZM31.855 55.7973H31.4623L31.5984 55.1947L31.5517 55.1673L31.1163 55.4412L31.0307 55.7973H30.8286L30.7158 55.9414L30.7314 55.9844H30.9919L30.7741 56.9978C30.6808 57.4165 30.7741 57.5495 30.9024 57.5495C31.1124 57.5495 31.4351 57.3109 31.579 57.1113L31.5207 57.0096C31.4235 57.1035 31.2718 57.2091 31.2252 57.2091C31.1902 57.2091 31.1746 57.1544 31.2057 57.0096L31.4196 55.9858L31.7423 55.9662L31.855 55.7973L31.855 55.7973ZM32.9087 54.9906L32.8815 55.1119C33.1537 55.1354 33.1692 55.1706 33.107 55.4993L32.8154 57.0213C32.7571 57.3187 32.7221 57.3539 32.481 57.3813L32.4577 57.5026H33.5464L33.5697 57.3813C33.2626 57.3578 33.2392 57.3226 33.2937 57.0291L33.422 56.3249H33.7136C34.0091 56.3249 34.0479 56.3601 34.0441 56.6496H34.1763L34.324 55.8553H34.1996C34.0985 56.1057 34.0752 56.1488 33.7641 56.1488H33.4609L33.6242 55.2997C33.6475 55.1784 33.6708 55.1432 33.7836 55.1432H33.9935C34.1996 55.1432 34.2852 55.1706 34.324 55.2606C34.359 55.3349 34.3707 55.4562 34.3824 55.5971L34.5068 55.5853C34.534 55.3858 34.569 55.0806 34.5845 54.9906H32.9087H32.9087ZM35.7043 56.9744C35.5254 57.1504 35.3194 57.2483 35.1755 57.2483C34.9967 57.2483 34.9344 57.0761 34.9344 56.857C34.9344 56.8257 34.9344 56.7905 34.9383 56.7591C35.3271 56.6535 35.8754 56.45 35.8754 56.0627C35.8754 55.8866 35.7626 55.7262 35.506 55.7262C35.3155 55.7262 35.055 55.8592 34.9111 55.9766C34.6467 56.1957 34.4679 56.5988 34.4679 56.9783C34.4679 57.4243 34.6856 57.5495 34.915 57.5495C35.1405 57.5495 35.4283 57.4517 35.7743 57.0761L35.7043 56.9744H35.7043ZM35.3271 55.9062C35.3855 55.9062 35.4671 55.961 35.4671 56.1214C35.4671 56.3248 35.3349 56.4892 34.9539 56.6144C35.0044 56.2153 35.1483 56.0118 35.2105 55.957C35.2533 55.9218 35.2921 55.9062 35.3271 55.9062ZM37.2362 56.9744C37.0574 57.1504 36.8513 57.2483 36.7074 57.2483C36.5286 57.2483 36.4664 57.0761 36.4664 56.857C36.4664 56.8257 36.4664 56.7905 36.4702 56.7591C36.8591 56.6535 37.4073 56.45 37.4073 56.0627C37.4073 55.8866 37.2945 55.7262 37.0379 55.7262C36.8474 55.7262 36.5869 55.8592 36.443 55.9766C36.1786 56.1957 35.9998 56.5988 35.9998 56.9783C35.9998 57.4243 36.2175 57.5495 36.4469 57.5495C36.6725 57.5495 36.9602 57.4517 37.3062 57.0761L37.2362 56.9744H37.2362ZM36.8591 55.9062C36.9174 55.9062 36.999 55.961 36.999 56.1214C36.999 56.3248 36.8668 56.4892 36.4858 56.6144C36.5363 56.2153 36.6802 56.0118 36.7424 55.957C36.7852 55.9218 36.8241 55.9062 36.8591 55.9062ZM38.2588 57.0565C38.1771 57.1309 38.0722 57.1935 38.0411 57.1935C38.0177 57.1935 38.01 57.1543 38.0294 57.0526C38.1733 56.3444 38.3171 55.6362 38.4571 54.9319C38.4765 54.838 38.4765 54.791 38.4299 54.791C38.3677 54.791 38.1033 54.8967 37.7572 54.928L37.73 55.0493L37.8078 55.0571C37.9594 55.0649 37.9905 55.0884 37.9516 55.288C37.8311 55.8827 37.7144 56.4774 37.5939 57.0722C37.5123 57.4674 37.59 57.5495 37.6872 57.5495C37.8156 57.5495 38.0722 57.4282 38.3171 57.1583L38.2588 57.0565ZM38.8537 57.5495C39.1842 57.5495 39.6041 57.2561 39.6041 56.9C39.6041 56.7044 39.4602 56.5557 39.2619 56.4109C39.1025 56.2935 39.0131 56.1879 39.0131 56.0901C39.0131 56.0118 39.0714 55.9531 39.1531 55.9531C39.2853 55.9531 39.3941 56.0705 39.468 56.1644C39.4913 56.1957 39.5302 56.2035 39.5808 56.1683C39.6585 56.1174 39.7052 56.0353 39.7052 55.9609C39.7052 55.8436 39.573 55.7262 39.3825 55.7262C39.2464 55.7262 39.0714 55.8005 38.9315 55.9218C38.7371 56.0861 38.6943 56.2348 38.6943 56.3718C38.6943 56.5909 38.8848 56.7435 39.0403 56.8726C39.2153 57.0174 39.2658 57.0878 39.2658 57.1778C39.2658 57.2639 39.192 57.3148 39.1025 57.3148C38.9859 57.3148 38.8381 57.2287 38.7098 57.0526C38.6787 57.0096 38.6359 57.0056 38.5698 57.0487C38.5115 57.0878 38.4493 57.1739 38.4493 57.26C38.4532 57.4321 38.6593 57.5495 38.8537 57.5495ZM42.2869 56.8413C42.2014 56.9978 42.1158 57.1269 42.038 57.2052C41.937 57.3069 41.8242 57.35 41.6415 57.35C41.4937 57.35 41.4082 57.3343 41.3654 57.2913C41.3226 57.2404 41.3265 57.1582 41.3537 57.0213L41.6531 55.4366C41.7037 55.1706 41.7309 55.1354 41.9992 55.1119L42.0264 54.9906H40.9571L40.9299 55.1119C41.206 55.1354 41.2293 55.1745 41.1788 55.4366L40.8677 57.0252C40.8094 57.3265 40.7861 57.3578 40.5139 57.3813L40.4828 57.5026H42.178C42.2324 57.3734 42.3646 57.0096 42.4113 56.8844L42.2869 56.8413H42.2869ZM43.2861 54.971C43.1151 54.971 43.0062 55.1158 43.0062 55.2684C43.0101 55.4015 43.0878 55.4914 43.2161 55.4914C43.3872 55.4914 43.4961 55.3506 43.4961 55.1941C43.4961 55.0845 43.43 54.971 43.2861 54.971ZM43.36 57.0409C43.2589 57.1309 43.1695 57.1856 43.1384 57.1856C43.1112 57.1856 43.0995 57.1543 43.1267 57.0448L43.3444 56.1214C43.4067 55.8592 43.3872 55.7262 43.2745 55.7262C43.1384 55.7262 42.8545 55.8866 42.6018 56.137L42.6524 56.2388C42.7262 56.184 42.8468 56.1018 42.8779 56.1018C42.9012 56.1018 42.9012 56.137 42.8817 56.227L42.6679 57.17C42.5979 57.4713 42.6757 57.5495 42.7768 57.5495C42.8973 57.5495 43.1695 57.4243 43.4222 57.1348L43.36 57.0409H43.36ZM45.2069 57.0683C45.133 57.1543 45.063 57.2052 45.0241 57.2052C44.9814 57.2052 44.9386 57.1348 44.8647 56.947C44.7753 56.7396 44.6898 56.45 44.6431 56.2622C44.7248 56.1566 44.8608 56.0666 44.9814 56.0666C45.0553 56.0666 45.1136 56.0861 45.1563 56.1096C45.1836 56.1174 45.2108 56.1057 45.238 56.0822C45.2846 56.0314 45.3313 55.9375 45.3313 55.871C45.3313 55.7888 45.2536 55.7262 45.1408 55.7262C44.9386 55.7262 44.752 55.9453 44.5537 56.1527C44.4409 56.2622 44.3515 56.3757 44.2465 56.5088H44.2387C44.3554 55.9766 44.4604 55.4797 44.5809 54.928C44.6042 54.8263 44.6042 54.7911 44.5537 54.7911C44.4953 54.7911 44.2349 54.8967 43.8771 54.928L43.8499 55.0532L43.9471 55.0571C44.0949 55.0688 44.1065 55.0923 44.0716 55.2723C43.9238 56.0549 43.7722 56.7709 43.605 57.5222L43.6322 57.5495C43.7527 57.5182 43.9044 57.4869 44.056 57.4634C44.0871 57.2913 44.1299 57.0722 44.1882 56.767C44.2154 56.7122 44.2504 56.6652 44.3087 56.5987C44.3826 56.857 44.4526 57.0996 44.5226 57.2756C44.5926 57.4595 44.6781 57.5495 44.787 57.5495C44.8881 57.5495 45.0708 57.4752 45.2769 57.1661L45.2069 57.0683H45.2069ZM46.6611 56.9744C46.4822 57.1504 46.2761 57.2483 46.1323 57.2483C45.9534 57.2483 45.8912 57.0761 45.8912 56.857C45.8912 56.8257 45.8912 56.7905 45.8951 56.7591C46.2839 56.6535 46.8321 56.45 46.8321 56.0627C46.8321 55.8866 46.7194 55.7262 46.4628 55.7262C46.2722 55.7262 46.0117 55.8592 45.8679 55.9766C45.6035 56.1957 45.4246 56.5988 45.4246 56.9783C45.4246 57.4243 45.6424 57.5495 45.8718 57.5495C46.0973 57.5495 46.385 57.4517 46.7311 57.0761L46.6611 56.9744H46.6611ZM46.2839 55.9062C46.3422 55.9062 46.4239 55.961 46.4239 56.1214C46.4239 56.3248 46.2917 56.4892 45.9106 56.6144C45.9612 56.2153 46.105 56.0118 46.1672 55.957C46.21 55.9218 46.2489 55.9062 46.2839 55.9062ZM50.4325 54.9906H49.3905L49.3594 55.1119C49.616 55.1354 49.6355 55.1745 49.5849 55.4562L49.4644 56.0784H48.6129L48.7296 55.4562C48.784 55.1745 48.8073 55.1354 49.0406 55.1119L49.0678 54.9906H48.0219L47.9947 55.1119C48.2707 55.1354 48.3096 55.1745 48.2552 55.4562L47.948 57.0291C47.8897 57.3226 47.8703 57.3539 47.6097 57.3813L47.5825 57.5026H48.6284L48.6518 57.3813C48.3952 57.3578 48.3718 57.3148 48.4263 57.0291L48.5701 56.2662H49.4255L49.2855 57.0291C49.2311 57.3226 49.2 57.3578 48.9473 57.3813L48.9201 57.5026H49.9738L50.0049 57.3813C49.7327 57.3539 49.7055 57.3226 49.7599 57.0291L50.0632 55.4562C50.1177 55.1706 50.1371 55.1354 50.4054 55.1119L50.4326 54.9906H50.4325ZM50.8369 57.5495C51.0702 57.5495 51.2996 57.44 51.4629 57.303C51.7312 57.0722 51.8711 56.6887 51.8711 56.3405C51.8711 55.9688 51.7001 55.7262 51.3462 55.7262C51.1868 55.7262 50.9963 55.7888 50.8408 55.8827C50.553 56.0549 50.3003 56.4227 50.3003 56.9274C50.3003 57.217 50.4092 57.5496 50.8369 57.5496L50.8369 57.5495ZM50.9885 57.3774C50.8836 57.3774 50.7825 57.2443 50.7825 56.9744C50.7825 56.317 50.9924 55.9688 51.113 55.914C51.1441 55.9023 51.1674 55.8944 51.1946 55.8944C51.3152 55.8944 51.3929 56.0196 51.3929 56.3014C51.3929 56.8922 51.214 57.303 51.0741 57.3578C51.0391 57.3695 51.0235 57.3774 50.9885 57.3774ZM54.7212 57.037C54.6356 57.1152 54.5268 57.1896 54.4956 57.1896C54.4684 57.1896 54.4645 57.1583 54.484 57.0604L54.6551 56.3092C54.7717 55.7849 54.6395 55.7262 54.5423 55.7262C54.4645 55.7262 54.3751 55.7614 54.2779 55.8201C54.1146 55.9218 53.9241 56.09 53.7102 56.3718H53.7025L53.7219 56.2739C53.823 55.7849 53.6869 55.7262 53.5936 55.7262C53.5158 55.7262 53.4342 55.7614 53.337 55.8162C53.197 55.9022 52.9559 56.1253 52.7693 56.3796H52.7615L52.8082 56.1722C52.8743 55.8514 52.851 55.7262 52.7304 55.7262C52.5944 55.7262 52.3572 55.8709 52.1083 56.1292L52.1589 56.2387C52.2405 56.1644 52.3494 56.09 52.3844 56.09C52.4038 56.1057 52.4155 56.1331 52.3883 56.2583C52.2911 56.6965 52.1977 57.0956 52.0966 57.5026L52.1239 57.5339C52.2444 57.5026 52.4077 57.4713 52.5515 57.4595C52.606 57.2052 52.6682 56.8844 52.7226 56.6848C52.8276 56.4618 53.1698 56.0588 53.2903 56.0588C53.337 56.0588 53.3447 56.1253 53.2981 56.3444C53.2125 56.7161 53.1231 57.1152 53.0259 57.5026L53.0531 57.5339C53.1737 57.5026 53.3369 57.4713 53.4886 57.4595C53.543 57.2013 53.6052 56.8804 53.6596 56.6691C53.7685 56.4383 54.1146 56.0627 54.2195 56.0627C54.2584 56.0627 54.2662 56.1292 54.2351 56.2583L54.029 57.1582C53.9551 57.4634 54.0212 57.5495 54.134 57.5495C54.2584 57.5495 54.5267 57.4282 54.7755 57.1465L54.7211 57.0369L54.7212 57.037ZM56.2298 56.9744C56.0509 57.1504 55.8448 57.2483 55.701 57.2483C55.5221 57.2483 55.4599 57.0761 55.4599 56.857C55.4599 56.8257 55.4599 56.7905 55.4638 56.7591C55.8526 56.6535 56.4008 56.45 56.4008 56.0627C56.4008 55.8866 56.288 55.7262 56.0315 55.7262C55.8409 55.7262 55.5804 55.8592 55.4366 55.9766C55.1722 56.1957 54.9933 56.5988 54.9933 56.9783C54.9933 57.4243 55.2111 57.5495 55.4405 57.5495C55.666 57.5495 55.9537 57.4517 56.2998 57.0761L56.2298 56.9744H56.2298ZM55.8526 55.9062C55.9109 55.9062 55.9926 55.961 55.9926 56.1214C55.9926 56.3248 55.8604 56.4892 55.4793 56.6144C55.5299 56.2153 55.6737 56.0118 55.7359 55.957C55.7787 55.9218 55.8176 55.9062 55.8526 55.9062ZM56.7585 57.5495C56.9063 57.5495 57.0501 57.4282 57.0501 57.2287C57.0501 57.0683 56.9452 56.947 56.8013 56.947C56.6341 56.947 56.5136 57.0878 56.5136 57.2756C56.5136 57.4282 56.6146 57.5495 56.7585 57.5495L56.7585 57.5495ZM57.6878 57.5495C57.8356 57.5495 57.9794 57.4282 57.9794 57.2287C57.9794 57.0683 57.8744 56.947 57.7306 56.947C57.5634 56.947 57.4428 57.0878 57.4428 57.2756C57.4428 57.4282 57.5439 57.5495 57.6878 57.5495L57.6878 57.5495ZM58.6171 57.5495C58.7648 57.5495 58.9087 57.4282 58.9087 57.2287C58.9087 57.0683 58.8037 56.947 58.6598 56.947C58.4926 56.947 58.3721 57.0878 58.3721 57.2756C58.3721 57.4282 58.4732 57.5495 58.6171 57.5495L58.6171 57.5495Z" fill="#1B1F26"/>
</g>
<defs>
<clipPath id="clip0_912_1961">
<rect width="72" height="57.6" fill="white" transform="translate(0 0.814453)"/>
</clipPath>
</defs>
</svg>
